<?xml version="1.0" encoding="UTF-8" standalone="no"?>
<!-- Created with Inkscape (http://www.inkscape.org/) -->

<svg
   width="49.535141mm"
   height="63.57267mm"
   viewBox="0 0 49.535141 63.57267"
   version="1.1"
   id="svg1"
   inkscape:version="1.4.2 (ebf0e940, 2025-05-08)"
   sodipodi:docname="coffee.svg"
   xmlns:inkscape="http://www.inkscape.org/namespaces/inkscape"
   xmlns:sodipodi="http://sodipodi.sourceforge.net/DTD/sodipodi-0.dtd"
   xmlns="http://www.w3.org/2000/svg"
   xmlns:svg="http://www.w3.org/2000/svg">
  <sodipodi:namedview
     id="namedview1"
     pagecolor="#ffffff"
     bordercolor="#000000"
     borderopacity="0.25"
     inkscape:showpageshadow="2"
     inkscape:pageopacity="0.0"
     inkscape:pagecheckerboard="0"
     inkscape:deskcolor="#d1d1d1"
     inkscape:document-units="mm"
     inkscape:zoom="0.023162177"
     inkscape:cx="107.93459"
     inkscape:cy="129.5215"
     inkscape:window-width="896"
     inkscape:window-height="245"
     inkscape:window-x="0"
     inkscape:window-y="25"
     inkscape:window-maximized="0"
     inkscape:current-layer="layer1" />
  <defs
     id="defs1">
    <clipPath
       clipPathUnits="userSpaceOnUse"
       id="clipPath602">
      <path
         d="M 0,5134.295 H 2109.737 V 0 H 0 Z"
         transform="matrix(1.3333333,0,0,-1.3333333,0,6845.7333)"
         id="path602" />
    </clipPath>
    <clipPath
       clipPathUnits="userSpaceOnUse"
       id="clipPath600">
      <path
         d="M 454.135,3755.03 H 594.55 v -23.39 H 454.135 Z"
         transform="translate(-594.55042,-3743.3368)"
         id="path600" />
    </clipPath>
    <clipPath
       clipPathUnits="userSpaceOnUse"
       id="clipPath604">
      <path
         d="M 0,5134.295 H 2109.737 V 0 H 0 Z"
         transform="translate(-573.88871,-3885.5489)"
         id="path604" />
    </clipPath>
    <clipPath
       clipPathUnits="userSpaceOnUse"
       id="clipPath606">
      <path
         d="M 0,5134.295 H 2109.737 V 0 H 0 Z"
         transform="translate(-580.49501,-3885.5489)"
         id="path606" />
    </clipPath>
    <clipPath
       clipPathUnits="userSpaceOnUse"
       id="clipPath608">
      <path
         d="M 0,5134.295 H 2109.737 V 0 H 0 Z"
         transform="translate(-579.32602,-3893.954)"
         id="path608" />
    </clipPath>
    <clipPath
       clipPathUnits="userSpaceOnUse"
       id="clipPath610">
      <path
         d="M 0,5134.295 H 2109.737 V 0 H 0 Z"
         transform="translate(-573.88871,-3895.4735)"
         id="path610" />
    </clipPath>
    <clipPath
       clipPathUnits="userSpaceOnUse"
       id="clipPath612">
      <path
         d="M 0,5134.295 H 2109.737 V 0 H 0 Z"
         transform="translate(-563.89342,-3908.8648)"
         id="path612" />
    </clipPath>
    <clipPath
       clipPathUnits="userSpaceOnUse"
       id="clipPath614">
      <path
         d="M 0,5134.295 H 2109.737 V 0 H 0 Z"
         transform="translate(-579.52771,-3890.9647)"
         id="path614" />
    </clipPath>
    <clipPath
       clipPathUnits="userSpaceOnUse"
       id="clipPath616">
      <path
         d="M 0,5134.295 H 2109.737 V 0 H 0 Z"
         transform="translate(0,-2.5000001e-5)"
         id="path616" />
    </clipPath>
    <clipPath
       clipPathUnits="userSpaceOnUse"
       id="clipPath618">
      <path
         d="M 0,5134.295 H 2109.737 V 0 H 0 Z"
         transform="translate(-570.74041,-3851.7381)"
         id="path618" />
    </clipPath>
    <clipPath
       clipPathUnits="userSpaceOnUse"
       id="clipPath620">
      <path
         d="M 0,5134.295 H 2109.737 V 0 H 0 Z"
         transform="translate(-524.34371,-3847.2042)"
         id="path620" />
    </clipPath>
    <clipPath
       clipPathUnits="userSpaceOnUse"
       id="clipPath623">
      <path
         d="M 0,5134.295 H 2109.737 V 0 H 0 Z"
         transform="matrix(1.3333333,0,0,-1.3333333,0,6845.7333)"
         id="path623" />
    </clipPath>
    <clipPath
       clipPathUnits="userSpaceOnUse"
       id="clipPath621">
      <path
         d="m 474.795,3885.54 h 99.094 v -2.56 h -99.094 z"
         transform="translate(-573.64921,-3882.9789)"
         id="path621" />
    </clipPath>
    <clipPath
       clipPathUnits="userSpaceOnUse"
       id="clipPath626">
      <path
         d="M 0,5134.295 H 2109.737 V 0 H 0 Z"
         transform="matrix(1.3333333,0,0,-1.3333333,0,6845.7333)"
         id="path626" />
    </clipPath>
    <clipPath
       clipPathUnits="userSpaceOnUse"
       id="clipPath624">
      <path
         d="m 474.794,3897.1 h 99.095 v -1.63 h -99.095 z"
         transform="translate(-573.88871,-3895.4735)"
         id="path624" />
    </clipPath>
  </defs>
  <g
     inkscape:label="Layer 1"
     inkscape:groupmode="layer"
     id="layer1"
     transform="translate(-83.872914,-116.68123)">
    <g
       id="g866"
       style="display:inline"
       transform="matrix(0.26458333,0,0,0.26458333,-76.335963,-314.5717)">
      <g
         id="g601"
         clip-path="url(#clipPath602)">
        <path
           d="m 0,0 c 0,-6.458 -31.433,-11.692 -70.208,-11.692 -38.774,0 -70.207,5.234 -70.207,11.692 0,6.458 31.433,11.692 70.207,11.692 C -31.433,11.692 0,6.458 0,0"
           style="fill:#d3d4d3;fill-opacity:1;fill-rule:nonzero;stroke:none"
           transform="matrix(1.3333333,0,0,-1.3333333,792.73387,1854.6177)"
           clip-path="url(#clipPath600)"
           id="path601" />
      </g>
      <path
         id="path603"
         d="m 0,0 -3.148,-33.811 -5.399,-57.928 -4.744,-50.91 c -0.105,-1.128 -1.051,-1.99 -2.184,-1.99 h -67.581 c -1.449,0 -2.66,1.104 -2.794,2.546 l -4.692,50.354 -5.4,57.928 L -99.095,0 Z"
         style="fill:#f1ecdf;fill-opacity:1;fill-rule:nonzero;stroke:none"
         transform="matrix(1.3333333,0,0,-1.3333333,765.18493,1665.0016)"
         clip-path="url(#clipPath604)" />
      <path
         id="path605"
         d="m 0,0 h -112.302 c -0.498,0 -0.848,0.492 -0.673,0.962 l 1.574,4.454 0.191,0.546 H -1.169 L -0.967,5.416 0.672,0.962 C 0.842,0.492 0.498,0 0,0"
         style="fill:#7d563d;fill-opacity:1;fill-rule:nonzero;stroke:none"
         transform="matrix(1.3333333,0,0,-1.3333333,773.99333,1665.0016)"
         clip-path="url(#clipPath606)" />
      <path
         id="path607"
         d="M 0,0 V -2.443 H -110.041 V 0 c 0,0.842 0.683,1.52 1.525,1.52 H -1.525 C -0.683,1.52 0,0.842 0,0"
         style="fill:#7d563d;fill-opacity:1;fill-rule:nonzero;stroke:none"
         transform="matrix(1.3333333,0,0,-1.3333333,772.43467,1653.7948)"
         clip-path="url(#clipPath608)" />
      <path
         id="path609"
         d="m 0,0 h -99.095 l 0.263,1.623 1.399,8.618 c 0,1.738 1.41,3.147 3.153,3.147 h 89.47 c 1.739,0 3.148,-1.409 3.148,-3.147 l 1.4,-8.618 z"
         style="fill:#6f4425;fill-opacity:1;fill-rule:nonzero;stroke:none"
         transform="matrix(1.3333333,0,0,-1.3333333,765.18493,1651.7688)"
         clip-path="url(#clipPath610)" />
      <path
         id="path611"
         d="m 0,0 h -14.938 v 0.902 c 0,1.151 0.934,2.084 2.086,2.084 H -2.086 C -0.934,2.986 0,2.053 0,0.902 Z"
         style="fill:#5c3316;fill-opacity:1;fill-rule:nonzero;stroke:none"
         transform="matrix(1.3333333,0,0,-1.3333333,751.85787,1633.9137)"
         clip-path="url(#clipPath612)" />
      <path
         id="path613"
         d="m 0,0 h -110.433 l 0.19,0.546 H -0.202 Z"
         style="fill:#946646;fill-opacity:1;fill-rule:nonzero;stroke:none"
         transform="matrix(1.3333333,0,0,-1.3333333,772.7036,1657.7805)"
         clip-path="url(#clipPath614)" />
      <path
         id="path615"
         d="M 579.326,3891.511 H 469.285 v 0.546 h 110.041 z"
         style="fill:#6d4a35;fill-opacity:1;fill-rule:nonzero;stroke:none"
         transform="matrix(1.3333333,0,0,-1.3333333,0,6845.7333)"
         clip-path="url(#clipPath616)" />
      <path
         id="path617"
         d="M 0,0 -5.399,-57.928 H -87.394 L -92.793,0 Z"
         style="fill:#c1925c;fill-opacity:1;fill-rule:nonzero;stroke:none"
         transform="matrix(1.3333333,0,0,-1.3333333,760.9872,1710.0827)"
         clip-path="url(#clipPath618)" />
      <path
         id="path619"
         d="m 0,0 c 13.492,0 24.43,-10.938 24.43,-24.43 0,-13.492 -10.938,-24.43 -24.43,-24.43 -13.492,0 -24.43,10.938 -24.43,24.43 C -24.43,-10.938 -13.492,0 0,0"
         style="fill:#ebdac2;fill-opacity:1;fill-rule:nonzero;stroke:none"
         transform="matrix(1.3333333,0,0,-1.3333333,699.12493,1716.1279)"
         clip-path="url(#clipPath620)" />
      <g
         id="g622"
         clip-path="url(#clipPath623)"
         style="display:inline">
        <path
           d="m 0,0 h -98.616 l -0.239,2.563 H 0.24 Z"
           style="fill:#e8e9e9;fill-opacity:1;fill-rule:nonzero;stroke:none"
           transform="matrix(1.3333333,0,0,-1.3333333,764.8656,1668.4283)"
           clip-path="url(#clipPath621)"
           id="path622" />
      </g>
      <g
         id="g625"
         clip-path="url(#clipPath626)"
         style="display:inline">
        <path
           d="m 0,0 h -99.095 l 0.263,1.623 h 98.57 z"
           style="fill:#e8e9e9;fill-opacity:1;fill-rule:nonzero;stroke:none"
           transform="matrix(1.3333333,0,0,-1.3333333,765.18493,1651.7688)"
           clip-path="url(#clipPath624)"
           id="path625" />
      </g>
    </g>
  </g>
</svg>
