<?xml version="1.0" encoding="utf-8"?>
<!-- Generator: Adobe Illustrator 24.1.0, SVG Export Plug-In . SVG Version: 6.00 Build 0)  -->
<!DOCTYPE svg PUBLIC "-//W3C//DTD SVG 1.1//EN" "http://www.w3.org/Graphics/SVG/1.1/DTD/svg11.dtd" [
	<!ENTITY ns_extend "http://ns.adobe.com/Extensibility/1.0/">
	<!ENTITY ns_ai "http://ns.adobe.com/AdobeIllustrator/10.0/">
	<!ENTITY ns_graphs "http://ns.adobe.com/Graphs/1.0/">
	<!ENTITY ns_vars "http://ns.adobe.com/Variables/1.0/">
	<!ENTITY ns_imrep "http://ns.adobe.com/ImageReplacement/1.0/">
	<!ENTITY ns_sfw "http://ns.adobe.com/SaveForWeb/1.0/">
	<!ENTITY ns_custom "http://ns.adobe.com/GenericCustomNamespace/1.0/">
	<!ENTITY ns_adobe_xpath "http://ns.adobe.com/XPath/1.0/">
]>
<svg version="1.1" id="Calque_1" xmlns:x="&ns_extend;" xmlns:i="&ns_ai;" xmlns:graph="&ns_graphs;"
	 xmlns="http://www.w3.org/2000/svg" xmlns:xlink="http://www.w3.org/1999/xlink" x="0px" y="0px" viewBox="0 0 232 56"
	 style="enable-background:new 0 0 232 56;" xml:space="preserve">
<style type="text/css">
	.st0{fill:#FFFFFF;}
</style>
<metadata>
	<sfw  xmlns="&ns_sfw;">
		<slices></slices>
		<sliceSourceBounds  bottomLeftOrigin="true" height="54.3" width="230.6" x="0.7" y="-54.8"></sliceSourceBounds>
	</sfw>
</metadata>
<g id="Groupe_53" transform="translate(-5.5 -14.9)">
	<g id="Groupe_51" transform="translate(5.5 20.452)">
		<path id="Tracé_531" class="st0" d="M27.8,0.9c2.3,0,4.1,1.8,4.1,4.1v17.9H5.3c-2.3,0-4.1-1.8-4.1-4.1V0.9H27.8 M27.8,0.5H0.7
			v18.4c0,2.5,2.1,4.6,4.6,4.6h27.1V5.1C32.4,2.6,30.3,0.5,27.8,0.5L27.8,0.5z"/>
		<path id="Tracé_532" class="st0" d="M62,23.4H34.9V5.1c0-2.5,2.1-4.6,4.6-4.6h27.1v18.4C66.6,21.4,64.6,23.5,62,23.4z"/>
		<path id="Tracé_533" class="st0" d="M27.8,48H0.7V29.7c0-2.5,2.1-4.6,4.6-4.6h27.1v18.4C32.4,46,30.3,48,27.8,48z"/>
		<path id="Tracé_534" class="st0" d="M62,25.5c2.3,0,4.1,1.8,4.1,4.1v17.9H39.6c-2.3,0-4.1-1.8-4.1-4.1V25.5H62 M62,25H34.9v18.4
			c0,2.5,2.1,4.6,4.6,4.6h27.1V29.7C66.6,27.1,64.6,25.1,62,25L62,25z"/>
		<g id="Groupe_48" transform="translate(6.056 1.682)">
			<rect id="Rectangle_125" x="9.7" y="0.5" class="st0" width="1.5" height="4.4"/>
			
				<rect id="Rectangle_126" x="5.9" y="1.6" transform="matrix(0.866 -0.5 0.5 0.866 -0.9868 3.837)" class="st0" width="1.5" height="4.4"/>
			
				<rect id="Rectangle_127" x="3.1" y="4.4" transform="matrix(0.5 -0.866 0.866 0.5 -3.7939 6.6874)" class="st0" width="1.5" height="4.4"/>
			<rect id="Rectangle_128" x="0.7" y="9.7" class="st0" width="4.4" height="1.5"/>
			
				<rect id="Rectangle_129" x="1.8" y="13.6" transform="matrix(0.866 -0.5 0.5 0.866 -6.649 3.9294)" class="st0" width="4.4" height="1.5"/>
			
				<rect id="Rectangle_130" x="4.7" y="16.4" transform="matrix(0.5 -0.866 0.866 0.5 -11.4143 14.5275)" class="st0" width="4.4" height="1.5"/>
			<rect id="Rectangle_131" x="10" y="15.9" class="st0" width="1.5" height="4.4"/>
			
				<rect id="Rectangle_132" x="13.7" y="14.8" transform="matrix(0.866 -0.5 0.5 0.866 -6.5532 9.5259)" class="st0" width="1.5" height="4.4"/>
			
				<rect id="Rectangle_133" x="16.5" y="12" transform="matrix(0.5 -0.866 0.866 0.5 -3.6295 22.0282)" class="st0" width="1.5" height="4.4"/>
			<rect id="Rectangle_134" x="16.1" y="9.5" class="st0" width="4.4" height="1.5"/>
			
				<rect id="Rectangle_135" x="15" y="5.7" transform="matrix(0.866 -0.5 0.5 0.866 -0.9289 9.4644)" class="st0" width="4.4" height="1.5"/>
			
				<rect id="Rectangle_136" x="12.2" y="3" transform="matrix(0.5 -0.866 0.866 0.5 3.9575 14.2886)" class="st0" width="4.4" height="1.5"/>
		</g>
		<g id="Groupe_50" transform="translate(41.889 27.337)">
			<circle id="Ellipse_23" class="st0" cx="2.9" cy="15.7" r="2.2"/>
			<g id="Groupe_49" transform="translate(0.505)">
				<path id="Tracé_535" class="st0" d="M0.8,3.3c7.7,0,14,6.3,14,14h2.7C17.5,8,10,0.5,0.7,0.5c0,0,0,0,0,0L0.8,3.3L0.8,3.3z"/>
				<path id="Tracé_536" class="st0" d="M0.8,9.6c4.1,0.3,7.3,3.6,7.7,7.7H11C10.6,11.8,6.2,7.4,0.7,7L0.8,9.6z"/>
			</g>
		</g>
	</g>
	<g id="Groupe_52" transform="translate(77.586 14.9)">
		<path id="Tracé_537" class="st0" d="M3.3,22.7c-1.7-1.7-2.7-4.1-2.6-6.6c-0.1-2.5,0.9-4.8,2.7-6.6c3.2-3,8-3.5,11.7-1.1
			c1.5,1,2.7,2.5,3.3,4.2H14c-0.8-1.6-2.4-2.5-4.1-2.4c-1.5-0.1-2.9,0.5-4,1.6c-1,1.2-1.6,2.7-1.5,4.3c-0.1,1.6,0.5,3.1,1.5,4.3
			c1,1.1,2.3,1.6,3.8,1.6c1.3,0.1,2.5-0.3,3.5-1.1c0.9-0.8,1.4-1.8,1.6-2.9h-6v-2.8h9.8v2.8c-0.7,4.3-4.5,7.4-8.9,7.3
			C7.4,25.3,5.1,24.3,3.3,22.7z"/>
		<path id="Tracé_538" class="st0" d="M31.5,7.1v2.8h-6.7v4.7h6v2.8h-6v5h6.7v2.8H21.2v-18L31.5,7.1z M23.2,3.6l5.9-3.1v2.9
			l-5.9,2.7V3.6z"/>
		<path id="Tracé_539" class="st0" d="M46.7,7.1h3.6v18h-3.6l-8.1-12.4v12.4H35v-18h3.6l8.1,12.4V7.1z"/>
		<path id="Tracé_540" class="st0" d="M64.2,7.1v2.8h-6.7v4.7h6v2.8h-6v5h6.7v2.8H53.9v-18L64.2,7.1z M55.9,3.6l5.9-3.1v2.9
			l-5.9,2.7V3.6z"/>
		<path id="Tracé_541" class="st0" d="M71.3,18v7.1h-3.6v-18h6.6C76,7,77.7,7.5,79,8.6c1.1,1,1.7,2.4,1.7,3.9c0,1.1-0.4,2.3-1,3.2
			c-0.8,1.1-1.9,1.8-3.2,2l4.5,7.4h-4.3L72.5,18L71.3,18z M71.3,9.9v5.2h2.9c0.8,0,1.5-0.2,2.1-0.7c1-1.1,1-2.8,0-3.9
			c-0.6-0.5-1.3-0.7-2.1-0.7H71.3z"/>
		<path id="Tracé_542" class="st0" d="M95.8,25.1l-1.2-3.4h-7l-1.2,3.4h-3.8l6.3-18h4.3l6.3,18H95.8z M88.7,19h5.1l-2.6-7.5
			L88.7,19z"/>
		<path id="Tracé_543" class="st0" d="M100.9,9.9V7.1h13.3v2.8h-4.9V25h-3.6V9.9H100.9z"/>
		<path id="Tracé_544" class="st0" d="M116.7,25.1v-18h3.6V25L116.7,25.1L116.7,25.1z"/>
		<path id="Tracé_545" class="st0" d="M132.1,25.3c-4.9,0.1-9-3.7-9.2-8.7c0-0.2,0-0.3,0-0.5c-0.1-2.5,0.9-4.9,2.7-6.6
			c1.7-1.7,4.1-2.7,6.6-2.6c2.4-0.1,4.8,0.9,6.5,2.6c1.7,1.7,2.7,4.1,2.6,6.6c0.1,2.5-0.8,4.8-2.6,6.6
			C136.9,24.4,134.5,25.3,132.1,25.3z M136.1,20.3c1-1.2,1.6-2.7,1.5-4.3c0.1-1.6-0.5-3.1-1.5-4.3c-2.2-2.1-5.7-2.1-7.9,0
			c-1,1.2-1.6,2.7-1.5,4.3c-0.1,1.6,0.5,3.1,1.5,4.3C130.4,22.5,133.8,22.5,136.1,20.3z"/>
		<path id="Tracé_546" class="st0" d="M155.6,7.1h3.6v18h-3.6l-8.1-12.4v12.4h-3.6v-18h3.6l8.1,12.4V7.1z"/>
		<path id="Tracé_547" class="st0" d="M13.4,33.7H17v18h-3.6L5.3,39.3v12.4H1.6v-18h3.6l8.1,12.4L13.4,33.7L13.4,33.7z"/>
		<path id="Tracé_548" class="st0" d="M20.8,44.8v-11h3.6v11c-0.1,1,0.3,2,0.9,2.8c0.7,0.7,1.7,1,2.7,0.9c1.8,0.2,3.4-1.1,3.6-2.8
			c0-0.3,0-0.6,0-0.9v-11h3.6v11c0.1,2-0.6,3.9-2.1,5.2c-3,2.5-7.3,2.5-10.3,0C21.4,48.7,20.7,46.8,20.8,44.8z"/>
		<path id="Tracé_549" class="st0" d="M58.7,33.8v17.9h-3.6V40.3l-4.9,11.4h-2.6l-4.9-11.3v11.3h-3.6V33.8h4l5.7,13.3l5.7-13.3
			H58.7z"/>
		<path id="Tracé_550" class="st0" d="M72.8,33.7v2.8h-6.7v4.7h6V44h-6v5h6.7v2.8H62.5v-18L72.8,33.7z M64.5,30.2l5.9-3.1V30
			l-5.9,2.7V30.2z"/>
		<path id="Tracé_551" class="st0" d="M80.1,44.6v7.2h-3.6V33.8h6.6c1.7-0.1,3.4,0.4,4.8,1.5c1.1,1,1.7,2.4,1.7,3.9
			c0,1.1-0.4,2.3-1,3.2c-0.8,1.1-1.9,1.8-3.2,2l4.5,7.4h-4.3l-4.3-7.2L80.1,44.6L80.1,44.6z M80.1,36.6v5.2h2.9
			c0.8,0,1.5-0.2,2.1-0.7c1-1.1,1-2.8,0-3.9c-0.6-0.5-1.3-0.7-2.1-0.7H80.1z"/>
		<path id="Tracé_552" class="st0" d="M93.2,51.7V33.8h3.6v17.9H93.2z"/>
		<path id="Tracé_553" class="st0" d="M108.8,51.9c-4.9,0.1-9-3.7-9.2-8.7c0-0.2,0-0.3,0-0.5c-0.1-2.5,0.9-4.9,2.7-6.6
			c1.7-1.7,4.1-2.7,6.6-2.6c2.4-0.1,4.8,0.9,6.5,2.6c1.7,1.7,2.7,4.1,2.6,6.6c0,1.5-0.3,3-1,4.3c-0.7,1.3-1.6,2.4-2.8,3.2l4,4.6
			h-4.5l-2.6-3.2C110.3,51.8,109.6,51.9,108.8,51.9z M108.8,36.8c-1.5-0.1-2.9,0.5-4,1.6c-2,2.5-2,6.1,0,8.6c2.2,2.1,5.7,2.1,7.9,0
			c2-2.5,2-6.1,0-8.6C111.7,37.3,110.3,36.7,108.8,36.8L108.8,36.8z"/>
		<path id="Tracé_554" class="st0" d="M120.9,44.8v-11h3.6v11c-0.1,1,0.3,2,0.9,2.8c0.7,0.7,1.7,1,2.7,0.9c1.8,0.2,3.4-1.1,3.6-2.8
			c0-0.3,0-0.6,0-0.9v-11h3.6v11c0.1,2-0.6,3.9-2.1,5.2c-1.4,1.3-3.3,1.9-5.2,1.9c-1.9,0.1-3.7-0.6-5.1-1.9
			C121.5,48.7,120.8,46.8,120.9,44.8z"/>
		<path id="Tracé_555" class="st0" d="M149.5,33.7v2.8h-6.7v4.7h6V44h-6v5h6.7v2.8h-10.3v-18H149.5z"/>
	</g>
</g>
</svg>
