<?xml version="1.0" encoding="UTF-8" standalone="no"?>
<!-- Generator: Adobe Illustrator 18.0.0, SVG Export Plug-In . SVG Version: 6.00 Build 0)  -->

<svg
   xmlns:dc="http://purl.org/dc/elements/1.1/"
   xmlns:cc="http://creativecommons.org/ns#"
   xmlns:rdf="http://www.w3.org/1999/02/22-rdf-syntax-ns#"
   xmlns:svg="http://www.w3.org/2000/svg"
   xmlns="http://www.w3.org/2000/svg"
   xmlns:sodipodi="http://sodipodi.sourceforge.net/DTD/sodipodi-0.dtd"
   xmlns:inkscape="http://www.inkscape.org/namespaces/inkscape"
   version="1.1"
   id="Layer_1"
   x="0px"
   y="0px"
   viewBox="0 0 576.40001 137.94649"
   enable-background="new 0 0 841.9 595.3"
   xml:space="preserve"
   inkscape:version="0.91 r13725"
   sodipodi:docname="logoduelblacksvg.svg"
   width="576.40002"
   height="137.94649"><metadata
     id="metadata3455"><rdf:RDF><cc:Work
         rdf:about=""><dc:format>image/svg+xml</dc:format><dc:type
           rdf:resource="http://purl.org/dc/dcmitype/StillImage" /><dc:title></dc:title></cc:Work></rdf:RDF></metadata><defs
     id="defs3453" /><sodipodi:namedview
     pagecolor="#ffffff"
     bordercolor="#666666"
     borderopacity="1"
     objecttolerance="10"
     gridtolerance="10"
     guidetolerance="10"
     inkscape:pageopacity="0"
     inkscape:pageshadow="2"
     inkscape:window-width="1440"
     inkscape:window-height="793"
     id="namedview3451"
     showgrid="false"
     fit-margin-top="0"
     fit-margin-left="0"
     fit-margin-right="0"
     fit-margin-bottom="0"
     inkscape:zoom="1.1212982"
     inkscape:cx="283.22941"
     inkscape:cy="4.799253"
     inkscape:window-x="0"
     inkscape:window-y="1"
     inkscape:window-maximized="1"
     inkscape:current-layer="Layer_1" /><g
     id="g3431"
     transform="translate(-126,-168.78127)"
     style="fill:#000000;fill-opacity:1"><path
       d="m 176,304 c 0,-45.3 0,-89.8 0,-134.4 0.7,-0.2 1.3,-0.6 1.9,-0.6 12.7,0.1 25.4,-0.2 38.1,0.5 13.4,0.7 25.1,10 28.5,21.6 0.6,2.2 0.9,4.5 0.9,6.8 0.1,24.9 0.4,49.8 -0.1,74.7 -0.2,14.4 -10.6,26.5 -24.6,29.6 -5.7,1.3 -11.7,1.5 -17.6,1.7 -8.8,0.3 -17.7,0.1 -27.1,0.1 z m 19.2,-118.9 c 0,33.6 0,66.4 0,99.8 5.8,0 11.4,0.1 17,0 7.9,-0.2 14,-6.3 14.1,-14.2 0.1,-23.5 0.1,-47.1 0,-70.6 0,-7.3 -4.3,-12.7 -11.6,-13.8 -6.3,-1 -12.7,-0.9 -19.5,-1.2 z"
       id="path3433"
       inkscape:connector-curvature="0"
       style="fill:#000000;fill-opacity:1" /><path
       d="m 329.3,168.8 c 6.3,0 12.1,0 18.6,0 0,2.1 0,4 0,5.9 0,31.8 0,63.6 0,95.5 0,8.3 3.8,13.8 11,16.4 7.5,2.7 15.8,1.1 20.1,-5 2.2,-3.1 3.7,-7.5 3.7,-11.3 0.3,-31.7 0.2,-63.3 0.2,-95 0,-1.9 0,-3.9 0,-6.2 6.5,0 12.5,0 19.2,0 0,1.9 0,3.9 0,5.8 0,32.3 0,64.6 0,96.9 0,17.8 -13.8,32.4 -31.5,34.6 -20.8,2.6 -36.4,-10.7 -40.1,-24.6 -0.9,-3.3 -1.4,-6.8 -1.4,-10.2 -0.1,-33 -0.1,-66 -0.1,-98.9 -0.1,-1.2 0.1,-2.4 0.3,-3.9 z"
       id="path3435"
       inkscape:connector-curvature="0"
       style="fill:#000000;fill-opacity:1" /><path
       d="m 485.7,169.1 c 20.8,0 41.1,0 62,0 0,6 0,11.8 0,18.4 -14.2,0 -28.4,0 -43,0 0,13.5 0,26.2 0,39.6 12.5,0 25,0 37.8,0 0,6.4 0,12.2 0,18.7 -1.6,0.1 -3.3,0.3 -5.1,0.3 -9.6,0 -19.1,0.1 -28.7,0 -3.5,-0.1 -4.5,1.1 -4.5,4.5 0.2,10.1 0.2,20.1 0,30.2 -0.1,3.6 1,4.9 4.7,4.8 11,-0.2 22.1,-0.1 33.1,-0.1 1.8,0 3.6,0 6.2,0 0,5.9 0.1,11.4 -0.1,16.9 0,0.8 -1.6,2.2 -2.5,2.2 -19.9,0.1 -39.8,0.1 -60,0.1 0.1,-45.4 0.1,-90.2 0.1,-135.6 z"
       id="path3437"
       inkscape:connector-curvature="0"
       style="fill:#000000;fill-opacity:1" /><path
       d="m 644.8,168.9 c 0,39.2 0,77.5 0,116.3 11.5,0 22.7,0 34.2,0 0,6.6 0,12.7 0,19.1 -1.6,0.1 -3,0.3 -4.5,0.3 -14.7,0 -29.3,-0.1 -44,0.1 -3.4,0 -5,-0.6 -5,-4.6 0.1,-42.3 0.1,-84.7 0,-127 0,-3.1 0.8,-4.5 4.2,-4.3 4.8,0.3 9.5,0.1 15.1,0.1 z"
       id="path3439"
       inkscape:connector-curvature="0"
       style="fill:#000000;fill-opacity:1" /><path
       d="m 287.3,227.9 c 4.8,0 8.4,3.6 8.2,8.5 -0.1,4.5 -3.7,8.2 -8.1,8.3 -4.7,0.1 -8.4,-3.6 -8.5,-8.3 0,-4.8 3.6,-8.5 8.4,-8.5 z"
       id="path3441"
       inkscape:connector-curvature="0"
       style="fill:#000000;fill-opacity:1" /><path
       d="m 142.1,236.1 c 0.1,5 -3.3,8.6 -8,8.6 -4.7,0 -8.1,-3.6 -8.1,-8.5 0,-4.8 3.2,-8.1 7.8,-8.3 5,-0.1 8.3,3.1 8.3,8.2 z"
       id="path3443"
       inkscape:connector-curvature="0"
       style="fill:#000000;fill-opacity:1" /><path
       d="m 585,227.9 c 4.6,0.2 7.7,3.7 7.6,8.5 -0.1,5 -3.7,8.5 -8.4,8.2 -4.7,-0.2 -7.9,-4.1 -7.6,-9.1 0.2,-4.6 3.7,-7.7 8.4,-7.6 z"
       id="path3445"
       inkscape:connector-curvature="0"
       style="fill:#000000;fill-opacity:1" /><path
       d="m 443.7,227.9 c 4.5,0 7.9,3.6 8,8.2 0.1,4.8 -3.6,8.6 -8.2,8.6 -4.8,0 -8,-3.6 -7.8,-8.8 0.1,-5 3.2,-8 8,-8 z"
       id="path3447"
       inkscape:connector-curvature="0"
       style="fill:#000000;fill-opacity:1" /><path
       d="m 694.4,227.9 c 5.1,-0.1 8,2.9 8,8.3 0,5.3 -3,8.5 -7.9,8.5 -4.3,0 -7.9,-3.6 -8.1,-8.1 -0.1,-4.8 3.4,-8.6 8,-8.7 z"
       id="path3449"
       inkscape:connector-curvature="0"
       style="fill:#000000;fill-opacity:1" /></g></svg>