<?xml version="1.0" encoding="UTF-8"?>
<svg width="147px" height="34px" viewBox="0 0 147 34" version="1.1" xmlns="http://www.w3.org/2000/svg" xmlns:xlink="http://www.w3.org/1999/xlink">
    <title>logo-sun_evasion-officiel-sept2024_Logo pour internet 03</title>
    <g id="V3---Juin-2024" stroke="none" stroke-width="1" fill="none" fill-rule="evenodd">
        <g id="logo-sun_evasion-officiel-sept2024_Logo-pour-internet-03" fill-rule="nonzero">
            <g id="Group" transform="translate(43.240000, 3.500000)">
                <g transform="translate(34.750000, 5.470000)" fill="#122945">
                    <polygon id="Path" points="7.44 0.17 7.44 2.34 2.34 2.34 2.34 4.01 6.6 4.01 6.6 6.04 2.34 6.04 2.34 7.71 7.44 7.71 7.44 9.88 0 9.88 0 0.17 7.44 0.17"></polygon>
                    <polygon id="Path" points="16.33 9.88 13.76 9.88 9.46 0.17 12.04 0.17 15.05 7.11 18.05 0.17 20.63 0.17 16.32 9.88 16.32 9.88"></polygon>
                    <path d="M27.01,8.37 L22.33,8.37 L21.69,9.88 L19.21,9.88 L23.37,0.17 L25.98,0.17 L30.15,9.88 L27.65,9.88 L27.02,8.37 L27.02,8.37 L27.01,8.37 Z M26.2,6.45 L24.69,2.82 L23.15,6.45 L26.21,6.45 L26.21,6.45 L26.2,6.45 Z" id="Shape"></path>
                    <path d="M38.96,3.24 L36.63,3.24 C36.63,2.75 36.06,2.1 35.06,2.1 C34.36,2.1 33.5,2.41 33.5,2.97 C33.5,3.44 34.14,3.63 35.51,3.98 C37.04,4.38 39.19,4.89 39.19,7.04 C39.19,8.9 37.56,10.05 35.29,10.05 C32.25,10.05 30.98,7.99 30.98,6.48 L33.31,6.48 C33.31,6.48 33.5,8.02 35.42,8.02 C36.46,8.02 36.85,7.58 36.85,7.16 C36.85,6.55 36.04,6.33 35.14,6.12 C33.68,5.78 31.13,5.23 31.13,3.08 C31.13,1.31 32.87,-1.77635684e-15 35.09,-1.77635684e-15 C37.62,-1.77635684e-15 38.96,1.73 38.96,3.24 L38.96,3.24 Z" id="Path"></path>
                    <polygon id="Path" points="43.98 9.88 41.64 9.88 41.64 0.17 43.98 0.17"></polygon>
                    <path d="M56.26,5.03 C56.26,7.8 54,10.06 51.25,10.06 C48.5,10.06 46.24,7.8 46.24,5.03 C46.24,2.26 48.47,0 51.25,0 C54.03,0 56.26,2.27 56.26,5.03 Z M48.38,5.03 C48.38,6.62 49.67,7.89 51.25,7.89 C52.83,7.89 54.09,6.62 54.09,5.03 C54.09,3.44 52.8,2.19 51.25,2.19 C49.7,2.19 48.38,3.46 48.38,5.03 Z" id="Shape"></path>
                    <polygon id="Path" points="68 9.88 65.64 9.88 60.73 3.94 60.73 9.88 58.37 9.88 58.37 0.17 60.73 0.17 65.64 6.1 65.64 0.17 68 0.17"></polygon>
                </g>
                <g fill="#D09766" id="Path">
                    <path d="M7.72,0.01 C6.86,0.01 6.09,0.18 5.39,0.51 C4.69,0.84 4.09,1.27 3.6,1.8 C3.11,2.33 2.73,2.9 2.46,3.5 C2.19,4.1 2.06,4.67 2.06,5.2 C2.06,5.8 2.21,6.31 2.52,6.74 C2.82,7.17 3.22,7.54 3.7,7.87 C4.18,8.19 4.68,8.5 5.22,8.77 C5.75,9.05 6.26,9.34 6.74,9.64 C7.22,9.94 7.61,10.29 7.92,10.67 C8.22,11.05 8.38,11.51 8.38,12.04 C8.38,12.62 8.2,13.11 7.85,13.5 C7.49,13.89 7.04,14.18 6.49,14.37 C5.94,14.56 5.37,14.66 4.79,14.66 C4.12,14.66 3.55,14.54 3.1,14.3 C2.65,14.06 2.31,13.75 2.08,13.37 C1.85,12.99 1.74,12.58 1.74,12.14 C1.74,11.7 1.85,11.27 2.06,10.8 C2.27,10.33 2.59,9.88 3,9.44 C2.56,9.44 2.11,9.52 1.64,9.67 C1.17,9.83 0.78,10.1 0.47,10.5 C0.16,10.9 0,11.44 0,12.14 C0,12.93 0.21,13.59 0.64,14.12 C1.07,14.65 1.62,15.05 2.3,15.31 C2.98,15.57 3.7,15.7 4.45,15.7 C5.1,15.7 5.74,15.61 6.36,15.42 C6.99,15.23 7.56,14.96 8.08,14.6 C8.6,14.24 9.01,13.81 9.31,13.29 C9.61,12.77 9.77,12.18 9.77,11.5 C9.77,10.82 9.62,10.26 9.32,9.79 C9.02,9.32 8.64,8.92 8.16,8.58 C7.69,8.24 7.19,7.94 6.66,7.67 C6.14,7.4 5.64,7.13 5.16,6.85 C4.68,6.57 4.3,6.28 4,5.95 C3.7,5.62 3.55,5.22 3.55,4.75 C3.55,4.37 3.65,3.96 3.86,3.5 C4.07,3.04 4.36,2.6 4.74,2.19 C5.12,1.78 5.57,1.43 6.09,1.16 C6.61,0.89 7.18,0.75 7.8,0.75 C8.21,0.75 8.49,0.82 8.63,0.94 C8.77,1.07 8.83,1.25 8.83,1.48 C8.83,1.74 8.77,2.04 8.66,2.38 C8.55,2.72 8.42,3.08 8.27,3.44 C8.12,3.8 7.99,4.15 7.88,4.49 C7.77,4.83 7.72,5.13 7.72,5.4 C7.72,5.67 7.79,5.89 7.93,6.05 C8.07,6.21 8.29,6.33 8.57,6.39 C8.79,6.04 9.02,5.62 9.26,5.13 C9.5,4.64 9.7,4.12 9.87,3.58 C10.04,3.04 10.12,2.52 10.12,2.04 C10.12,1.43 9.94,0.94 9.58,0.56 C9.22,0.18 8.59,1.77635684e-15 7.69,1.77635684e-15 L7.72,1.77635684e-15 L7.72,0.01 Z"></path>
                    <path d="M29.2,10.65 C28.97,11.12 28.7,11.58 28.39,12.04 C28.09,12.5 27.76,12.88 27.43,13.18 C27.09,13.48 26.77,13.63 26.46,13.63 C26.34,13.63 26.24,13.59 26.14,13.5 C26.04,13.42 25.99,13.27 25.99,13.06 C25.99,12.78 26.05,12.48 26.17,12.19 C26.29,11.9 26.42,11.57 26.55,11.24 C26.68,10.9 26.74,10.54 26.74,10.15 C26.74,9.7 26.61,9.28 26.34,8.91 C26.07,8.53 25.66,8.35 25.11,8.35 C24.67,8.35 24.23,8.48 23.8,8.73 C23.37,8.98 22.95,9.31 22.55,9.71 C22.15,10.11 21.78,10.54 21.44,10.99 C21.54,10.6 21.62,10.25 21.68,9.95 C21.74,9.65 21.77,9.42 21.77,9.26 C21.77,8.87 21.54,8.68 21.09,8.68 C20.88,8.68 20.68,8.73 20.5,8.84 C20.31,8.94 20.17,9.05 20.08,9.15 C20.08,9.56 20.01,10.02 19.89,10.53 C19.82,10.82 19.73,11.1 19.65,11.37 C19.43,11.74 19.2,12.08 18.94,12.37 C18.54,12.84 18.15,13.19 17.77,13.44 C17.39,13.69 17.07,13.81 16.8,13.81 C16.59,13.81 16.45,13.74 16.38,13.61 C16.31,13.47 16.27,13.32 16.27,13.13 C16.27,12.82 16.33,12.46 16.45,12.05 C16.57,11.64 16.72,11.24 16.88,10.85 C17.04,10.46 17.18,10.13 17.31,9.85 C17.43,9.57 17.49,9.41 17.49,9.37 C17.49,9.21 17.42,9.09 17.28,9.01 C17.14,8.93 16.97,8.86 16.78,8.81 C16.59,8.76 16.44,8.73 16.32,8.71 C16.19,8.99 16.03,9.34 15.82,9.76 C15.62,10.17 15.39,10.6 15.14,11.04 C14.89,11.48 14.63,11.89 14.36,12.27 C14.09,12.65 13.84,12.96 13.58,13.2 C13.33,13.44 13.09,13.56 12.87,13.56 C12.68,13.56 12.54,13.48 12.46,13.31 C12.38,13.14 12.33,12.96 12.31,12.77 C12.29,12.58 12.28,12.45 12.28,12.4 C12.28,12 12.36,11.55 12.51,11.06 C12.67,10.57 12.84,10.11 13.04,9.68 C13.24,9.25 13.41,8.93 13.56,8.73 C13.42,8.59 13.25,8.47 13.06,8.37 C12.87,8.27 12.73,8.22 12.64,8.22 C12.47,8.22 12.29,8.38 12.09,8.69 C11.89,9 11.69,9.39 11.51,9.86 C11.32,10.33 11.17,10.81 11.05,11.3 C10.93,11.79 10.88,12.22 10.88,12.58 C10.88,13.11 11.02,13.58 11.3,13.99 C11.58,14.4 11.94,14.6 12.38,14.6 C12.7,14.6 13.01,14.49 13.3,14.27 C13.59,14.05 13.87,13.77 14.13,13.44 C14.39,13.11 14.63,12.77 14.85,12.42 L14.85,12.81 C14.85,13.1 14.9,13.38 14.97,13.66 C15.03,13.94 15.16,14.17 15.35,14.34 C15.54,14.51 15.82,14.6 16.2,14.6 C16.69,14.6 17.2,14.44 17.72,14.12 C18.19,13.83 18.64,13.44 19.05,12.95 C19.02,13.02 19,13.09 18.97,13.15 C18.83,13.48 18.76,13.68 18.75,13.74 C18.91,13.95 19.09,14.09 19.31,14.18 C19.53,14.26 19.76,14.31 20.01,14.31 C20.26,13.9 20.55,13.43 20.88,12.91 C21.22,12.39 21.58,11.89 21.96,11.41 C22.34,10.93 22.74,10.53 23.15,10.21 C23.56,9.89 23.96,9.73 24.35,9.73 C24.53,9.73 24.69,9.79 24.83,9.9 C24.97,10.01 25.03,10.21 25.03,10.49 C25.03,10.77 24.98,11.05 24.89,11.35 C24.8,11.65 24.71,11.94 24.62,12.23 C24.53,12.52 24.48,12.8 24.48,13.06 C24.48,13.45 24.61,13.77 24.88,14.02 C25.15,14.27 25.53,14.4 26.04,14.4 C26.55,14.4 27.03,14.24 27.45,13.92 C27.87,13.6 28.25,13.18 28.6,12.66 C28.94,12.14 29.25,11.56 29.52,10.92 L29.19,10.65 L29.19,10.65 L29.2,10.65 Z"></path>
                </g>
            </g>
            <g id="Group" transform="translate(0.000000, 0.000000)">
                <path d="M33.78,15.47 L23.36,15.5 L23.54,15.68 L22.74,14.92 L23.09,15.24 L32.93,11.42 C32.67,10.66 32.36,9.93 32,9.22 L22.02,13.15 L22.83,12.38 L22.83,12.38 L29.56,5.65 C29.03,5.06 28.47,4.49 27.86,3.98 L20.47,11.37 L24.46,1.75 C23.75,1.4 23.02,1.09 22.26,0.84 L18.17,10.69 L18.17,0.06 C17.77,0.03 17.37,-1.77635684e-15 16.96,-1.77635684e-15 C16.55,-1.77635684e-15 16.18,0.03 15.79,0.06 L15.79,10.39 L11.81,0.8 C11.05,1.04 10.31,1.35 9.6,1.7 L13.59,11.32 L6.16,3.89 C5.55,4.4 4.98,4.96 4.45,5.55 L12.28,13.38 L1.95,9.12 C1.58,9.82 1.27,10.56 1.01,11.31 L11.07,15.46 L0.07,15.46 C0.03,15.94 -8.8817842e-16,16.42 -8.8817842e-16,16.92 C-8.8817842e-16,17.23 0.03,17.54 0.05,17.85 L10.14,17.85 L11.58,16.08 L12.2,16.78 L13.11,17.87 L16.99,12.64 L20.43,16.63 L22.24,14.46 L22.68,14.87 L23.54,15.69 L25.68,17.85 L33.8,17.85 C33.82,17.54 33.85,17.23 33.85,16.92 C33.85,16.43 33.82,15.94 33.78,15.46 L33.78,15.46 L33.78,15.47 Z" id="Path" fill="#D09766"></path>
                <path d="M23.7,22.89 C21.76,22.8 18.93,24.48 17.07,24.57 C15.21,24.66 13.09,22.8 10.62,22.8 C8.15,22.8 5.32,24.39 4.08,24.48 C3.48,24.52 2.47,24.31 1.6,24.09 C1.98,24.9 2.41,25.69 2.91,26.43 C3.26,26.48 3.63,26.52 4.08,26.52 C6.55,26.52 8.15,24.66 10.44,24.75 C12.74,24.84 14.59,26.43 17.07,26.43 C19.55,26.43 21.31,24.93 23.61,24.84 C25.91,24.75 27.94,26.61 29.97,26.61 C30.25,26.61 30.55,26.58 30.85,26.53 C31.44,25.68 31.94,24.78 32.36,23.83 C31.65,24.19 30.9,24.54 30.05,24.58 C28.19,24.67 25.63,22.99 23.69,22.9 L23.7,22.9 L23.7,22.89 Z" id="Path" fill="#122945"></path>
                <path d="M16.94,28.2 C15.08,28.29 12.96,26.43 10.49,26.43 C8.16,26.43 5.53,27.83 4.2,28.06 C4.73,28.67 5.3,29.24 5.91,29.76 C7.4,29.22 8.68,28.3 10.31,28.37 C12.61,28.46 14.46,30.05 16.94,30.05 C19.42,30.05 21.18,28.55 23.48,28.46 C25.05,28.4 26.5,29.25 27.9,29.79 C28.48,29.29 29.03,28.75 29.54,28.17 C27.73,28.05 25.38,26.6 23.56,26.51 C21.62,26.42 18.79,28.1 16.93,28.19 L16.94,28.19 L16.94,28.2 Z" id="Path" fill="#122945"></path>
                <path d="M17.21,32 C15.35,32.09 13.23,30.23 10.76,30.23 C9.65,30.23 8.47,30.55 7.4,30.91 C8.14,31.41 8.92,31.84 9.73,32.23 C11.92,33.26 14.35,33.85 16.93,33.85 L17.21,33.85 C17.44,33.85 17.66,33.83 17.88,33.8 C20.08,33.68 22.16,33.14 24.05,32.26 C24.86,31.88 25.64,31.46 26.38,30.96 C25.49,30.63 24.62,30.34 23.84,30.31 C21.9,30.22 19.07,31.9 17.21,31.99 L17.21,31.99 L17.21,32 Z" id="Path" fill="#122945"></path>
                <path d="M23.84,19.01 C23.51,19 23.15,19.04 22.77,19.11 L24.7,21.02 C26.62,21.35 28.36,22.72 30.11,22.72 C31.07,22.72 32.17,22.38 33.06,22.03 C33.33,21.18 33.52,20.29 33.65,19.38 C32.6,19.82 31.51,20.62 30.2,20.68 C28.34,20.77 25.78,19.09 23.84,19 L23.84,19 L23.84,19.01 Z" id="Path" fill="#122945"></path>
                <path d="M7.15,21.85 L9.2,19.1 C7.18,19.52 5.2,20.52 4.22,20.59 C3.17,20.66 0.92,19.98 0.26,19.77 C0.38,20.47 0.53,21.16 0.73,21.83 C1.5,22.11 2.41,22.63 4.22,22.63 C5.33,22.63 6.26,22.26 7.16,21.85 L7.15,21.85 L7.15,21.85 Z" id="Path" fill="#122945"></path>
            </g>
            <g id="Group" transform="translate(119.790000, 23.850000)" fill="#D09766">
                <path d="M5.44,1.97 L3.76,3.19 L4.41,5.18 L2.72,3.95 L1.03,5.18 L1.68,3.19 L0,1.97 L2.07,1.97 L2.72,-3.55271368e-15 L3.36,1.97 C3.36,1.97 5.44,1.97 5.44,1.97 L5.44,1.97 Z" id="Path"></path>
                <path d="M12.55,1.97 L10.87,3.19 L11.52,5.18 L9.83,3.95 L8.14,5.18 L8.79,3.19 L7.11,1.97 L9.18,1.97 L9.83,-3.55271368e-15 L10.47,1.97 C10.47,1.97 12.55,1.97 12.55,1.97 L12.55,1.97 Z" id="Path"></path>
                <path d="M19.66,1.97 L17.98,3.19 L18.63,5.18 L16.94,3.95 L15.25,5.18 L15.9,3.19 L14.22,1.97 L16.29,1.97 L16.94,-3.55271368e-15 L17.58,1.97 C17.58,1.97 19.66,1.97 19.66,1.97 L19.66,1.97 Z" id="Path"></path>
                <path d="M26.77,1.97 L25.09,3.19 L25.74,5.18 L24.05,3.95 L22.36,5.18 L23.01,3.19 L21.33,1.97 L23.4,1.97 L24.05,-3.55271368e-15 L24.69,1.97 C24.69,1.97 26.77,1.97 26.77,1.97 L26.77,1.97 Z" id="Path"></path>
            </g>
            <g id="Group" transform="translate(43.540000, 25.060000)" fill="#122945">
                <path d="M2.85,3.66 C2.69,3.74 2.34,3.82 1.89,3.82 C0.71,3.82 7.10542736e-15,3.08 7.10542736e-15,1.96 C7.10542736e-15,0.74 0.85,0 1.98,0 C2.42,0 2.74,0.09 2.88,0.17 L2.73,0.71 C2.55,0.63 2.31,0.57 2,0.57 C1.25,0.57 0.7,1.04 0.7,1.93 C0.7,2.74 1.18,3.26 1.99,3.26 C2.26,3.26 2.55,3.21 2.73,3.12 L2.84,3.65 L2.85,3.66 Z" id="Path"></path>
                <path d="M5.31,2.72 L4.99,3.77 L4.29,3.77 L5.48,0.07 L6.34,0.07 L7.54,3.77 L6.81,3.77 L6.48,2.72 L5.3,2.72 L5.31,2.72 Z M6.37,2.21 L6.08,1.3 C6.01,1.07 5.95,0.82 5.89,0.61 L5.88,0.61 C5.82,0.82 5.77,1.08 5.7,1.3 L5.41,2.21 L6.36,2.21 L6.37,2.21 Z" id="Shape"></path>
                <g transform="translate(9.070000, 0.000000)">
                    <path d="M3.21,2.26 C3.19,1.78 3.16,1.21 3.17,0.71 L3.15,0.71 C3.03,1.16 2.88,1.66 2.71,2.13 L2.17,3.73 L1.65,3.73 L1.16,2.15 C1.02,1.68 0.89,1.17 0.79,0.71 L0.78,0.71 C0.76,1.19 0.74,1.78 0.71,2.29 L0.63,3.78 L7.10542736e-15,3.78 L0.25,0.08 L1.14,0.08 L1.62,1.57 C1.75,2 1.87,2.44 1.96,2.86 L1.98,2.86 C2.08,2.46 2.21,2 2.35,1.57 L2.86,0.09 L3.74,0.09 L3.95,3.79 L3.29,3.79 L3.22,2.28 L3.21,2.26 Z" id="Path"></path>
                    <path d="M5.73,0.12 C5.97,0.08 6.31,0.04 6.76,0.04 C7.25,0.04 7.62,0.14 7.85,0.34 C8.07,0.52 8.21,0.81 8.21,1.16 C8.21,1.51 8.1,1.8 7.89,2 C7.62,2.27 7.2,2.4 6.72,2.4 C6.59,2.4 6.48,2.4 6.39,2.38 L6.39,3.78 L5.72,3.78 L5.72,0.13 L5.73,0.12 Z M6.4,1.84 C6.48,1.86 6.59,1.87 6.73,1.87 C7.24,1.87 7.54,1.62 7.54,1.19 C7.54,0.78 7.25,0.56 6.79,0.56 C6.6,0.56 6.47,0.58 6.4,0.59 L6.4,1.84 L6.4,1.84 Z" id="Shape"></path>
                    <polygon id="Path" points="10.58 0.07 10.58 3.77 9.9 3.77 9.9 0.07"></polygon>
                    <path d="M12.46,3.77 L12.46,0.07 L13.23,0.07 L14.19,1.66 C14.44,2.07 14.65,2.5 14.82,2.9 L14.83,2.9 C14.79,2.4 14.77,1.93 14.77,1.36 L14.77,0.07 L15.4,0.07 L15.4,3.77 L14.7,3.77 L13.73,2.14 C13.49,1.73 13.25,1.28 13.06,0.86 L13.04,0.86 C13.07,1.34 13.07,1.83 13.07,2.44 L13.07,3.76 L12.45,3.76 L12.46,3.77 Z" id="Path"></path>
                    <path d="M20.24,3.6 C20,3.69 19.54,3.81 19.05,3.81 C18.42,3.81 17.95,3.65 17.6,3.32 C17.27,3.01 17.08,2.52 17.08,1.96 C17.08,0.79 17.91,0.04 19.14,0.04 C19.6,0.04 19.95,0.13 20.12,0.22 L19.97,0.76 C19.77,0.67 19.52,0.6 19.13,0.6 C18.34,0.6 17.78,1.07 17.78,1.93 C17.78,2.79 18.3,3.27 19.07,3.27 C19.31,3.27 19.49,3.24 19.58,3.19 L19.58,2.27 L18.93,2.27 L18.93,1.74 L20.24,1.74 L20.24,3.61 L20.24,3.6 Z" id="Path"></path>
                    <path d="M22.02,3.03 C22.24,3.16 22.57,3.27 22.92,3.27 C23.35,3.27 23.6,3.07 23.6,2.77 C23.6,2.49 23.41,2.32 22.94,2.15 C22.33,1.93 21.94,1.61 21.94,1.07 C21.94,0.47 22.45,0 23.25,0 C23.65,0 23.95,0.09 24.14,0.19 L23.97,0.73 C23.84,0.66 23.58,0.55 23.23,0.55 C22.8,0.55 22.61,0.78 22.61,1 C22.61,1.29 22.82,1.42 23.32,1.61 C23.96,1.85 24.28,2.18 24.28,2.71 C24.28,3.3 23.83,3.82 22.87,3.82 C22.48,3.82 22.07,3.71 21.87,3.59 L22.02,3.03 L22.02,3.03 Z" id="Path"></path>
                    <path d="M30.57,3.77 C30.48,3.68 30.39,3.58 30.28,3.46 C30,3.7 29.66,3.83 29.24,3.83 C28.42,3.83 28.02,3.32 28.02,2.79 C28.02,2.3 28.31,1.94 28.73,1.72 L28.73,1.7 C28.55,1.49 28.43,1.22 28.43,0.96 C28.43,0.5 28.78,0.01 29.47,0.01 C29.99,0.01 30.39,0.33 30.39,0.84 C30.39,1.22 30.17,1.54 29.63,1.81 L29.63,1.83 C29.88,2.13 30.17,2.46 30.37,2.68 C30.53,2.43 30.64,2.09 30.7,1.7 L31.3,1.7 C31.2,2.27 31.03,2.74 30.72,3.09 C30.92,3.32 31.13,3.54 31.36,3.78 L30.57,3.78 L30.57,3.77 Z M29.95,3.08 C29.73,2.84 29.37,2.45 29.03,2.05 C28.85,2.17 28.65,2.36 28.65,2.67 C28.65,3.04 28.92,3.32 29.33,3.32 C29.59,3.32 29.81,3.22 29.95,3.07 L29.95,3.08 Z M29.04,0.89 C29.04,1.12 29.14,1.3 29.31,1.48 C29.62,1.28 29.8,1.11 29.8,0.85 C29.8,0.65 29.69,0.43 29.43,0.43 C29.17,0.43 29.03,0.65 29.03,0.88 L29.04,0.89 Z" id="Shape"></path>
                    <path d="M35.11,0.12 C35.36,0.08 35.74,0.04 36.13,0.04 C36.66,0.04 37.03,0.13 37.27,0.34 C37.47,0.51 37.59,0.77 37.59,1.08 C37.59,1.56 37.27,1.88 36.92,2.01 L36.92,2.03 C37.18,2.13 37.34,2.39 37.44,2.74 C37.56,3.2 37.65,3.63 37.73,3.77 L37.03,3.77 C36.98,3.66 36.89,3.36 36.78,2.9 C36.67,2.42 36.5,2.26 36.11,2.25 L35.77,2.25 L35.77,3.77 L35.1,3.77 L35.1,0.12 L35.11,0.12 Z M35.78,1.75 L36.18,1.75 C36.64,1.75 36.92,1.51 36.92,1.14 C36.92,0.73 36.63,0.55 36.2,0.55 C35.99,0.55 35.85,0.57 35.78,0.58 L35.78,1.75 Z" id="Shape"></path>
                    <polygon id="Path" points="41.41 2.13 40.01 2.13 40.01 3.22 41.57 3.22 41.57 3.77 39.33 3.77 39.33 0.07 41.48 0.07 41.48 0.62 40 0.62 40 1.58 41.4 1.58 41.4 2.13"></polygon>
                    <path d="M43.26,3.03 C43.48,3.16 43.81,3.27 44.16,3.27 C44.59,3.27 44.83,3.07 44.83,2.77 C44.83,2.49 44.64,2.32 44.17,2.15 C43.56,1.93 43.17,1.61 43.17,1.07 C43.17,0.47 43.68,0 44.48,0 C44.88,0 45.18,0.09 45.37,0.19 L45.21,0.73 C45.08,0.66 44.82,0.55 44.47,0.55 C44.04,0.55 43.85,0.78 43.85,1 C43.85,1.29 44.06,1.42 44.56,1.61 C45.2,1.85 45.52,2.18 45.52,2.71 C45.52,3.3 45.07,3.82 44.11,3.82 C43.72,3.82 43.31,3.71 43.11,3.59 L43.26,3.03 L43.26,3.03 Z" id="Path"></path>
                    <path d="M50.52,1.88 C50.52,3.12 49.77,3.83 48.75,3.83 C47.73,3.83 47.05,3.03 47.05,1.95 C47.05,0.87 47.76,0.01 48.81,0.01 C49.86,0.01 50.53,0.83 50.53,1.88 L50.52,1.88 Z M47.75,1.93 C47.75,2.68 48.13,3.28 48.78,3.28 C49.43,3.28 49.8,2.68 49.8,1.9 C49.8,1.2 49.45,0.54 48.78,0.54 C48.11,0.54 47.75,1.16 47.75,1.92 L47.75,1.93 Z" id="Shape"></path>
                </g>
                <path d="M61.28,0.12 C61.53,0.08 61.91,0.04 62.3,0.04 C62.83,0.04 63.19,0.13 63.44,0.34 C63.64,0.51 63.76,0.77 63.76,1.08 C63.76,1.56 63.44,1.88 63.09,2.01 L63.09,2.03 C63.35,2.13 63.51,2.39 63.61,2.74 C63.73,3.2 63.82,3.63 63.9,3.77 L63.2,3.77 C63.15,3.66 63.06,3.36 62.95,2.9 C62.85,2.42 62.67,2.26 62.28,2.25 L61.94,2.25 L61.94,3.77 L61.27,3.77 L61.27,0.12 L61.28,0.12 Z M61.95,1.75 L62.35,1.75 C62.81,1.75 63.09,1.51 63.09,1.14 C63.09,0.73 62.8,0.55 62.36,0.55 C62.15,0.55 62.01,0.57 61.94,0.58 L61.94,1.75 L61.95,1.75 Z" id="Shape"></path>
                <polygon id="Path" points="66.24 0.63 65.19 0.63 65.19 0.06 67.99 0.06 67.99 0.63 66.92 0.63 66.92 3.77 66.24 3.77"></polygon>
                <path d="M69.46,3.03 C69.68,3.16 70.01,3.27 70.36,3.27 C70.79,3.27 71.04,3.07 71.04,2.77 C71.04,2.49 70.85,2.32 70.38,2.15 C69.77,1.93 69.38,1.61 69.38,1.07 C69.38,0.47 69.89,0 70.69,0 C71.09,0 71.39,0.09 71.58,0.19 L71.42,0.73 C71.29,0.66 71.03,0.55 70.68,0.55 C70.25,0.55 70.06,0.78 70.06,1 C70.06,1.29 70.27,1.42 70.77,1.61 C71.41,1.85 71.73,2.18 71.73,2.71 C71.73,3.3 71.28,3.82 70.32,3.82 C69.93,3.82 69.52,3.71 69.32,3.59 L69.47,3.03 L69.46,3.03 Z" id="Path"></path>
            </g>
        </g>
    </g>
</svg>