<?xml version="1.0" encoding="UTF-8" standalone="no"?>
<!-- Created with Inkscape (http://www.inkscape.org/) -->

<svg
   width="46.060337mm"
   height="33.483532mm"
   viewBox="0 0 46.060337 33.483532"
   version="1.1"
   id="svg1"
   inkscape:version="1.4.2 (ebf0e940, 2025-05-08)"
   sodipodi:docname="phone.svg"
   xmlns:inkscape="http://www.inkscape.org/namespaces/inkscape"
   xmlns:sodipodi="http://sodipodi.sourceforge.net/DTD/sodipodi-0.dtd"
   xmlns="http://www.w3.org/2000/svg"
   xmlns:svg="http://www.w3.org/2000/svg">
  <sodipodi:namedview
     id="namedview1"
     pagecolor="#ffffff"
     bordercolor="#000000"
     borderopacity="0.25"
     inkscape:showpageshadow="2"
     inkscape:pageopacity="0.0"
     inkscape:pagecheckerboard="0"
     inkscape:deskcolor="#d1d1d1"
     inkscape:document-units="mm"
     inkscape:zoom="0.023162177"
     inkscape:cx="107.93459"
     inkscape:cy="64.760751"
     inkscape:window-width="1088"
     inkscape:window-height="476"
     inkscape:window-x="0"
     inkscape:window-y="25"
     inkscape:window-maximized="0"
     inkscape:current-layer="layer1" />
  <defs
     id="defs1">
    <clipPath
       clipPathUnits="userSpaceOnUse"
       id="clipPath789">
      <path
         d="M 0,5134.295 H 2109.737 V 0 H 0 Z"
         transform="matrix(1.3333333,0,0,-1.3333333,0,6845.7333)"
         id="path789" />
    </clipPath>
    <clipPath
       clipPathUnits="userSpaceOnUse"
       id="clipPath787">
      <path
         d="m 420.979,3688.32 h 130.565 v -89.17 H 420.979 Z"
         transform="translate(-544.94641,-3672.6473)"
         id="path787" />
    </clipPath>
    <clipPath
       clipPathUnits="userSpaceOnUse"
       id="clipPath791">
      <path
         d="M 0,5134.295 H 2109.737 V 0 H 0 Z"
         transform="translate(-501.08711,-3616.4073)"
         id="path791" />
    </clipPath>
    <clipPath
       clipPathUnits="userSpaceOnUse"
       id="clipPath793">
      <path
         d="M 0,5134.295 H 2109.737 V 0 H 0 Z"
         transform="translate(-489.26581,-3605.0719)"
         id="path793" />
    </clipPath>
    <clipPath
       clipPathUnits="userSpaceOnUse"
       id="clipPath795">
      <path
         d="M 0,5134.295 H 2109.737 V 0 H 0 Z"
         transform="translate(-485.13581,-3611.3114)"
         id="path795" />
    </clipPath>
    <clipPath
       clipPathUnits="userSpaceOnUse"
       id="clipPath797">
      <path
         d="M 0,5134.295 H 2109.737 V 0 H 0 Z"
         transform="translate(-430.96041,-3619.64)"
         id="path797" />
    </clipPath>
    <clipPath
       clipPathUnits="userSpaceOnUse"
       id="clipPath799">
      <path
         d="M 0,5134.295 H 2109.737 V 0 H 0 Z"
         transform="translate(-499.34961,-3617.9215)"
         id="path799" />
    </clipPath>
    <clipPath
       clipPathUnits="userSpaceOnUse"
       id="clipPath801">
      <path
         d="M 0,5134.295 H 2109.737 V 0 H 0 Z"
         transform="translate(-466.00411,-3615.8487)"
         id="path801" />
    </clipPath>
    <clipPath
       clipPathUnits="userSpaceOnUse"
       id="clipPath803">
      <path
         d="M 0,5134.295 H 2109.737 V 0 H 0 Z"
         transform="translate(-454.39591,-3617.5548)"
         id="path803" />
    </clipPath>
    <clipPath
       clipPathUnits="userSpaceOnUse"
       id="clipPath805">
      <path
         d="M 0,5134.295 H 2109.737 V 0 H 0 Z"
         transform="translate(-525.50521,-3684.6153)"
         id="path805" />
    </clipPath>
    <clipPath
       clipPathUnits="userSpaceOnUse"
       id="clipPath807">
      <path
         d="M 0,5134.295 H 2109.737 V 0 H 0 Z"
         transform="translate(-503.84821,-3688.8995)"
         id="path807" />
    </clipPath>
    <clipPath
       clipPathUnits="userSpaceOnUse"
       id="clipPath809">
      <path
         d="M 0,5134.295 H 2109.737 V 0 H 0 Z"
         transform="translate(-534.69682,-3683.546)"
         id="path809" />
    </clipPath>
    <clipPath
       clipPathUnits="userSpaceOnUse"
       id="clipPath811">
      <path
         d="M 0,5134.295 H 2109.737 V 0 H 0 Z"
         transform="translate(-534.14812,-3683.6412)"
         id="path811" />
    </clipPath>
    <clipPath
       clipPathUnits="userSpaceOnUse"
       id="clipPath813">
      <path
         d="M 0,5134.295 H 2109.737 V 0 H 0 Z"
         transform="translate(-533.26841,-3683.794)"
         id="path813" />
    </clipPath>
    <clipPath
       clipPathUnits="userSpaceOnUse"
       id="clipPath815">
      <path
         d="M 0,5134.295 H 2109.737 V 0 H 0 Z"
         transform="translate(-473.50521,-3680.4254)"
         id="path815" />
    </clipPath>
    <clipPath
       clipPathUnits="userSpaceOnUse"
       id="clipPath817">
      <path
         d="M 0,5134.295 H 2109.737 V 0 H 0 Z"
         transform="translate(-466.84641,-3673.2296)"
         id="path817" />
    </clipPath>
    <clipPath
       clipPathUnits="userSpaceOnUse"
       id="clipPath819">
      <path
         d="M 0,5134.295 H 2109.737 V 0 H 0 Z"
         transform="translate(-469.09421,-3609.2049)"
         id="path819" />
    </clipPath>
  </defs>
  <g
     inkscape:label="Layer 1"
     inkscape:groupmode="layer"
     id="layer1"
     transform="translate(-85.460412,-125.94165)">
    <g
       id="g899"
       style="display:inline"
       transform="matrix(0.26458333,0,0,0.26458333,-63.051713,-382.14165)">
      <g
         id="g788"
         clip-path="url(#clipPath789)"
         style="visilibity:hidden">
        <path
           d="m 0,0 -7.916,-1.114 c 0.1,2.649 8.862,8.265 6.01,8.758 l -44.698,7.722 c -5.465,0.944 -11.868,-0.329 -14.286,-2.878 l -9.861,-10.401 -0.442,0.072 c -0.232,0.039 -0.5,-0.02 -0.604,-0.13 l -3.916,-4.117 c -0.106,-0.112 -0.004,-0.231 0.231,-0.269 l 0.45,-0.072 -2.532,-2.67 -0.453,0.072 c -0.238,0.038 -0.514,-0.024 -0.623,-0.139 l -4.08,-4.29 c -0.111,-0.117 -0.011,-0.242 0.231,-0.28 l 0.46,-0.072 c -42.83,-45.175 -39.731,-40.57 -40.148,-42.498 l -1.052,-1.153 c -1.778,-13.326 -6.196,-10.085 68.856,-19.859 6.752,-0.879 11.677,1.487 14.394,5.081 0.665,0.914 46.427,63.503 46.577,64.626 C 5.113,-1.955 3.079,-0.917 0,0"
           style="fill:#d3d4d3;fill-opacity:1;fill-rule:nonzero;stroke:none"
           transform="matrix(1.3333333,0,0,-1.3333333,726.5952,1948.8704)"
           clip-path="url(#clipPath787)"
           id="path788" />
      </g>
      <path
         id="path790"
         d="m 0,0 c -2.536,-3.563 -9.669,-5.843 -15.897,-5.022 l -55.156,7.275 c -3.187,0.42 -5.462,1.498 -6.588,2.909 -0.1,0.115 -0.187,0.236 -0.259,0.359 -0.692,1.078 -0.749,2.321 -0.07,3.598 0.23,0.439 0.55,0.884 0.957,1.323 l 59.176,63.973 c 2.309,2.496 8.426,3.752 13.647,2.836 l 43.635,-7.652 c 1.318,-0.231 2.466,-0.59 3.407,-1.042 0.746,-0.355 1.365,-0.769 1.835,-1.221 0.096,-0.088 0.188,-0.18 0.265,-0.273 0.958,-1.07 1.121,-2.325 0.259,-3.536 z m 42.25,68.957 c -0.799,0.311 -1.716,0.564 -2.731,0.742 l -43.62,7.652 c -5.333,0.936 -11.586,-0.347 -13.949,-2.9 L -77.275,10.478 c -0.275,-0.296 -0.509,-0.595 -0.706,-0.892 -1.075,-1.627 -0.993,-3.232 0.093,-4.548 l -0.003,-0.003 c 1.167,-1.421 3.483,-2.509 6.703,-2.933 l 55.18,-7.273 c 6.373,-0.84 13.667,1.496 16.256,5.137 l 45.167,63.526 c 1.454,2.045 0.046,4.226 -3.165,5.465"
         style="fill:#7d7e7f;fill-opacity:1;fill-rule:nonzero;stroke:none"
         transform="matrix(1.3333333,0,0,-1.3333333,668.11613,2023.8571)"
         clip-path="url(#clipPath791)" />
      <path
         id="path792"
         d="m 0,0 -59.819,7.887 c -5.254,0.693 -8.159,2.973 -7.812,5.604 0.117,0.882 0.456,3.458 0.769,5.831 L -4.733,79.89 c 2.427,2.517 8.863,3.749 14.381,2.792 l 48.159,-6.3 c 0.037,0.286 -0.45,-3.257 -1.491,-11.157 -0.064,-0.491 -0.253,-0.961 -0.548,-1.359 L 14.059,5.102 C 11.4,1.505 6.589,-0.869 0,0"
         style="fill:#85858d;fill-opacity:1;fill-rule:nonzero;stroke:none"
         transform="matrix(1.3333333,0,0,-1.3333333,652.3544,2038.9709)"
         clip-path="url(#clipPath793)" />
      <path
         id="path794"
         d="m 0,0 -55.171,7.274 c -6.718,0.886 -9.406,4.624 -6.021,8.282 l 59.2,63.973 c 2.34,2.528 8.514,3.795 13.795,2.868 l 43.631,-7.653 c 5.018,-0.88 7.628,-3.611 5.83,-6.139 L 16.076,5.08 C 13.509,1.471 6.309,-0.832 0,0"
         style="fill:#414045;fill-opacity:1;fill-rule:nonzero;stroke:none"
         transform="matrix(1.3333333,0,0,-1.3333333,646.84773,2030.6516)"
         clip-path="url(#clipPath795)" />
      <path
         id="path796"
         d="m 0,0 c -5.651,0.749 -7.931,3.904 -5.095,6.988 l 58.84,63.957 c 1.966,2.137 7.198,3.217 11.666,2.435 l 43.73,-7.653 c 4.248,-0.743 6.46,-3.064 4.931,-5.2 L 68.592,-3.004 c -2.178,-3.044 -8.277,-4.984 -13.59,-4.28 z"
         style="fill:#262531;fill-opacity:1;fill-rule:nonzero;stroke:none"
         transform="matrix(1.3333333,0,0,-1.3333333,574.61387,2019.5468)"
         clip-path="url(#clipPath797)" />
      <path
         id="path798"
         d="m 0,0 -71.325,9.718 56.648,61.783 58.79,-10.116 z"
         style="display:inline;fill:#58595b;fill-opacity:1;fill-rule:nonzero;stroke:none"
         transform="matrix(1.3333333,0,0,-1.3333333,665.79947,2021.8381)"
         clip-path="url(#clipPath799)" />
      <path
         id="path800"
         d="m 0,0 -11.73,1.559 c -2.335,0.31 -3.331,1.632 -2.229,2.944 1.096,1.304 3.85,2.101 6.152,1.789 L 3.764,4.723 C 6.034,4.415 7.048,3.119 6.027,1.82 5,0.513 2.301,-0.306 0,0"
         style="fill:#414045;fill-opacity:1;fill-rule:nonzero;stroke:none"
         transform="matrix(1.3333333,0,0,-1.3333333,621.3388,2024.6019)"
         clip-path="url(#clipPath801)" />
      <path
         id="path802"
         d="m 0,0 c -2.186,0.291 -3.123,1.533 -2.091,2.762 1.026,1.222 3.615,1.972 5.773,1.679 L 15.258,2.873 C 17.385,2.585 18.339,1.366 17.381,0.148 16.418,-1.076 13.88,-1.845 11.725,-1.559 Z"
         style="fill:#1b1918;fill-opacity:1;fill-rule:nonzero;stroke:none"
         transform="matrix(1.3333333,0,0,-1.3333333,605.8612,2022.3271)"
         clip-path="url(#clipPath803)" />
      <path
         id="path804"
         d="m 0,0 -18.353,3.18 c -0.529,0.091 -0.785,0.375 -0.57,0.63 0.216,0.253 0.824,0.386 1.352,0.294 L 0.724,0.925 C 1.241,0.834 1.503,0.553 1.305,0.3 1.106,0.045 0.519,-0.09 0,0"
         style="fill:#1b1918;fill-opacity:1;fill-rule:nonzero;stroke:none"
         transform="matrix(1.3333333,0,0,-1.3333333,700.6736,1932.9131)"
         clip-path="url(#clipPath805)" />
      <path
         id="path806"
         d="m 0,0 c -0.229,-0.267 -0.867,-0.406 -1.425,-0.309 -0.559,0.097 -0.824,0.392 -0.593,0.659 0.23,0.267 0.868,0.404 1.425,0.307 C -0.037,0.561 0.229,0.266 0,0"
         style="fill:#1b1918;fill-opacity:1;fill-rule:nonzero;stroke:none"
         transform="matrix(1.3333333,0,0,-1.3333333,671.7976,1927.2008)"
         clip-path="url(#clipPath807)" />
      <path
         id="path808"
         d="m 0,0 c -0.42,-0.558 -1.678,-0.853 -2.809,-0.657 -1.132,0.196 -1.703,0.808 -1.275,1.366 0.426,0.556 1.684,0.846 2.808,0.65 C -0.152,1.164 0.419,0.556 0,0"
         style="fill:#1b1918;fill-opacity:1;fill-rule:nonzero;stroke:none"
         transform="matrix(1.3333333,0,0,-1.3333333,712.92907,1934.3388)"
         clip-path="url(#clipPath809)" />
      <path
         id="path810"
         d="m 0,0 c -0.308,-0.407 -1.227,-0.623 -2.053,-0.479 -0.826,0.143 -1.244,0.59 -0.932,0.997 0.311,0.407 1.23,0.619 2.053,0.476 C -0.11,0.851 0.307,0.406 0,0"
         style="fill:#4f5050;fill-opacity:1;fill-rule:nonzero;stroke:none"
         transform="matrix(1.3333333,0,0,-1.3333333,712.19747,1934.2119)"
         clip-path="url(#clipPath811)" />
      <path
         id="path812"
         d="m 0,0 c -0.126,-0.167 -0.503,-0.255 -0.841,-0.196 -0.339,0.058 -0.51,0.241 -0.382,0.408 0.127,0.167 0.504,0.255 0.841,0.196 C -0.045,0.349 0.126,0.167 0,0"
         style="fill:#1d1c19;fill-opacity:1;fill-rule:nonzero;stroke:none"
         transform="matrix(1.3333333,0,0,-1.3333333,711.02453,1934.0081)"
         clip-path="url(#clipPath813)" />
      <path
         id="path814"
         d="m 0,0 -4.185,-4.522 -0.55,0.09 c -0.23,0.038 -0.33,0.156 -0.225,0.268 l 3.828,4.123 c 0.101,0.11 0.363,0.169 0.59,0.131 z"
         style="fill:#1b1918;fill-opacity:1;fill-rule:nonzero;stroke:none"
         transform="matrix(1.3333333,0,0,-1.3333333,631.34027,1938.4996)"
         clip-path="url(#clipPath815)" />
      <path
         id="path816"
         d="m 0,0 -4.364,-4.716 -0.564,0.09 c -0.236,0.038 -0.334,0.163 -0.225,0.28 l 3.989,4.296 c 0.106,0.115 0.376,0.178 0.608,0.14 z"
         style="fill:#1b1918;fill-opacity:1;fill-rule:nonzero;stroke:none"
         transform="matrix(1.3333333,0,0,-1.3333333,622.46187,1948.094)"
         clip-path="url(#clipPath817)" />
      <path
         id="path818"
         d="m 0,0 -19.779,2.607 c -0.22,0.029 -0.375,0.231 -0.346,0.451 l 0.233,1.769 c 0.029,0.22 0.231,0.374 0.451,0.346 L 0.338,2.566 C 0.558,2.537 0.713,2.335 0.684,2.115 L 0.451,0.346 C 0.422,0.126 0.22,-0.029 0,0"
         style="fill:#1b1918;fill-opacity:1;fill-rule:nonzero;stroke:none"
         transform="matrix(1.3333333,0,0,-1.3333333,625.45893,2033.4603)"
         clip-path="url(#clipPath819)" />
    </g>
  </g>
</svg>
