<?xml version="1.0" encoding="UTF-8" standalone="no"?>
<!-- Created with Inkscape (http://www.inkscape.org/) -->

<svg
   width="82.175369mm"
   height="167.79092mm"
   viewBox="0 0 82.175369 167.79092"
   version="1.1"
   id="svg1"
   inkscape:version="1.4.2 (ebf0e940, 2025-05-08)"
   sodipodi:docname="tequila.svg"
   xmlns:inkscape="http://www.inkscape.org/namespaces/inkscape"
   xmlns:sodipodi="http://sodipodi.sourceforge.net/DTD/sodipodi-0.dtd"
   xmlns="http://www.w3.org/2000/svg"
   xmlns:svg="http://www.w3.org/2000/svg">
  <sodipodi:namedview
     id="namedview1"
     pagecolor="#ffffff"
     bordercolor="#000000"
     borderopacity="0.25"
     inkscape:showpageshadow="2"
     inkscape:pageopacity="0.0"
     inkscape:pagecheckerboard="0"
     inkscape:deskcolor="#d1d1d1"
     inkscape:document-units="mm"
     inkscape:zoom="0.023162177"
     inkscape:cx="151.10842"
     inkscape:cy="302.21684"
     inkscape:window-width="896"
     inkscape:window-height="245"
     inkscape:window-x="0"
     inkscape:window-y="25"
     inkscape:window-maximized="0"
     inkscape:current-layer="layer1" />
  <defs
     id="defs1">
    <clipPath
       clipPathUnits="userSpaceOnUse"
       id="clipPath17">
      <path
         d="M 0,5134.295 H 2109.737 V 0 H 0 Z"
         transform="translate(-1617.537,-4007.2691)"
         id="path17" />
    </clipPath>
    <clipPath
       clipPathUnits="userSpaceOnUse"
       id="clipPath19">
      <path
         d="M 0,5134.295 H 2109.737 V 0 H 0 Z"
         transform="translate(-1582.7634,-3970.7206)"
         id="path19" />
    </clipPath>
    <clipPath
       clipPathUnits="userSpaceOnUse"
       id="clipPath21">
      <path
         d="M 0,5134.295 H 2109.737 V 0 H 0 Z"
         transform="translate(-1566.522,-3855.295)"
         id="path21" />
    </clipPath>
    <clipPath
       clipPathUnits="userSpaceOnUse"
       id="clipPath23">
      <path
         d="M 0,5134.295 H 2109.737 V 0 H 0 Z"
         transform="translate(-1638.5031,-3900.7743)"
         id="path23" />
    </clipPath>
    <clipPath
       clipPathUnits="userSpaceOnUse"
       id="clipPath25">
      <path
         d="M 0,5134.295 H 2109.737 V 0 H 0 Z"
         transform="translate(-1555.8682,-3834.2159)"
         id="path25" />
    </clipPath>
    <clipPath
       clipPathUnits="userSpaceOnUse"
       id="clipPath27">
      <path
         d="M 0,5134.295 H 2109.737 V 0 H 0 Z"
         transform="translate(-1657.9206,-3815.2674)"
         id="path27" />
    </clipPath>
    <clipPath
       clipPathUnits="userSpaceOnUse"
       id="clipPath29">
      <path
         d="M 0,5134.295 H 2109.737 V 0 H 0 Z"
         transform="translate(-1581.9139,-3872.5868)"
         id="path29" />
    </clipPath>
    <clipPath
       clipPathUnits="userSpaceOnUse"
       id="clipPath33">
      <path
         d="M 0,5134.295 H 2109.737 V 0 H 0 Z"
         transform="translate(-1625.7172,-3867.6105)"
         id="path33" />
    </clipPath>
    <clipPath
       clipPathUnits="userSpaceOnUse"
       id="clipPath35">
      <path
         d="M 0,5134.295 H 2109.737 V 0 H 0 Z"
         transform="translate(-1655.7897,-3956.9081)"
         id="path35" />
    </clipPath>
    <clipPath
       clipPathUnits="userSpaceOnUse"
       id="clipPath37">
      <path
         d="M 0,5134.295 H 2109.737 V 0 H 0 Z"
         transform="translate(-1557.7623,-3956.9081)"
         id="path37" />
    </clipPath>
    <clipPath
       clipPathUnits="userSpaceOnUse"
       id="clipPath39">
      <path
         d="M 0,5134.295 H 2109.737 V 0 H 0 Z"
         transform="translate(-1555.8682,-3872.5868)"
         id="path39" />
    </clipPath>
    <clipPath
       clipPathUnits="userSpaceOnUse"
       id="clipPath41">
      <path
         d="M 0,5134.295 H 2109.737 V 0 H 0 Z"
         transform="translate(-1637.2023,-3871.6395)"
         id="path41" />
    </clipPath>
    <clipPath
       clipPathUnits="userSpaceOnUse"
       id="clipPath43">
      <path
         d="M 0,5134.295 H 2109.737 V 0 H 0 Z"
         transform="translate(-1657.4469,-3872.8238)"
         id="path43" />
    </clipPath>
    <clipPath
       clipPathUnits="userSpaceOnUse"
       id="clipPath45">
      <path
         d="M 0,5134.295 H 2109.737 V 0 H 0 Z"
         transform="translate(-1657.9206,-3815.7411)"
         id="path45" />
    </clipPath>
    <clipPath
       clipPathUnits="userSpaceOnUse"
       id="clipPath47">
      <path
         d="M 0,5134.295 H 2109.737 V 0 H 0 Z"
         transform="translate(-1600.6197,-3937.9596)"
         id="path47" />
    </clipPath>
    <clipPath
       clipPathUnits="userSpaceOnUse"
       id="clipPath49">
      <path
         d="M 0,5134.295 H 2109.737 V 0 H 0 Z"
         transform="translate(-1552.3164,-3893.6671)"
         id="path49" />
    </clipPath>
    <clipPath
       clipPathUnits="userSpaceOnUse"
       id="clipPath31">
      <path
         d="M 0,5134.295 H 2109.737 V 0 H 0 Z"
         transform="translate(-1504.9603,-3725.7352)"
         id="path31" />
    </clipPath>
    <clipPath
       clipPathUnits="userSpaceOnUse"
       id="clipPath51">
      <path
         d="M 0,5134.295 H 2109.737 V 0 H 0 Z"
         transform="translate(-1556.8153,-3873.2975)"
         id="path51" />
    </clipPath>
    <clipPath
       clipPathUnits="userSpaceOnUse"
       id="clipPath53">
      <path
         d="M 0,5134.295 H 2109.737 V 0 H 0 Z"
         transform="translate(-1563.6819,-3957.8556)"
         id="path53" />
    </clipPath>
    <clipPath
       clipPathUnits="userSpaceOnUse"
       id="clipPath55">
      <path
         d="M 0,5134.295 H 2109.737 V 0 H 0 Z"
         transform="translate(-1553.9739,-3902.6678)"
         id="path55" />
    </clipPath>
    <clipPath
       clipPathUnits="userSpaceOnUse"
       id="clipPath57">
      <path
         d="M 0,5134.295 H 2109.737 V 0 H 0 Z"
         transform="translate(-1554.2107,-3903.1415)"
         id="path57" />
    </clipPath>
    <clipPath
       clipPathUnits="userSpaceOnUse"
       id="clipPath59">
      <path
         d="M 0,5134.295 H 2109.737 V 0 H 0 Z"
         transform="translate(-1651.0539,-3958.3292)"
         id="path59" />
    </clipPath>
    <clipPath
       clipPathUnits="userSpaceOnUse"
       id="clipPath61">
      <path
         d="M 0,5134.295 H 2109.737 V 0 H 0 Z"
         transform="translate(-1587.8335,-3936.5384)"
         id="path61" />
    </clipPath>
    <clipPath
       clipPathUnits="userSpaceOnUse"
       id="clipPath63">
      <path
         d="M 0,5134.295 H 2109.737 V 0 H 0 Z"
         transform="translate(-1583.5714,-3940.8019)"
         id="path63" />
    </clipPath>
    <clipPath
       clipPathUnits="userSpaceOnUse"
       id="clipPath65">
      <path
         d="M 0,5134.295 H 2109.737 V 0 H 0 Z"
         transform="translate(-1644.4242,-3955.2501)"
         id="path65" />
    </clipPath>
    <clipPath
       clipPathUnits="userSpaceOnUse"
       id="clipPath67">
      <path
         d="M 0,5134.295 H 2109.737 V 0 H 0 Z"
         transform="translate(-1568.6544,-3857.1913)"
         id="path67" />
    </clipPath>
    <clipPath
       clipPathUnits="userSpaceOnUse"
       id="clipPath69">
      <path
         d="M 0,5134.295 H 2109.737 V 0 H 0 Z"
         transform="translate(-1568.4175,-3857.1913)"
         id="path69" />
    </clipPath>
    <clipPath
       clipPathUnits="userSpaceOnUse"
       id="clipPath71">
      <path
         d="M 0,5134.295 H 2109.737 V 0 H 0 Z"
         transform="translate(-1554.6843,-3758.6585)"
         id="path71" />
    </clipPath>
    <clipPath
       clipPathUnits="userSpaceOnUse"
       id="clipPath73">
      <path
         d="M 0,5134.295 H 2109.737 V 0 H 0 Z"
         transform="translate(-1555.1578,-3815.5043)"
         id="path73" />
    </clipPath>
    <clipPath
       clipPathUnits="userSpaceOnUse"
       id="clipPath75">
      <path
         d="M 0,5134.295 H 2109.737 V 0 H 0 Z"
         transform="translate(-1554.921,-3814.0831)"
         id="path75" />
    </clipPath>
    <clipPath
       clipPathUnits="userSpaceOnUse"
       id="clipPath77">
      <path
         d="M 0,5134.295 H 2109.737 V 0 H 0 Z"
         transform="translate(-1566.522,-3855.295)"
         id="path77" />
    </clipPath>
    <clipPath
       clipPathUnits="userSpaceOnUse"
       id="clipPath79">
      <path
         d="M 0,5134.295 H 2109.737 V 0 H 0 Z"
         transform="translate(-1623.5874,-3904.3258)"
         id="path79" />
    </clipPath>
    <clipPath
       clipPathUnits="userSpaceOnUse"
       id="clipPath81">
      <path
         d="M 0,5134.295 H 2109.737 V 0 H 0 Z"
         transform="translate(-1580.0199,-3905.0365)"
         id="path81" />
    </clipPath>
    <clipPath
       clipPathUnits="userSpaceOnUse"
       id="clipPath83">
      <path
         d="M 0,5134.295 H 2109.737 V 0 H 0 Z"
         transform="translate(-1576.7049,-3930.617)"
         id="path83" />
    </clipPath>
    <clipPath
       clipPathUnits="userSpaceOnUse"
       id="clipPath85">
      <path
         d="M 0,5134.295 H 2109.737 V 0 H 0 Z"
         transform="translate(-1648.6845,-3939.8536)"
         id="path85" />
    </clipPath>
    <clipPath
       clipPathUnits="userSpaceOnUse"
       id="clipPath87">
      <path
         d="M 0,5134.295 H 2109.737 V 0 H 0 Z"
         transform="translate(-1642.5288,-3931.0882)"
         id="path87" />
    </clipPath>
    <clipPath
       clipPathUnits="userSpaceOnUse"
       id="clipPath89">
      <path
         d="M 0,5134.295 H 2109.737 V 0 H 0 Z"
         transform="translate(-1612.2219,-3904.3258)"
         id="path89" />
    </clipPath>
    <clipPath
       clipPathUnits="userSpaceOnUse"
       id="clipPath91">
      <path
         d="M 0,5134.295 H 2109.737 V 0 H 0 Z"
         transform="translate(-1612.4586,-3899.3519)"
         id="path91" />
    </clipPath>
    <clipPath
       clipPathUnits="userSpaceOnUse"
       id="clipPath93">
      <path
         d="M 0,5134.295 H 2109.737 V 0 H 0 Z"
         transform="translate(-1570.0732,-3937.9566)"
         id="path93" />
    </clipPath>
    <clipPath
       clipPathUnits="userSpaceOnUse"
       id="clipPath95">
      <path
         d="M 0,5134.295 H 2109.737 V 0 H 0 Z"
         transform="translate(-1643.9487,-3932.0353)"
         id="path95" />
    </clipPath>
    <clipPath
       clipPathUnits="userSpaceOnUse"
       id="clipPath97">
      <path
         d="M 0,5134.295 H 2109.737 V 0 H 0 Z"
         transform="translate(-1573.3887,-3932.2726)"
         id="path97" />
    </clipPath>
    <clipPath
       clipPathUnits="userSpaceOnUse"
       id="clipPath99">
      <path
         d="M 0,5134.295 H 2109.737 V 0 H 0 Z"
         transform="translate(-1572.441,-3937.2459)"
         id="path99" />
    </clipPath>
    <clipPath
       clipPathUnits="userSpaceOnUse"
       id="clipPath101">
      <path
         d="M 0,5134.295 H 2109.737 V 0 H 0 Z"
         transform="translate(-1640.6355,-3937.4835)"
         id="path101" />
    </clipPath>
    <clipPath
       clipPathUnits="userSpaceOnUse"
       id="clipPath103">
      <path
         d="M 0,5134.295 H 2109.737 V 0 H 0 Z"
         transform="translate(-1573.8634,-3936.5409)"
         id="path103" />
    </clipPath>
    <clipPath
       clipPathUnits="userSpaceOnUse"
       id="clipPath105">
      <path
         d="M 0,5134.295 H 2109.737 V 0 H 0 Z"
         transform="translate(-1569.3634,-3931.7989)"
         id="path105" />
    </clipPath>
    <clipPath
       clipPathUnits="userSpaceOnUse"
       id="clipPath107">
      <path
         d="M 0,5134.295 H 2109.737 V 0 H 0 Z"
         transform="translate(-1645.3711,-3931.3299)"
         id="path107" />
    </clipPath>
    <clipPath
       clipPathUnits="userSpaceOnUse"
       id="clipPath109">
      <path
         d="M 0,5134.295 H 2109.737 V 0 H 0 Z"
         transform="translate(-1646.5533,-3931.0877)"
         id="path109" />
    </clipPath>
    <clipPath
       clipPathUnits="userSpaceOnUse"
       id="clipPath111">
      <path
         d="M 0,5134.295 H 2109.737 V 0 H 0 Z"
         transform="translate(-1566.9957,-3931.3251)"
         id="path111" />
    </clipPath>
    <clipPath
       clipPathUnits="userSpaceOnUse"
       id="clipPath113">
      <path
         d="M 0,5134.295 H 2109.737 V 0 H 0 Z"
         transform="translate(-1574.5726,-3936.536)"
         id="path113" />
    </clipPath>
    <clipPath
       clipPathUnits="userSpaceOnUse"
       id="clipPath115">
      <path
         d="M 0,5134.295 H 2109.737 V 0 H 0 Z"
         transform="translate(-1640.9907,-3937.7228)"
         id="path115" />
    </clipPath>
    <clipPath
       clipPathUnits="userSpaceOnUse"
       id="clipPath117">
      <path
         d="M 0,5134.295 H 2109.737 V 0 H 0 Z"
         transform="translate(-1568.5359,-3931.0907)"
         id="path117" />
    </clipPath>
    <clipPath
       clipPathUnits="userSpaceOnUse"
       id="clipPath119">
      <path
         d="M 0,5134.295 H 2109.737 V 0 H 0 Z"
         transform="translate(-1638.8598,-3745.6312)"
         id="path119" />
    </clipPath>
    <clipPath
       clipPathUnits="userSpaceOnUse"
       id="clipPath121">
      <path
         d="M 0,5134.295 H 2109.737 V 0 H 0 Z"
         transform="translate(-1643.7138,-3710.5763)"
         id="path121" />
    </clipPath>
    <clipPath
       clipPathUnits="userSpaceOnUse"
       id="clipPath123">
      <path
         d="M 0,5134.295 H 2109.737 V 0 H 0 Z"
         transform="translate(-1643.7138,-3710.8133)"
         id="path123" />
    </clipPath>
    <clipPath
       clipPathUnits="userSpaceOnUse"
       id="clipPath125">
      <path
         d="M 0,5134.295 H 2109.737 V 0 H 0 Z"
         transform="translate(-1643.7138,-3710.5763)"
         id="path125" />
    </clipPath>
    <clipPath
       clipPathUnits="userSpaceOnUse"
       id="clipPath127">
      <path
         d="M 0,5134.295 H 2109.737 V 0 H 0 Z"
         transform="translate(-1639.4517,-3754.3949)"
         id="path127" />
    </clipPath>
    <clipPath
       clipPathUnits="userSpaceOnUse"
       id="clipPath129">
      <path
         d="M 0,5134.295 H 2109.737 V 0 H 0 Z"
         transform="translate(-1640.1621,-3757.0003)"
         id="path129" />
    </clipPath>
    <clipPath
       clipPathUnits="userSpaceOnUse"
       id="clipPath131">
      <path
         d="M 0,5134.295 H 2109.737 V 0 H 0 Z"
         transform="translate(-1639.6885,-3755.816)"
         id="path131" />
    </clipPath>
    <clipPath
       clipPathUnits="userSpaceOnUse"
       id="clipPath133">
      <path
         d="M 0,5134.295 H 2109.737 V 0 H 0 Z"
         transform="translate(-1609.6173,-3865.2442)"
         id="path133" />
    </clipPath>
    <clipPath
       clipPathUnits="userSpaceOnUse"
       id="clipPath135">
      <path
         d="M 0,5134.295 H 2109.737 V 0 H 0 Z"
         transform="translate(-1606.776,-3873.2975)"
         id="path135" />
    </clipPath>
    <clipPath
       clipPathUnits="userSpaceOnUse"
       id="clipPath137">
      <path
         d="M 0,5134.295 H 2109.737 V 0 H 0 Z"
         transform="translate(-1630.4541,-3875.1922)"
         id="path137" />
    </clipPath>
    <clipPath
       clipPathUnits="userSpaceOnUse"
       id="clipPath139">
      <path
         d="M 0,5134.295 H 2109.737 V 0 H 0 Z"
         transform="translate(0,-2.5000001e-5)"
         id="path139" />
    </clipPath>
    <clipPath
       clipPathUnits="userSpaceOnUse"
       id="clipPath141">
      <path
         d="M 0,5134.295 H 2109.737 V 0 H 0 Z"
         transform="translate(-1600.3828,-3883.7191)"
         id="path141" />
    </clipPath>
    <clipPath
       clipPathUnits="userSpaceOnUse"
       id="clipPath143">
      <path
         d="M 0,5134.295 H 2109.737 V 0 H 0 Z"
         transform="translate(-1630.6908,-3872.8238)"
         id="path143" />
    </clipPath>
    <clipPath
       clipPathUnits="userSpaceOnUse"
       id="clipPath145">
      <path
         d="M 0,5134.295 H 2109.737 V 0 H 0 Z"
         transform="translate(-1625.7172,-3867.6105)"
         id="path145" />
    </clipPath>
    <clipPath
       clipPathUnits="userSpaceOnUse"
       id="clipPath147">
      <path
         d="M 0,5134.295 H 2109.737 V 0 H 0 Z"
         transform="translate(-1637.2023,-3871.6395)"
         id="path147" />
    </clipPath>
    <clipPath
       clipPathUnits="userSpaceOnUse"
       id="clipPath149">
      <path
         d="M 0,5134.295 H 2109.737 V 0 H 0 Z"
         transform="translate(-1623.5874,-3904.3258)"
         id="path149" />
    </clipPath>
    <clipPath
       clipPathUnits="userSpaceOnUse"
       id="clipPath151">
      <path
         d="M 0,5134.295 H 2109.737 V 0 H 0 Z"
         transform="translate(-1638.8598,-3745.6312)"
         id="path151" />
    </clipPath>
    <clipPath
       clipPathUnits="userSpaceOnUse"
       id="clipPath153">
      <path
         d="M 0,5134.295 H 2109.737 V 0 H 0 Z"
         transform="translate(-1602.2772,-3864.5338)"
         id="path153" />
    </clipPath>
    <clipPath
       clipPathUnits="userSpaceOnUse"
       id="clipPath155">
      <path
         d="M 0,5134.295 H 2109.737 V 0 H 0 Z"
         transform="translate(0,-2.5000001e-5)"
         id="path155" />
    </clipPath>
    <clipPath
       clipPathUnits="userSpaceOnUse"
       id="clipPath157">
      <path
         d="M 0,5134.295 H 2109.737 V 0 H 0 Z"
         transform="translate(-1627.8495,-3905.2733)"
         id="path157" />
    </clipPath>
    <clipPath
       clipPathUnits="userSpaceOnUse"
       id="clipPath159">
      <path
         d="M 0,5134.295 H 2109.737 V 0 H 0 Z"
         transform="translate(-1632.8218,-3900.2992)"
         id="path159" />
    </clipPath>
    <clipPath
       clipPathUnits="userSpaceOnUse"
       id="clipPath161">
      <path
         d="M 0,5134.295 H 2109.737 V 0 H 0 Z"
         transform="translate(-1632.8218,-3900.536)"
         id="path161" />
    </clipPath>
    <clipPath
       clipPathUnits="userSpaceOnUse"
       id="clipPath163">
      <path
         d="M 0,5134.295 H 2109.737 V 0 H 0 Z"
         transform="translate(-1626.4287,-3904.7994)"
         id="path163" />
    </clipPath>
    <clipPath
       clipPathUnits="userSpaceOnUse"
       id="clipPath165">
      <path
         d="M 0,5134.295 H 2109.737 V 0 H 0 Z"
         transform="translate(-1627.8495,-3905.2733)"
         id="path165" />
    </clipPath>
    <clipPath
       clipPathUnits="userSpaceOnUse"
       id="clipPath167">
      <path
         d="M 0,5134.295 H 2109.737 V 0 H 0 Z"
         transform="translate(-1627.1391,-3905.2733)"
         id="path167" />
    </clipPath>
    <clipPath
       clipPathUnits="userSpaceOnUse"
       id="clipPath169">
      <path
         d="M 0,5134.295 H 2109.737 V 0 H 0 Z"
         transform="translate(-1587.36,-3904.3258)"
         id="path169" />
    </clipPath>
    <clipPath
       clipPathUnits="userSpaceOnUse"
       id="clipPath171">
      <path
         d="M 0,5134.295 H 2109.737 V 0 H 0 Z"
         transform="translate(-1623.8241,-3902.431)"
         id="path171" />
    </clipPath>
    <clipPath
       clipPathUnits="userSpaceOnUse"
       id="clipPath173">
      <path
         d="M 0,5134.295 H 2109.737 V 0 H 0 Z"
         transform="translate(-1714.3458,-3822.6246)"
         id="path173" />
    </clipPath>
    <clipPath
       clipPathUnits="userSpaceOnUse"
       id="clipPath175">
      <path
         d="M 0,5134.295 H 2109.737 V 0 H 0 Z"
         transform="translate(-1580.0199,-3905.0365)"
         id="path175" />
    </clipPath>
    <clipPath
       clipPathUnits="userSpaceOnUse"
       id="clipPath177">
      <path
         d="M 0,5134.295 H 2109.737 V 0 H 0 Z"
         transform="translate(-1583.9745,-3904.2784)"
         id="path177" />
    </clipPath>
    <clipPath
       clipPathUnits="userSpaceOnUse"
       id="clipPath179">
      <path
         d="M 0,5134.295 H 2109.737 V 0 H 0 Z"
         transform="translate(-1583.9745,-3904.2784)"
         id="path179" />
    </clipPath>
    <clipPath
       clipPathUnits="userSpaceOnUse"
       id="clipPath181">
      <path
         d="M 0,5134.295 H 2109.737 V 0 H 0 Z"
         transform="translate(-1561.7865,-3664.6236)"
         id="path181" />
    </clipPath>
    <clipPath
       clipPathUnits="userSpaceOnUse"
       id="clipPath183">
      <path
         d="M 0,5134.295 H 2109.737 V 0 H 0 Z"
         transform="translate(-1571.968,-3665.808)"
         id="path183" />
    </clipPath>
    <clipPath
       clipPathUnits="userSpaceOnUse"
       id="clipPath185">
      <path
         d="M 0,5134.295 H 2109.737 V 0 H 0 Z"
         transform="translate(-1555.8682,-3666.284)"
         id="path185" />
    </clipPath>
    <clipPath
       clipPathUnits="userSpaceOnUse"
       id="clipPath187">
      <path
         d="M 0,5134.295 H 2109.737 V 0 H 0 Z"
         transform="translate(-1576.9417,-3667.942)"
         id="path187" />
    </clipPath>
    <clipPath
       clipPathUnits="userSpaceOnUse"
       id="clipPath189">
      <path
         d="M 0,5134.295 H 2109.737 V 0 H 0 Z"
         transform="translate(-1574.1003,-3666.5209)"
         id="path189" />
    </clipPath>
    <clipPath
       clipPathUnits="userSpaceOnUse"
       id="clipPath191">
      <path
         d="M 0,5134.295 H 2109.737 V 0 H 0 Z"
         transform="translate(-1608.6702,-3661.7838)"
         id="path191" />
    </clipPath>
    <clipPath
       clipPathUnits="userSpaceOnUse"
       id="clipPath193">
      <path
         d="M 0,5134.295 H 2109.737 V 0 H 0 Z"
         transform="translate(-1597.3047,-3661.0731)"
         id="path193" />
    </clipPath>
    <clipPath
       clipPathUnits="userSpaceOnUse"
       id="clipPath195">
      <path
         d="M 0,5134.295 H 2109.737 V 0 H 0 Z"
         transform="translate(-1580.4933,-3667.942)"
         id="path195" />
    </clipPath>
    <clipPath
       clipPathUnits="userSpaceOnUse"
       id="clipPath197">
      <path
         d="M 0,5134.295 H 2109.737 V 0 H 0 Z"
         transform="translate(-1655.5527,-3666.7577)"
         id="path197" />
    </clipPath>
    <clipPath
       clipPathUnits="userSpaceOnUse"
       id="clipPath199">
      <path
         d="M 0,5134.295 H 2109.737 V 0 H 0 Z"
         transform="translate(-1639.9252,-3678.1268)"
         id="path199" />
    </clipPath>
    <clipPath
       clipPathUnits="userSpaceOnUse"
       id="clipPath201">
      <path
         d="M 0,5134.295 H 2109.737 V 0 H 0 Z"
         transform="translate(-1632.8218,-3662.2574)"
         id="path201" />
    </clipPath>
    <clipPath
       clipPathUnits="userSpaceOnUse"
       id="clipPath203">
      <path
         d="M 0,5134.295 H 2109.737 V 0 H 0 Z"
         transform="translate(-1639.9252,-3662.4942)"
         id="path203" />
    </clipPath>
    <clipPath
       clipPathUnits="userSpaceOnUse"
       id="clipPath205">
      <path
         d="M 0,5134.295 H 2109.737 V 0 H 0 Z"
         transform="translate(-1550.4222,-3682.3902)"
         id="path205" />
    </clipPath>
    <clipPath
       clipPathUnits="userSpaceOnUse"
       id="clipPath207">
      <path
         d="M 0,5134.295 H 2109.737 V 0 H 0 Z"
         transform="translate(-1566.0498,-3665.8104)"
         id="path207" />
    </clipPath>
    <clipPath
       clipPathUnits="userSpaceOnUse"
       id="clipPath209">
      <path
         d="M 0,5134.295 H 2109.737 V 0 H 0 Z"
         transform="translate(-1557.7623,-3665.8104)"
         id="path209" />
    </clipPath>
    <clipPath
       clipPathUnits="userSpaceOnUse"
       id="clipPath211">
      <path
         d="M 0,5134.295 H 2109.737 V 0 H 0 Z"
         transform="translate(-1561.7865,-3664.6236)"
         id="path211" />
    </clipPath>
    <clipPath
       clipPathUnits="userSpaceOnUse"
       id="clipPath213">
      <path
         d="M 0,5134.295 H 2109.737 V 0 H 0 Z"
         transform="translate(-1571.968,-3665.808)"
         id="path213" />
    </clipPath>
    <clipPath
       clipPathUnits="userSpaceOnUse"
       id="clipPath215">
      <path
         d="M 0,5134.295 H 2109.737 V 0 H 0 Z"
         transform="translate(-1584.3246,-3905.4864)"
         id="path215" />
    </clipPath>
    <clipPath
       clipPathUnits="userSpaceOnUse"
       id="clipPath217">
      <path
         d="M 0,5134.295 H 2109.737 V 0 H 0 Z"
         transform="translate(-1584.3246,-3905.4864)"
         id="path217" />
    </clipPath>
    <clipPath
       clipPathUnits="userSpaceOnUse"
       id="clipPath219">
      <path
         d="M 0,5134.295 H 2109.737 V 0 H 0 Z"
         transform="translate(-1628.6436,-3905.4864)"
         id="path219" />
    </clipPath>
    <clipPath
       clipPathUnits="userSpaceOnUse"
       id="clipPath221">
      <path
         d="M 0,5134.295 H 2109.737 V 0 H 0 Z"
         transform="translate(-1628.6436,-3905.4864)"
         id="path221" />
    </clipPath>
    <clipPath
       clipPathUnits="userSpaceOnUse"
       id="clipPath223">
      <path
         d="M 0,5134.295 H 2109.737 V 0 H 0 Z"
         transform="translate(-1605.6429,-3789.1012)"
         id="path223" />
    </clipPath>
  </defs>
  <g
     inkscape:label="Layer 1"
     inkscape:groupmode="layer"
     id="layer1"
     transform="translate(-67.468753,-64.558336)">
    <g
       id="g903"
       style="display:inline"
       transform="matrix(0.26458333,0,0,0.26458333,-463.37191,-288.46627)">
      <text
         id="text14"
         xml:space="preserve"
         transform="matrix(1.2750322,0.38996232,-0.38996232,1.2750322,2044.154,1385.3528)"
         style="display:inline"><tspan
           id="tspan15"
           style="font-variant:normal;font-weight:normal;font-stretch:normal;font-size:55.2125px;font-family:Rockwell;writing-mode:lr-tb;fill:#2f2d41;fill-opacity:1;fill-rule:nonzero;stroke:none"
           x="0"
           y="0">Tequila</tspan></text>
      <text
         id="text15"
         xml:space="preserve"
         transform="matrix(1.2526856,0.45668005,-0.46329597,1.2708339,2055.4463,1442.1055)"><tspan
           id="tspan16"
           style="font-variant:normal;font-weight:normal;font-stretch:normal;font-size:28.638px;font-family:Rockwell;writing-mode:lr-tb;fill:#2f2d41;fill-opacity:1;fill-rule:nonzero;stroke:none"
           x="0"
           dx="0 0 0 0 0 0 0 0 -1.4347634"
           y="0">(mon chat)</tspan></text>
      <path
         id="path16"
         d="m 0,0 c -7.929,0.35 -15.215,-4.789 -18.909,-11.593 -4.432,-8.163 -3.748,-18.108 -0.974,-26.683 0.592,-1.83 3.489,-1.047 2.893,0.797 -2.484,7.677 -3.358,16.648 0.499,24.049 3.17,6.081 9.44,10.741 16.491,10.43 1.93,-0.085 1.926,2.915 0,3"
         style="fill:#2f2d41;fill-opacity:1;fill-rule:nonzero;stroke:none"
         transform="matrix(1.3333333,0,0,-1.3333333,2156.716,1502.708)"
         clip-path="url(#clipPath17)" />
      <path
         id="path18"
         d="m 0,0 c 6.771,-0.268 13.208,-3.852 16.977,-9.489 0.714,-1.068 2.355,-0.918 2.742,0.358 1.432,4.733 4.24,8.836 8.067,11.957 1.496,1.221 -0.637,3.332 -2.122,2.121 -4.211,-3.435 -7.266,-8.084 -8.838,-13.28 0.914,0.119 1.828,0.239 2.742,0.358 C 15.19,-1.429 7.874,2.688 0,3 -1.931,3.076 -1.927,0.076 0,0"
         style="fill:#2f2d41;fill-opacity:1;fill-rule:nonzero;stroke:none"
         transform="matrix(1.3333333,0,0,-1.3333333,2110.3511,1551.4393)"
         clip-path="url(#clipPath19)" />
      <path
         id="path20"
         d="M 0,0 C -0.258,0.258 -0.729,-0.213 -0.471,-0.471 -0.213,-0.729 0.258,-0.258 0,0 M -5.208,6.87 C -2.945,5.419 -1.009,3.465 1.422,2.366 L 0.002,0.239 c 0.266,-0.26 1.776,1.338 1.894,1.657 h 0.236 c 11.225,-8.016 25.281,-12.699 39.178,-13.274 3,-0.124 9.756,0.664 12.028,-0.284 3.931,-1.64 11.931,-6.251 14.866,-9.052 15.96,-15.232 4.942,-47.842 -16.058,-51.698 -9.163,-1.682 -16.071,1.226 -22.896,7.047 -0.303,0.259 -1.984,2.186 -2.255,1.887 0.544,-8.452 -0.399,-17.005 -1.183,-25.463 -0.406,-4.39 -1.505,-9.981 -1.567,-14.17 -0.06,-3.955 1.428,-11.63 2.067,-15.881 1.884,-12.55 4.481,-25.004 6.531,-37.519 0.957,-5.842 2.219,-12.565 2.673,-18.408 0.04,-0.512 -0.01,-1.03 0.004,-1.54 -1.075,0.056 -2.146,-0.015 -3.197,-0.244 -0.402,-0.088 -0.707,0.266 -0.592,-0.464 2.545,0.415 4.842,0.303 7.339,-0.238 5.477,-1.187 10.107,-5.99 8.51,-11.948 -0.603,-2.251 -1.805,-3.434 -4.001,-4.051 -0.405,-0.114 -1.368,-0.069 -1.431,-0.107 0.046,2.529 0.326,4.81 -0.398,7.299 -0.406,1.394 -1.35,3.143 -2.801,3.591 0.496,-1.882 1.583,-3.776 1.549,-5.786 -0.023,-1.302 -0.976,-4.006 -1.888,-4.936 -0.041,-0.041 -0.907,-0.62 -0.961,-0.642 -1.983,-0.817 -4.704,-0.257 -6.866,-0.237 1.572,3.384 0.681,10.117 -3.2,11.601 0.602,-1.268 1.492,-2.437 1.855,-3.827 0.55,-2.099 0.584,-5.664 -1.506,-6.935 -0.597,-0.363 -1.5,-0.138 -1.411,-0.839 -1.117,0.045 -2.207,0.079 -3.314,0.236 0.129,-1.019 0.601,-1.979 -0.238,-2.841 -0.119,0.047 -0.42,-0.143 -0.485,0.147 -0.142,0.635 0.262,1.592 -0.347,2.218 -0.447,0.46 -1.138,0.298 -1.585,0.5 -0.813,0.367 -2.446,1.24 -3.145,1.874 -0.702,0.638 -2.81,3.723 -3.201,3.902 -1.011,0.462 -2.243,-0.27 -3.312,-0.113 -0.257,1.147 1.98,-0.219 1.893,0.946 0.233,0.015 0.487,-0.03 0.711,0 0.03,0.004 -0.028,-0.112 0.473,0 0.756,0.168 0.995,0.119 0.896,0.769 -1.055,6.935 -4.024,16.225 -5.987,23.153 -5.183,18.293 -12.616,35.841 -17.572,54.19 -1.108,4.102 -1.876,8.334 -3.146,12.367 -0.013,0.077 0.014,0.161 0,0.238 -2.267,13.094 -4.17,25.316 -2.575,38.697 0.628,5.271 2.612,11.374 2.812,16.49 0.003,0.079 -0.002,0.158 0,0.237 0.379,0.169 0.199,0.647 0.237,0.948 0.019,0.152 -0.024,0.325 0,0.473 1.065,6.536 1.139,12.071 0.71,18.712 -0.04,0.625 0.029,1.268 0,1.895 0.726,-2.26 0.378,-4.66 0.474,-6.99 0.012,-0.287 -0.179,-0.88 0.234,-0.825 0.051,9.375 0.854,19.281 2.954,28.43 0.429,1.869 1.031,3.785 1.784,5.439"
         style="fill:#f5eedf;fill-opacity:1;fill-rule:nonzero;stroke:none"
         transform="matrix(1.3333333,0,0,-1.3333333,2088.696,1705.3401)"
         clip-path="url(#clipPath21)" />
      <path
         id="path22"
         d="M 0,0 C 0.102,0.098 1.234,-0.218 1.558,0.228 1.257,5.224 -4.315,8.306 -8.878,8.311 -16.11,8.319 -23.689,-1.827 -19.609,-8.604 c 0.738,-1.225 3.356,-3.765 4.52,-4.501 2.605,-1.647 8.31,-1.347 10.808,0.452 2.232,1.607 4.195,5.056 4.492,7.821 C 0.301,-3.998 -0.224,-0.216 0,0 m -63.94,0.462 c 0.144,-0.148 -0.279,-3.337 -0.222,-4.131 0.638,-9 9.55,-12.88 17.121,-8.37 5.839,3.478 5.391,10.458 1.35,15.241 -1.291,1.528 -3.419,3.444 -5.291,4.182 -5.878,2.319 -12.566,-0.53 -14.369,-6.672 0.271,-0.156 1.361,-0.198 1.411,-0.25 m -6.027,29.854 V 30.08 c 0.154,0.078 0.154,0.158 0,0.236 M 8.05,30.313 c -0.035,0.034 -0.864,0.275 -0.944,0.238 -0.065,-0.343 0.585,-0.408 0.944,-0.469 -0.011,0.076 0.033,0.201 0,0.231 m -4.024,0.001 c -2.096,0.277 -4.262,0.456 -6.309,-0.2 -0.314,-0.1 -0.72,-0.081 -0.794,-0.506 z m -75.533,0.237 c -0.333,0.17 -0.632,-0.15 -0.472,-0.232 0.333,-0.17 0.632,0.15 0.472,0.232 m 78.375,0.005 c -0.142,0.535 -0.74,0.505 -1.183,0.468 -0.292,-0.137 0.854,-0.589 1.183,-0.468 m -76.008,0.469 c -0.603,-0.035 -1.811,0.2 -2.128,-0.47 z m 4.026,0.473 c -0.893,-0.029 -1.801,0.068 -2.694,-0.026 -0.243,-0.025 -1.113,-0.094 -1.093,-0.442 z M 5.446,31.261 C 3.937,31.771 2.311,31.93 0.713,31.972 L 4.684,31.09 Z m -69.376,4.501 c -0.333,0.17 -0.632,-0.15 -0.472,-0.232 0.333,-0.17 0.632,0.149 0.472,0.232 m -0.71,0.005 c -0.142,0.535 -0.74,0.505 -1.182,0.468 -0.293,-0.137 0.854,-0.589 1.182,-0.468 m 66.772,0.942 c -0.431,0.08 -1.607,-0.287 -1.182,-0.707 0.2,-0.197 1.361,0.571 1.182,0.707 m 0.356,0.239 v -0.236 c 0.153,0.079 0.153,0.157 0,0.236 m -68.55,-0.476 -2.128,0.474 c 0.201,-0.414 1.897,-1.03 2.128,-0.474 m -2.368,0.71 c -1.474,0.376 -2.947,1.017 -4.496,0.948 0.126,-0.343 1.06,-0.496 1.418,-0.591 0.676,-0.181 1.639,-0.425 2.311,-0.532 0.252,-0.04 0.824,-0.251 0.767,0.175 m 78.611,1.897 C 7.815,38.315 4.874,38.517 2.843,36.951 l 6.82,1.595 z m 2.37,18.476 c 1.808,0.364 3.074,0.192 4.569,-0.944 0.209,-0.16 0.143,-0.454 0.166,-0.477 0.433,-0.767 0.036,-0.322 -0.306,-0.188 -2.008,0.783 -3.151,0.495 -4.974,-0.57 C 4.755,51.14 -2.381,41.605 -5.691,33.997 c -0.516,-1.187 -0.476,-1.459 -1.167,-2.68 -0.531,-0.939 0.104,-1.81 1.07,-1.956 0.134,-0.02 2.389,0.392 2.476,0.483 0.258,0.272 -0.129,0.788 -0.474,0.827 0.462,0.161 1.329,2.329 1.182,2.486 l -1.178,-0.593 c 0.605,0.596 1.068,1.321 1.514,2.036 2.676,4.282 7.389,13.733 11.977,15.732 1.55,0.675 4.896,1.236 5.89,-0.505 1.145,-2.007 1.133,-7.96 0.975,-10.389 l -3.788,-22.15 c -1.041,-0.148 -1.293,0.995 -1.882,1.552 -2.754,2.602 -6.435,5.838 -9.503,8.021 -0.616,0.438 -1.58,1.179 -2.349,1.205 0.485,-0.437 1.079,-0.836 1.551,-1.286 1.438,-1.37 2.612,-2.768 4.017,-4.042 0.749,-0.679 1.449,-1.709 2.095,-2.286 2.481,-2.218 5.367,-3.541 6.712,-6.905 4.692,-11.732 5.528,-27.234 -3.591,-37.01 -1.828,-1.96 -2.747,-0.704 -5.009,-0.49 -1.922,0.182 -12.674,0.092 -13.208,0.484 -0.209,0.153 -0.09,0.517 -0.204,0.658 -0.164,0.202 -0.507,0.187 -0.648,0.308 -1.288,1.103 -2.326,2.241 -3.714,3.272 -6.1,4.534 -10.271,4.387 -12.387,13.071 0.455,0.236 0.179,0.826 0.126,1.187 -0.137,0.923 -0.28,1.79 -0.37,2.724 -0.044,0.449 0.284,0.958 -0.466,0.827 -0.015,0.155 0.012,0.317 0,0.473 0.403,1.041 0.281,2.548 0.236,3.682 -0.017,0.456 0.244,0.951 -0.473,0.819 -0.486,6.802 -1.092,13.47 -4.059,19.743 -0.191,0.404 -1.274,2.935 -1.856,2.52 -3.661,-6.318 -5.231,-13.495 -5.923,-20.725 -0.769,-8.03 0.292,-15.042 -7.026,-20.447 -2.556,-1.887 -5.903,-3.155 -8.24,-5.259 -1.338,-1.205 -1.964,-2.697 -3.136,-3.983 -8.391,0.646 -17.228,0.062 -25.167,-2.878 l -1.303,0.231 c -0.62,1.805 -1.019,3.713 -1.595,5.526 -0.114,0.357 -0.408,0.374 -0.417,0.401 -0.07,0.223 -0.158,0.492 -0.237,0.711 0.469,0.428 0.031,1.198 -0.015,1.774 -0.08,1.016 -0.295,1.622 -0.456,2.847 -0.329,2.513 -0.208,5.05 -0.235,7.581 -0.004,0.4 0.152,1.053 -0.241,1.299 0.013,0.156 -0.014,0.318 0,0.474 0.763,-0.133 0.407,0.386 0.463,0.829 0.17,1.355 0.292,2.882 0.544,4.203 0.198,1.035 1.06,2.458 0.651,3.495 0.076,0.213 0.203,0.376 0.237,0.473 0.594,1.702 1.327,3.522 1.963,5.26 0.508,1.386 1.287,2.421 1.588,3.978 0.015,0.075 -0.01,0.159 0,0.237 l 7.812,8.648 c 0.176,0.426 -0.273,0.43 -0.554,0.316 -0.629,-0.254 -1.866,-2.318 -2.72,-1.823 -0.297,0.171 -1.661,2.92 -1.877,3.455 -2.431,6.014 -3.827,21.911 -1.121,27.774 0.737,1.596 1.168,1.678 2.853,1.197 4.264,-1.217 10.442,-10.145 12.846,-13.915 0.852,-1.335 1.057,-2.96 2.65,-3.744 -0.113,-0.366 -0.851,0.531 -0.712,-0.237 0.086,-0.473 1.181,-2.957 0.951,-3.195 -0.053,-0.055 -1.034,0 -1.185,-0.475 -2.178,0.432 -3.644,1.102 -6.009,0.917 -0.298,-0.023 -1.462,-0.131 -1.568,-0.444 h 3.67 c 1.155,0 3.124,-1.434 4.144,-0.473 1.743,-0.334 2.529,-0.507 4.277,0.374 -0.449,3.503 -2.402,7.15 -4.416,10.026 -4.339,6.192 -10.796,13.624 -18.294,15.347 -0.417,0.096 -0.886,-0.125 -0.747,0.544 0.08,0.075 0.15,0.17 0.237,0.237 l 2.04,0.683 3.643,0.027 c 0.935,-0.34 5.03,-2.526 5.312,-3.305 0.112,-0.307 -0.284,-0.802 0.123,-1.089 0.429,-0.304 0.927,0.138 1.285,0.075 1.316,-0.231 10.309,-9.855 11.986,-11.55 0.394,-0.399 0.788,-0.789 1.183,-1.184 1.218,-1.218 2.798,-2.961 4.026,-4.027 l 0.236,-0.237 c 0.416,-0.103 1.492,-0.014 1.984,0.031 3.623,0.333 7.115,1.766 10.803,1.39 1.552,-0.158 1.369,0.109 2.71,0.25 3.138,0.33 7.481,-0.643 10.313,-0.25 2.264,0.315 4.44,0.029 6.717,-0.267 1.108,-0.144 4.647,-1.124 5.352,-0.799 0.389,0.18 2.905,2.873 3.443,3.432 4.868,5.055 9.387,10.98 15.269,14.925 l 0.118,-0.233 0.356,0.47 c 0.067,0.042 0.129,0.172 0.236,0.237 1.289,0.772 4.658,2.351 5.92,2.605"
         style="fill:#2e2c2c;fill-opacity:1;fill-rule:nonzero;stroke:none"
         transform="matrix(1.3333333,0,0,-1.3333333,2184.6708,1644.7011)"
         clip-path="url(#clipPath23)" />
      <path
         id="path24"
         d="M 0,0 C -0.292,-0.885 -0.367,-2.297 -0.384,-3.238 -0.412,-4.77 -0.207,-6.5 -0.239,-8.052 l -0.469,0.471 c -0.35,-0.752 0.423,-0.98 0.452,-1.099 0.065,-0.273 0.085,-5.338 0.016,-5.609 -0.047,-0.184 -0.469,-0.154 -0.476,-0.295 -0.013,-0.296 0.284,-0.812 0.256,-1.395 -0.047,-0.989 -1.071,-1.937 -0.25,-2.733 -0.024,-0.148 0.019,-0.321 0,-0.473 -0.356,-0.165 -0.229,-0.636 -0.237,-0.948 -0.002,-0.079 0.003,-0.158 0,-0.237 -0.654,-1.095 -0.715,-2.811 -0.97,-4.122 -3.326,-17.068 -3.525,-29.333 -0.376,-46.609 0.268,-1.472 0.523,-3.08 1.109,-4.456 0.013,-0.077 -0.013,-0.161 0,-0.237 0.062,-0.359 -0.08,-0.844 0.061,-1.235 l 1.479,-7.054 c -0.384,0.186 -0.25,0.745 -0.386,0.918 -0.053,0.068 -1.075,0.053 -1.69,0.323 -2.818,1.238 -5.844,3.37 -8.776,4.719 -2.777,1.278 -5.854,2.528 -8.92,2.8 0.185,-0.392 0.737,-0.696 1.108,-0.903 5.264,-2.936 12.77,-9.934 15.233,-15.554 5.492,-12.533 8.929,-30.815 -2.014,-41.325 -12.616,-12.118 -36.007,-6.664 -43.184,8.904 -0.506,1.098 -0.727,2.615 -1.232,3.455 -0.151,0.252 -0.437,0.17 -0.45,0.19 -0.332,0.52 0.476,0.461 0.483,0.601 0.024,0.538 -0.797,3.401 -0.974,4.236 -0.07,0.331 -0.385,0.594 -0.447,0.978 -0.241,1.5 0.828,4.602 -0.015,6.26 0.822,11.201 4.361,25.359 7.028,36.433 4.71,19.56 11.954,34.331 25.052,49.55 5.355,6.221 16.722,16.203 18.354,24.156 L 0,1.895 C 0.029,1.269 -0.04,0.625 0,0"
         style="fill:#2e2c2c;fill-opacity:1;fill-rule:nonzero;stroke:none"
         transform="matrix(1.3333333,0,0,-1.3333333,2074.4909,1733.4456)"
         clip-path="url(#clipPath25)" />
      <path
         id="path26"
         d="M 0,0 C -0.032,-18.7 -1.356,-37.252 -3.801,-55.788 4.738,-73.321 8.11,-92.473 2.14,-111.45 c -0.218,-0.69 -1.696,-3.773 -1.427,-4.136 9.515,7.607 13.882,19.711 12.004,31.788 -0.967,6.22 -3.126,11.446 -1.992,18 0.928,5.362 4.982,9.245 10.639,8.649 8.679,-0.913 16.776,-13.242 18.18,-21.251 2.379,-0.018 1.025,3.453 3.434,0.713 3.454,-3.931 4.109,-13.792 3.665,-18.829 -0.317,-3.594 -1.34,-7.192 -2.602,-10.541 0.265,-0.083 2.131,0.104 2.131,-0.003 v -3.434 c 0,-3.248 -4.033,-11.358 -5.821,-14.31 -9.113,-15.045 -24.905,-23.6 -42.482,-23.706 -0.079,0 -0.158,0.003 -0.237,0 h -0.71 c -0.435,0.42 0.384,1.316 0.544,1.942 1.251,4.891 -1.206,9.327 -5.753,11.322 -2.688,1.18 -5.51,1.143 -8.404,0.945 -0.922,-0.063 -2.03,-0.327 -2.96,-0.47 0.255,2.468 0.765,4.902 1.182,7.342 1.301,7.608 2.725,15.177 4.262,22.738 0.016,0.076 -0.015,0.161 0,0.237 0.432,2.118 0.967,4.236 1.184,6.395 1.235,5.503 2.709,10.985 3.553,16.58 -3.869,0.187 -6.785,4.106 -8.094,7.418 -1.557,3.939 -1.3,8.779 -0.905,12.952 0.008,0.078 -0.008,0.159 0,0.236 0.384,0.203 0.223,0.805 0.237,1.185 0.012,0.077 -0.016,0.161 0,0.237 l 0.237,0.473 c 0.018,0.074 -0.017,0.162 0,0.237 l 0.236,0.474 c 0.102,-0.014 0.178,0.036 0.228,0.122 5.559,13.726 10.731,27.606 14.216,42.039 C -2.027,-10.773 -1.033,-5.387 0,0"
         style="fill:#2e2c2c;fill-opacity:1;fill-rule:nonzero;stroke:none"
         transform="matrix(1.3333333,0,0,-1.3333333,2210.5607,1758.7103)"
         clip-path="url(#clipPath27)" />
      <path
         id="path28"
         d="M 0,0 C 0.025,-0.158 0.5,-1.16 0.633,-1.194 L 7.102,-1.422 C 7.146,-2.013 7.16,-1.828 6.747,-1.889 4.951,-2.154 3.084,-2.148 1.297,-2.367 1.052,-2.397 0.791,-2.306 0.95,-2.719 1.048,-2.975 2.477,-5.258 2.608,-5.34 c 0.52,-0.325 1.727,0.474 2.363,0.364 -0.089,-0.423 -1.506,-0.52 -1.643,-0.722 -0.65,-0.961 3.804,-3.401 4.638,-3.743 0.893,-0.366 1.817,-0.779 2.806,-0.747 0.118,-0.036 0.13,-0.126 0.12,-0.234 -0.003,-0.035 -0.211,-0.122 -0.24,-0.232 0.812,0.1 1.572,-0.233 2.371,-0.241 0.727,-3.648 5.729,-6.273 9.147,-6.602 5.617,-0.54 9.011,1.623 12.164,5.959 0.104,0.143 0.983,0.315 0.327,0.643 -0.947,0.473 -2.551,0.788 -3.638,1.308 -1.104,0.528 -1.453,1.029 -2.136,1.534 0.911,0.263 1.487,-0.754 1.89,-0.855 0.308,-0.077 0.455,0.154 0.478,0.144 4.148,-1.677 5.245,-2.407 9.793,-0.439 0.947,0.409 3.518,2.022 4.067,2.8 0.505,0.717 -0.957,0.497 -1.074,1.19 2.212,-0.883 2.62,0.833 3.077,2.607 -1.576,0.175 -3.782,0.132 -5.276,0.484 -0.179,0.042 -0.166,0.386 -0.353,0.444 -0.547,0.167 -1.192,0.121 -1.709,0.374 1.282,0.719 3.153,0.248 4.626,0.347 0.931,0.062 2.921,0.232 3.715,0.502 0.258,0.089 0.074,0.523 0.656,0.455 1.031,-0.12 3.687,-0.898 4.972,-1.184 4.318,-0.961 13.801,-3.491 17.285,-5.922 0.023,-0.016 -0.031,-0.291 0.077,-0.389 0.535,-0.479 1.063,-0.46 0.868,-1.505 l -0.941,0.122 c 0.685,-2.771 1.535,-5.551 2.063,-8.358 2.476,-13.171 2.911,-26.234 2.906,-39.61 -0.646,0.176 -0.571,-0.742 -0.638,-1.134 -0.812,-4.806 -1.894,-9.52 -2.762,-14.299 -0.063,-0.346 -0.363,-0.922 0.085,-1.147 -3.485,-14.432 -8.657,-28.313 -14.217,-42.038 -0.05,-0.086 -0.125,-0.137 -0.227,-0.122 -0.034,0.004 -0.107,0.224 -0.232,0.24 -0.039,-0.227 0.04,-0.509 -0.005,-0.714 -0.016,-0.075 0.019,-0.163 0,-0.237 -0.006,-0.026 -0.161,-0.11 -0.236,-0.474 -0.016,-0.075 0.012,-0.159 0,-0.237 -0.05,-0.309 -0.18,-0.654 -0.237,-1.184 -0.009,-0.078 0.007,-0.158 0,-0.237 -0.632,-2.576 -0.931,-5.398 -0.481,-8.043 -0.293,-0.013 -0.579,-0.057 -0.825,-0.236 -22.532,-16.375 -25.821,-36.321 -24.027,-63.131 0.172,-2.578 1.311,-13.632 2.489,-15.28 0.11,-0.154 1.72,-1.999 1.838,-2.073 0.234,-0.148 0.594,-0.02 0.643,-0.058 4.22,-3.299 5.287,-2.603 10.418,-2.843 1.076,-0.05 2.116,-0.23 3.315,-0.236 2.314,-0.013 4.792,0.093 7.103,0.236 1.352,0.085 1.759,0.277 2.842,0.474 2.967,0.542 4.934,0.461 5.426,4.165 0.697,5.249 -2.891,10.441 -8.268,10.994 -0.243,0.372 -1.501,0.555 -1.617,0.749 -0.09,0.149 -0.09,1.335 -0.041,1.383 0.268,0.263 6.589,0.522 7.469,0.483 l 3.897,-0.72 c 4.548,-1.996 7.005,-6.431 5.754,-11.322 -0.16,-0.626 -0.979,-1.523 -0.545,-1.942 0.503,-0.485 0.47,-0.009 0.711,0 0.078,0.003 0.158,-0.001 0.237,0 l 3.077,-0.471 -2.368,-0.241 c 0.486,-2.026 -0.433,-4.16 0.002,-6.155 -12.784,-1.007 -25.65,-1.191 -38.488,-1.413 -8.82,-0.153 -18.978,-0.874 -27.721,-0.264 -0.463,0.032 -0.491,0.13 -0.801,0.254 0.839,0.863 0.367,1.822 0.238,2.841 1.107,-0.156 2.197,-0.19 3.314,-0.236 1.423,-0.057 2.961,0.012 4.262,0 2.162,-0.02 4.883,-0.58 6.866,0.237 0.396,-0.228 1.618,-0.508 2.004,-0.469 0.188,0.02 2.091,0.402 2.342,0.464 0.245,0.061 0.132,0.466 0.153,0.479 0.063,0.038 1.026,-0.006 1.431,0.107 2.196,0.617 3.398,1.8 4.001,4.052 1.597,5.958 -3.033,10.76 -8.51,11.947 -0.041,3.746 -0.345,7.516 -0.711,11.25 -1.411,14.376 -3.508,28.724 -4.734,43.11 -0.882,10.351 0.237,20.711 1.184,31.026 0.359,3.901 1.168,7.773 0.948,11.726 0.422,-0.073 0.409,-0.478 0.507,-0.794 1.375,-4.409 2.137,-8.654 2.342,-13.289 0.271,-6.126 -0.727,-12.268 0.016,-18.341 1.26,-0.156 2.501,0.07 3.717,0.376 12.696,3.193 27.769,21.977 33.946,33.073 9.239,16.594 20.758,52.547 3.636,67.196 -1.283,1.097 -5.956,4.033 -7.464,4.394 -1.141,0.272 -6.95,-1.444 -8.683,-1.755 -17.184,-3.093 -34.73,1.286 -45.402,15.85 -0.407,0.557 -2.21,3.684 -2.425,3.746 -1.217,0.353 -12.727,-6.258 -13.815,-8.267 h -0.236 c 0.161,0.439 -0.247,0.439 0.708,1.305 3.737,3.389 8.41,5.555 12.925,7.692 0.208,0.329 -1.135,3.044 -1.31,3.688 -5.943,-0.299 -11.869,-1.766 -17.301,-4.271 -0.635,-0.57 0.337,-1.264 0.488,-1.838 l 4.488,-4.68 c -1.102,-0.309 -1.129,0.613 -1.551,0.933 -1.054,0.799 -2.199,1.532 -3.235,2.391 -0.8,0.663 -1.123,2.007 -2.237,0.385 -0.164,-0.239 -0.032,-0.529 -0.079,-0.631 -0.753,-1.653 -1.355,-3.57 -1.784,-5.439 -2.1,-9.149 -2.903,-19.055 -2.954,-28.43 -0.413,-0.055 -0.222,0.538 -0.234,0.825 -0.096,2.33 0.252,4.73 -0.474,6.99 l -0.473,-0.237 c 0.773,3.766 0.703,8.479 1.211,12.408 0.526,4.067 1.319,8.431 2.263,12.421 0.16,0.673 1.186,3.468 0.987,3.789 -0.103,0.166 -0.914,0.124 -0.688,1.087 0.013,0.056 0.88,0.58 0.962,0.613 4.316,1.713 8.157,3.07 12.783,4.148 C -6.02,-1.552 -2.713,-1.418 0,0"
         style="fill:#f5eedf;fill-opacity:1;fill-rule:nonzero;stroke:none"
         transform="matrix(1.3333333,0,0,-1.3333333,2109.2185,1682.2844)"
         clip-path="url(#clipPath29)" />
      <path
         id="path32"
         d="M 0,0 C -0.333,0.17 -0.632,-0.15 -0.471,-0.232 -0.139,-0.402 0.161,-0.082 0,0 m -13.495,36.715 c 0.107,-1.496 0.114,-2.983 0.236,-4.5 0.013,-0.156 -0.014,-0.318 0,-0.474 0.153,-1.62 0.325,-3.154 0.711,-4.737 2.116,-8.684 6.287,-8.537 12.387,-13.071 C 1.227,12.902 2.265,11.764 3.553,10.661 3.77,10.085 4.342,9.669 4.263,9.003 4.227,8.992 4.106,8.629 3.678,8.533 1.922,8.138 0.135,7.838 -1.613,7.421 -1.995,7.33 -2.949,7.253 -3.076,6.874 -0.46,7.051 2.152,7.735 4.737,8.056 V 7.582 c 0,-0.547 -0.036,-1.114 0,-1.658 C 4.754,5.666 4.659,5.329 4.974,5.213 V 4.976 C 4.392,5.044 4.576,4.61 4.317,4.522 3.524,4.251 1.534,4.081 0.603,4.019 -0.87,3.921 -2.741,4.392 -4.023,3.673 -3.506,3.419 -2.861,3.466 -2.314,3.298 -2.127,3.24 -2.14,2.896 -1.961,2.854 -0.467,2.503 1.739,2.545 3.315,2.37 2.857,0.596 2.449,-1.119 0.238,-0.237 c 0.117,-0.692 1.578,-0.472 1.074,-1.19 -0.549,-0.778 -3.12,-2.39 -4.068,-2.8 -4.547,-1.968 -5.644,-1.238 -9.792,0.44 -3.291,2.321 -7.253,4.777 -6.393,9.474 2.362,0.203 1.333,1.806 2.373,2.719 0.382,0.334 1.378,0.521 1.962,0.879 1.434,0.878 2.929,1.764 3.022,3.62 0.128,2.543 -2.134,3.709 -4.401,3.91 -2.028,0.181 -7.745,0.282 -9.349,-0.706 -0.957,-0.589 -0.955,-0.908 -1.184,-1.895 -0.525,-2.266 0.461,-3.514 2.291,-4.695 0.44,-0.284 1.999,-0.865 2.148,-1.049 0.732,-0.908 -0.069,-2.459 2.191,-2.783 1.043,-3.19 -0.599,-5.039 -2.838,-6.991 -2.841,-2.476 -6.335,-4.207 -10.185,-4.141 0.01,0.108 -0.002,0.198 -0.12,0.234 -0.99,-0.033 -1.913,0.38 -2.807,0.747 -0.833,0.341 -5.288,2.781 -4.637,3.742 0.137,0.202 1.554,0.299 1.643,0.722 -0.636,0.11 -1.843,-0.688 -2.363,-0.364 -0.131,0.082 -1.56,2.365 -1.658,2.621 -0.159,0.414 0.102,0.322 0.347,0.352 1.787,0.219 3.654,0.214 5.45,0.478 0.413,0.061 0.399,-0.124 0.355,0.467 l -6.469,0.229 c -0.133,0.033 -0.608,1.035 -0.633,1.193 -0.14,0.878 0.023,1.975 0.236,2.841 -8.942,0.824 -17.76,-0.096 -26.282,-2.841 -0.042,0.082 -0.196,0.151 -0.237,0.237 0.484,-0.041 0.851,0.351 1.184,0.474 7.939,2.939 16.775,3.524 25.167,2.877 1.172,1.287 1.798,2.779 3.136,3.984 2.337,2.104 5.684,3.371 8.24,5.259 7.317,5.405 6.257,12.417 7.026,20.447 0.692,7.23 2.262,14.407 5.922,20.725 0.583,0.415 1.666,-2.116 1.857,-2.52 2.966,-6.273 3.572,-12.941 4.059,-19.744"
         style="fill:#f5eedf;fill-opacity:1;fill-rule:nonzero;stroke:none"
         transform="matrix(1.3333333,0,0,-1.3333333,2167.6229,1688.9195)"
         clip-path="url(#clipPath33)" />
      <path
         id="path34"
         d="m 0,0 c 2.726,-2.694 2.929,-6.719 3.088,-10.53 0.463,-11.1 -2.208,-22.642 -3.554,-33.616 1.73,-4.876 3.706,-9.663 4.659,-14.782 1.611,-8.665 0.633,-16.986 -2.536,-25.156 -1.191,0.692 -5.772,1.865 -7.338,2.251 -3.834,0.948 -8.721,1.766 -12.659,1.785 -1.146,0.006 -6.84,-0.064 -7.469,-0.247 0.079,0.667 -0.493,1.082 -0.71,1.659 0.141,-0.122 0.483,-0.107 0.648,-0.309 0.114,-0.141 -0.005,-0.505 0.204,-0.658 0.534,-0.392 11.285,-0.302 13.207,-0.484 2.263,-0.214 3.181,-1.47 5.009,0.49 9.12,9.777 8.283,25.278 3.592,37.01 -1.346,3.364 -4.231,4.687 -6.713,6.905 -0.645,0.577 -1.345,1.607 -2.095,2.286 -1.405,1.274 -2.578,2.673 -4.016,4.042 -0.472,0.45 -1.067,0.85 -1.552,1.286 0.769,-0.026 1.734,-0.767 2.35,-1.205 3.067,-2.183 6.748,-5.419 9.503,-8.021 0.589,-0.556 0.841,-1.7 1.882,-1.551 l 3.787,22.149 c 0.159,2.43 0.171,8.382 -0.975,10.389 -0.993,1.741 -4.34,1.18 -5.89,0.505 -4.587,-1.998 -9.3,-11.45 -11.976,-15.732 -0.447,-0.715 -0.909,-1.44 -1.515,-2.036 l 1.178,0.594 c 0.147,-0.158 -0.72,-2.326 -1.182,-2.487 0.345,-0.039 0.733,-0.555 0.474,-0.827 -0.087,-0.091 -2.341,-0.503 -2.475,-0.482 -0.966,0.146 -1.601,1.017 -1.07,1.955 0.691,1.221 0.65,1.493 1.167,2.68 3.309,7.609 10.446,17.143 17.697,21.379 1.823,1.065 2.966,1.353 4.973,0.57 C 0.036,-0.322 0.432,-0.767 0,0"
         style="fill:#2e2c2c;fill-opacity:1;fill-rule:nonzero;stroke:none"
         transform="matrix(1.3333333,0,0,-1.3333333,2207.7195,1569.856)"
         clip-path="url(#clipPath35)" />
      <path
         id="path36"
         d="m 0,0 c -0.14,-0.669 0.329,-0.448 0.747,-0.544 7.497,-1.723 13.955,-9.155 18.293,-15.347 2.015,-2.875 3.968,-6.523 4.417,-10.026 -1.748,-0.881 -2.535,-0.708 -4.278,-0.374 -0.076,0.015 -0.161,-0.015 -0.236,0 0.151,0.475 1.132,0.421 1.185,0.476 0.23,0.238 -0.866,2.721 -0.951,3.194 -0.14,0.768 0.599,-0.129 0.712,0.237 -1.594,0.784 -1.798,2.409 -2.65,3.745 -2.405,3.769 -8.583,12.697 -12.846,13.914 -1.686,0.481 -2.116,0.399 -2.853,-1.197 -2.707,-5.862 -1.31,-21.76 1.121,-27.774 0.216,-0.534 1.58,-3.284 1.876,-3.455 0.855,-0.495 2.092,1.569 2.721,1.823 0.281,0.114 0.73,0.11 0.554,-0.316 L 0,-44.292 c 0.402,3.013 -1.609,9.904 -2.101,13.412 -0.988,7.047 -2.789,24.426 1.287,30.157 C -0.546,-0.347 -0.266,-0.25 0,0"
         style="fill:#434441;fill-opacity:1;fill-rule:nonzero;stroke:none"
         transform="matrix(1.3333333,0,0,-1.3333333,2077.0164,1569.856)"
         clip-path="url(#clipPath37)" />
      <path
         id="path38"
         d="M 0,0 C 8.522,2.745 17.34,3.664 26.282,2.841 26.069,1.975 25.906,0.878 26.046,0 23.333,-1.418 20.026,-1.552 17.045,-2.247 12.418,-3.325 8.578,-4.682 4.262,-6.395 3.45,-5.01 2.272,-3.872 1.368,-2.539 0.728,-1.595 0.485,-0.956 0,0"
         style="fill:#2e2c2c;fill-opacity:1;fill-rule:nonzero;stroke:none"
         transform="matrix(1.3333333,0,0,-1.3333333,2074.4909,1682.2844)"
         clip-path="url(#clipPath39)" />
      <path
         id="path40"
         d="M 0,0 V -0.237 C 0.154,-0.158 0.154,-0.079 0,0 m 19.771,0.474 c -0.913,-2.414 -2.406,-4.646 -4.025,-6.632 -3.484,2.431 -12.967,4.96 -17.285,5.921 l 0.946,0.354 C -1.518,0.376 -1.768,1.116 -2.27,1.519 -2.904,2.028 -3.69,2.46 -4.355,2.986 -4.572,3.157 -4.67,3.55 -4.857,3.667 -5.325,3.958 -6.255,3.829 -6.748,3.553 V 4.027 C 1.892,5.1 11.786,3.821 19.771,0.474"
         style="fill:#2e2c2c;fill-opacity:1;fill-rule:nonzero;stroke:none"
         transform="matrix(1.3333333,0,0,-1.3333333,2182.9364,1683.5475)"
         clip-path="url(#clipPath41)" />
      <path
         id="path42"
         d="m 0,0 c 0.054,-0.032 0.565,-0.856 0.472,-0.947 -0.058,-0.056 -0.764,0.16 -0.946,0.236 -7.985,3.348 -17.878,4.627 -26.519,3.553 -2.584,-0.321 -5.197,-1.004 -7.813,-1.182 0.127,0.38 1.082,0.456 1.463,0.548 1.749,0.417 3.536,0.717 5.291,1.112 0.428,0.096 0.549,0.459 0.586,0.47 0.629,0.182 6.323,0.252 7.468,0.246 3.939,-0.018 8.826,-0.837 12.66,-1.784 C -5.773,1.865 -1.191,0.692 0,0"
         style="fill:#ebebe9;fill-opacity:1;fill-rule:nonzero;stroke:none"
         transform="matrix(1.3333333,0,0,-1.3333333,2209.9292,1681.9684)"
         clip-path="url(#clipPath43)" />
      <path
         id="path44"
         d="m 0,0 c 0,-0.158 0,-0.316 0,-0.474 -1.033,-5.387 -2.027,-10.772 -3.315,-16.106 -0.448,0.225 -0.148,0.801 -0.085,1.147 0.869,4.779 1.951,9.492 2.763,14.298 C -0.571,-0.742 -0.646,0.176 0,0"
         style="fill:#efe0c3;fill-opacity:1;fill-rule:nonzero;stroke:none"
         transform="matrix(1.3333333,0,0,-1.3333333,2210.5607,1758.0787)"
         clip-path="url(#clipPath45)" />
      <path
         id="path46"
         d="m 0,0 c -0.132,0.717 0.362,0.456 0.818,0.474 3.907,0.155 7.48,0.119 11.387,0 C 12.661,0.46 13.155,0.714 13.023,0 10.192,-0.393 5.849,0.58 2.71,0.25 1.37,0.109 1.552,-0.158 0,0"
         style="fill:#434441;fill-opacity:1;fill-rule:nonzero;stroke:none"
         transform="matrix(1.3333333,0,0,-1.3333333,2134.1595,1595.1207)"
         clip-path="url(#clipPath47)" />
      <path
         id="path48"
         d="m 0,0 c 0.392,-0.246 0.237,-0.899 0.241,-1.299 0.026,-2.531 -0.094,-5.067 0.235,-7.58 0.16,-1.226 0.376,-1.832 0.456,-2.848 0.045,-0.576 0.484,-1.346 0.015,-1.774 C -0.3,-10.011 -0.29,-3.72 0,0"
         style="fill:#434441;fill-opacity:1;fill-rule:nonzero;stroke:none"
         transform="matrix(1.3333333,0,0,-1.3333333,2069.7552,1654.1773)"
         clip-path="url(#clipPath49)" />
      <path
         id="path30"
         d="m 0,0 c 0.843,-1.658 -0.226,-4.76 0.015,-6.261 0.062,-0.384 0.377,-0.646 0.447,-0.977 0.177,-0.836 0.997,-3.698 0.973,-4.236 -0.006,-0.141 -0.815,-0.081 -0.482,-0.601 0.013,-0.02 0.299,0.061 0.45,-0.19 0.505,-0.84 0.726,-2.358 1.232,-3.456 7.177,-15.568 30.568,-21.021 43.184,-8.904 10.943,10.511 7.506,28.792 2.013,41.326 -2.462,5.62 -9.968,12.618 -15.233,15.554 -0.37,0.207 -0.922,0.511 -1.107,0.903 3.066,-0.272 6.142,-1.522 8.919,-2.8 2.933,-1.349 5.959,-3.482 8.777,-4.719 0.614,-0.27 1.637,-0.255 1.69,-0.323 0.136,-0.173 0.002,-0.732 0.386,-0.919 l -1.48,7.055 c -0.14,0.39 0.002,0.876 -0.06,1.234 1.27,-4.033 2.037,-8.266 3.145,-12.367 4.957,-18.349 12.39,-35.897 17.573,-54.19 1.962,-6.928 4.932,-16.218 5.986,-23.153 0.099,-0.651 -0.14,-0.601 -0.895,-0.769 h -0.474 c -0.224,-0.03 -0.478,0.014 -0.71,0 -1.053,-0.066 -1.107,-0.289 -2.368,0 -0.662,0.152 -1.105,0.292 -1.657,0.71 -1.208,0.915 -0.555,1.769 -0.767,3.141 -1.523,9.823 -16.227,12.023 -24.095,10.597 -0.702,-0.127 -1.367,-0.334 -2.131,-0.474 -0.116,-0.021 -0.253,0.037 -0.352,-0.002 -0.112,-0.048 -0.137,-0.121 -0.122,-0.234 C 35.434,-45.638 29.038,-51.243 25.099,-57.556 5.605,-45.897 -1.598,-21.765 0,0"
         style="fill:#2e2c2c;fill-opacity:1;fill-rule:nonzero;stroke:none"
         transform="matrix(1.3333333,0,0,-1.3333333,2006.6137,1878.0865)"
         clip-path="url(#clipPath31)" />
      <path
         id="path50"
         d="M 0,0 C -0.333,-0.123 -0.7,-0.515 -1.184,-0.474 -2.164,1.582 -3.006,3.897 -3.315,6.158 -3.306,6.131 -3.012,6.114 -2.899,5.757 -2.322,3.944 -1.923,2.036 -1.303,0.23 Z"
         style="fill:#434441;fill-opacity:1;fill-rule:nonzero;stroke:none"
         transform="matrix(1.3333333,0,0,-1.3333333,2075.7537,1681.3368)"
         clip-path="url(#clipPath51)" />
      <path
         id="path52"
         d="M 0,0 -3.643,-0.027 -5.683,-0.71 C -3.811,0.723 -2.222,0.809 0,0"
         style="fill:#434441;fill-opacity:1;fill-rule:nonzero;stroke:none"
         transform="matrix(1.3333333,0,0,-1.3333333,2084.9092,1568.5927)"
         clip-path="url(#clipPath53)" />
      <path
         id="path54"
         d="m 0,0 c 0.409,-1.036 -0.453,-2.46 -0.65,-3.494 -0.253,-1.322 -0.375,-2.848 -0.545,-4.204 -0.056,-0.443 0.3,-0.961 -0.462,-0.829 C -1.408,-5.862 -0.899,-2.512 0,0"
         style="fill:#434441;fill-opacity:1;fill-rule:nonzero;stroke:none"
         transform="matrix(1.3333333,0,0,-1.3333333,2071.9652,1642.1764)"
         clip-path="url(#clipPath55)" />
      <path
         id="path56"
         d="M 0,0 C 0.659,3.158 1.987,6.409 3.552,9.238 3.25,7.681 2.472,6.646 1.964,5.26 1.327,3.522 0.594,1.702 0,0"
         style="fill:#434441;fill-opacity:1;fill-rule:nonzero;stroke:none"
         transform="matrix(1.3333333,0,0,-1.3333333,2072.2809,1641.5448)"
         clip-path="url(#clipPath57)" />
      <path
         id="path58"
         d="m 0,0 c -1.262,-0.254 -4.631,-1.833 -5.919,-2.605 1.462,1.114 3.076,2.071 4.85,2.611 C -0.758,0.101 -0.21,0.457 0,0"
         style="fill:#434441;fill-opacity:1;fill-rule:nonzero;stroke:none"
         transform="matrix(1.3333333,0,0,-1.3333333,2201.4051,1567.9612)"
         clip-path="url(#clipPath59)" />
      <path
         id="path60"
         d="M 0,0 -0.237,0.237 C -0.159,0.169 -0.042,0.01 0,0"
         style="fill:#434441;fill-opacity:1;fill-rule:nonzero;stroke:none"
         transform="matrix(1.3333333,0,0,-1.3333333,2117.1113,1597.0156)"
         clip-path="url(#clipPath61)" />
      <path
         id="path62"
         d="M 0,0 C -0.395,0.396 -0.79,0.785 -1.184,1.184 Z"
         style="fill:#434441;fill-opacity:1;fill-rule:nonzero;stroke:none"
         transform="matrix(1.3333333,0,0,-1.3333333,2111.4285,1591.3309)"
         clip-path="url(#clipPath63)" />
      <path
         id="path64"
         d="M 0,0 C 0.144,0.097 0.327,0.144 0.474,0.237 L 0.118,-0.232 Z"
         style="fill:#434441;fill-opacity:1;fill-rule:nonzero;stroke:none"
         transform="matrix(1.3333333,0,0,-1.3333333,2192.5655,1572.0667)"
         clip-path="url(#clipPath65)" />
      <path
         id="path66"
         d="m 0,0 c 1.088,2.008 12.598,8.619 13.815,8.267 0.214,-0.062 2.017,-3.189 2.425,-3.746 10.671,-14.565 28.218,-18.944 45.402,-15.851 1.733,0.312 7.542,2.028 8.682,1.755 1.509,-0.361 6.182,-3.296 7.464,-4.394 17.122,-14.648 5.604,-50.601 -3.635,-67.196 -6.178,-11.095 -21.251,-29.88 -33.947,-33.073 -1.215,-0.305 -2.456,-0.532 -3.716,-0.375 -0.743,6.072 0.255,12.214 -0.016,18.34 -0.205,4.635 -0.967,8.881 -2.342,13.29 -0.099,0.315 -0.085,0.72 -0.507,0.793 0.22,-3.952 -0.59,-7.825 -0.948,-11.726 -0.948,-10.315 -2.066,-20.675 -1.184,-31.025 1.226,-14.387 3.323,-28.734 4.733,-43.111 0.366,-3.734 0.671,-7.504 0.712,-11.249 -2.498,0.541 -4.794,0.653 -7.339,0.238 -0.116,0.73 0.189,0.376 0.592,0.464 1.051,0.229 2.121,0.299 3.196,0.244 -0.013,0.51 0.036,1.028 -0.003,1.539 -0.454,5.844 -1.716,12.567 -2.673,18.408 -2.051,12.516 -4.648,24.969 -6.532,37.52 -0.638,4.251 -2.126,11.926 -2.067,15.881 0.063,4.189 1.161,9.78 1.568,14.17 0.784,8.458 1.727,17.011 1.183,25.463 0.271,0.299 1.952,-1.629 2.255,-1.887 6.825,-5.822 13.732,-8.729 22.896,-7.047 21,3.856 32.018,36.466 16.058,51.698 -2.936,2.801 -10.935,7.412 -14.866,9.052 -2.273,0.947 -9.029,0.16 -12.029,0.284 C 25.281,-12.699 11.225,-8.016 0,0"
         style="fill:#efe0c3;fill-opacity:1;fill-rule:nonzero;stroke:none"
         transform="matrix(1.3333333,0,0,-1.3333333,2091.5391,1702.8117)"
         clip-path="url(#clipPath67)" />
      <path
         id="path68"
         d="m 0,0 c -0.117,-0.319 -1.628,-1.917 -1.893,-1.657 l 1.42,2.126 c -2.431,1.099 -4.367,3.054 -6.63,4.505 0.046,0.102 -0.085,0.391 0.079,0.631 1.113,1.622 1.436,0.278 2.236,-0.385 1.037,-0.859 2.182,-1.593 3.235,-2.391 0.423,-0.321 0.45,-1.243 1.552,-0.933 L -4.49,6.576 C -4.64,7.15 -5.612,7.844 -4.977,8.413 0.454,10.919 6.38,12.386 12.323,12.685 12.498,12.04 13.841,9.326 13.634,8.997 9.118,6.86 4.446,4.694 0.709,1.305 -0.247,0.438 0.161,0.439 0,0"
         style="fill:#efe0c3;fill-opacity:1;fill-rule:nonzero;stroke:none"
         transform="matrix(1.3333333,0,0,-1.3333333,2091.2233,1702.8117)"
         clip-path="url(#clipPath69)" />
      <path
         id="path70"
         d="m 0,0 c -0.586,1.376 -0.841,2.984 -1.109,4.456 -3.149,17.276 -2.95,29.542 0.376,46.609 0.255,1.311 0.316,3.027 0.97,4.123 C 0.037,50.071 -1.947,43.968 -2.576,38.697 -4.17,25.316 -2.267,13.094 0,0"
         style="fill:#434441;fill-opacity:1;fill-rule:nonzero;stroke:none"
         transform="matrix(1.3333333,0,0,-1.3333333,2072.9123,1834.1888)"
         clip-path="url(#clipPath71)" />
      <path
         id="path72"
         d="m 0,0 c -0.82,0.795 0.203,1.744 0.25,2.732 0.028,0.583 -0.269,1.1 -0.255,1.396 0.006,0.141 0.428,0.11 0.475,0.294 0.069,0.272 0.049,5.337 -0.016,5.61 -0.028,0.119 -0.802,0.347 -0.452,1.099 L 0.471,10.66 c 0.033,1.552 -0.173,3.282 -0.145,4.814 0.017,0.941 0.093,2.352 0.384,3.238 C 1.139,12.07 1.066,6.536 0,0"
         style="fill:#434441;fill-opacity:1;fill-rule:nonzero;stroke:none"
         transform="matrix(1.3333333,0,0,-1.3333333,2073.5437,1758.3944)"
         clip-path="url(#clipPath73)" />
      <path
         id="path74"
         d="M 0,0 C 0.008,0.312 -0.119,0.783 0.237,0.948 0.198,0.647 0.379,0.169 0,0"
         style="fill:#434441;fill-opacity:1;fill-rule:nonzero;stroke:none"
         transform="matrix(1.3333333,0,0,-1.3333333,2073.228,1760.2893)"
         clip-path="url(#clipPath75)" />
      <path
         id="path76"
         d="M 0,0 C 0.258,-0.258 -0.213,-0.729 -0.471,-0.471 -0.729,-0.213 -0.258,0.258 0,0"
         style="fill:#efe0c3;fill-opacity:1;fill-rule:nonzero;stroke:none"
         transform="matrix(1.3333333,0,0,-1.3333333,2088.696,1705.3401)"
         clip-path="url(#clipPath77)" />
      <path
         id="path78"
         d="m 0,0 c -4.337,-3.498 -6.142,-9.644 -0.691,-13.126 4.516,-2.885 9.907,-2.108 12.719,2.633 C 14.477,-6.365 13.509,0.584 8.051,1.421 4.983,2.6 2.476,1.997 0,0 m 14.916,-3.552 c -0.224,-0.216 0.301,-3.997 0.211,-4.832 -0.298,-2.764 -2.26,-6.213 -4.492,-7.82 -2.499,-1.799 -8.203,-2.1 -10.808,-0.452 -1.164,0.736 -3.782,3.275 -4.52,4.5 C -8.774,-5.378 -1.195,4.767 6.038,4.759 10.6,4.754 16.172,1.672 16.474,-3.323 16.15,-3.769 15.017,-3.453 14.916,-3.552"
         style="fill:#4e504f;fill-opacity:1;fill-rule:nonzero;stroke:none"
         transform="matrix(1.3333333,0,0,-1.3333333,2164.7832,1639.9657)"
         clip-path="url(#clipPath79)" />
      <path
         id="path80"
         d="m 0,0 c -1.087,-0.471 -3.55,-1.618 -3.921,-2.828 -0.668,-2.179 -0.193,-6.371 0.889,-8.377 1.874,-3.475 5.439,-4.954 9.323,-4.446 0.439,0.057 0.306,0.443 0.501,0.487 1.902,0.43 2.497,0.33 4.213,1.669 4.266,3.33 3.182,8.239 -0.113,11.837 C 7.681,1.848 4.151,1.799 0,0 m -5.457,-3.8 c -0.05,0.051 -1.14,0.094 -1.411,0.25 1.803,6.142 8.491,8.991 14.369,6.672 1.872,-0.739 4,-2.654 5.291,-4.182 4.041,-4.783 4.489,-11.763 -1.35,-15.242 -7.571,-4.509 -16.483,-0.629 -17.121,8.371 -0.056,0.794 0.367,3.983 0.222,4.131"
         style="fill:#4e504f;fill-opacity:1;fill-rule:nonzero;stroke:none"
         transform="matrix(1.3333333,0,0,-1.3333333,2106.6931,1639.0181)"
         clip-path="url(#clipPath81)" />
      <path
         id="path82"
         d="m 0,0 c 0.076,-0.015 0.161,0.015 0.237,0 -1.02,-0.96 -2.989,0.474 -4.144,0.474 h -3.67 c 0.106,0.313 1.27,0.42 1.568,0.443 C -3.644,1.103 -2.178,0.432 0,0"
         style="fill:#ebebe9;fill-opacity:1;fill-rule:nonzero;stroke:none"
         transform="matrix(1.3333333,0,0,-1.3333333,2102.2731,1604.9108)"
         clip-path="url(#clipPath83)" />
      <path
         id="path84"
         d="m 0,0 -0.519,-0.533 -6.82,-1.595 C -5.307,-0.563 -2.367,-0.764 0,0"
         style="fill:#ebebe9;fill-opacity:1;fill-rule:nonzero;stroke:none"
         transform="matrix(1.3333333,0,0,-1.3333333,2198.2459,1592.5953)"
         clip-path="url(#clipPath85)" />
      <path
         id="path86"
         d="M 0,0 -7.102,-0.706 C -7.029,-0.281 -6.623,-0.3 -6.308,-0.2 -4.262,0.456 -2.096,0.277 0,0"
         style="fill:#ebebe9;fill-opacity:1;fill-rule:nonzero;stroke:none"
         transform="matrix(1.3333333,0,0,-1.3333333,2190.0383,1604.2825)"
         clip-path="url(#clipPath87)" />
      <path
         id="path88"
         d="M 0,0 C 0.717,0.132 0.456,-0.362 0.474,-0.818 0.518,-1.953 0.64,-3.459 0.237,-4.5 0.115,-2.984 0.107,-1.497 0,0"
         style="fill:#434441;fill-opacity:1;fill-rule:nonzero;stroke:none"
         transform="matrix(1.3333333,0,0,-1.3333333,2149.6292,1639.9657)"
         clip-path="url(#clipPath89)" />
      <path
         id="path90"
         d="M 0,0 C 0.75,0.131 0.422,-0.378 0.466,-0.826 0.557,-1.761 0.699,-2.628 0.836,-3.55 0.89,-3.912 1.166,-4.502 0.71,-4.737 0.325,-3.154 0.152,-1.62 0,0"
         style="fill:#434441;fill-opacity:1;fill-rule:nonzero;stroke:none"
         transform="matrix(1.3333333,0,0,-1.3333333,2149.9448,1646.5976)"
         clip-path="url(#clipPath91)" />
      <path
         id="path92"
         d="M 0,0 C 0.057,-0.426 -0.516,-0.216 -0.767,-0.176 -1.439,-0.069 -2.402,0.176 -3.078,0.356 -3.436,0.451 -4.37,0.604 -4.496,0.948 -2.947,1.017 -1.474,0.375 0,0"
         style="fill:#ebebe9;fill-opacity:1;fill-rule:nonzero;stroke:none"
         transform="matrix(1.3333333,0,0,-1.3333333,2093.4309,1595.1247)"
         clip-path="url(#clipPath93)" />
      <path
         id="path94"
         d="M 0,0 -0.762,-0.171 -4.733,0.711 C -3.134,0.669 -1.509,0.51 0,0"
         style="fill:#ebebe9;fill-opacity:1;fill-rule:nonzero;stroke:none"
         transform="matrix(1.3333333,0,0,-1.3333333,2191.9316,1603.0197)"
         clip-path="url(#clipPath95)" />
      <path
         id="path96"
         d="m 0,0 -3.786,-0.469 c -0.02,0.349 0.849,0.417 1.093,0.443 C -1.801,0.068 -0.893,-0.029 0,0"
         style="fill:#ebebe9;fill-opacity:1;fill-rule:nonzero;stroke:none"
         transform="matrix(1.3333333,0,0,-1.3333333,2097.8516,1602.7033)"
         clip-path="url(#clipPath97)" />
      <path
         id="path98"
         d="M 0,0 C -0.231,-0.555 -1.927,0.061 -2.128,0.474 Z"
         style="fill:#ebebe9;fill-opacity:1;fill-rule:nonzero;stroke:none"
         transform="matrix(1.3333333,0,0,-1.3333333,2096.588,1596.0723)"
         clip-path="url(#clipPath99)" />
      <path
         id="path100"
         d="M 0,0 C 0.179,-0.136 -0.983,-0.905 -1.182,-0.707 -1.607,-0.288 -0.432,0.079 0,0"
         style="fill:#ebebe9;fill-opacity:1;fill-rule:nonzero;stroke:none"
         transform="matrix(1.3333333,0,0,-1.3333333,2187.514,1595.7555)"
         clip-path="url(#clipPath101)" />
      <path
         id="path102"
         d="M 0,0 C -0.329,-0.121 -1.475,0.332 -1.183,0.469 -0.74,0.505 -0.142,0.535 0,0"
         style="fill:#ebebe9;fill-opacity:1;fill-rule:nonzero;stroke:none"
         transform="matrix(1.3333333,0,0,-1.3333333,2098.4845,1597.0123)"
         clip-path="url(#clipPath103)" />
      <path
         id="path104"
         d="M 0,0 -2.128,-0.469 C -1.812,0.2 -0.604,-0.034 0,0"
         style="fill:#ebebe9;fill-opacity:1;fill-rule:nonzero;stroke:none"
         transform="matrix(1.3333333,0,0,-1.3333333,2092.4845,1603.3349)"
         clip-path="url(#clipPath105)" />
      <path
         id="path106"
         d="M 0,0 C -0.329,-0.121 -1.475,0.332 -1.183,0.469 -0.74,0.505 -0.142,0.535 0,0"
         style="fill:#ebebe9;fill-opacity:1;fill-rule:nonzero;stroke:none"
         transform="matrix(1.3333333,0,0,-1.3333333,2193.8281,1603.9603)"
         clip-path="url(#clipPath107)" />
      <path
         id="path108"
         d="M 0,0 C 0.033,-0.031 -0.011,-0.156 0,-0.232 -0.359,-0.17 -1.01,-0.106 -0.944,0.238 -0.864,0.274 -0.036,0.033 0,0"
         style="fill:#ebebe9;fill-opacity:1;fill-rule:nonzero;stroke:none"
         transform="matrix(1.3333333,0,0,-1.3333333,2195.4043,1604.2832)"
         clip-path="url(#clipPath109)" />
      <path
         id="path110"
         d="M 0,0 C 0.161,-0.082 -0.139,-0.402 -0.471,-0.232 -0.632,-0.15 -0.333,0.17 0,0"
         style="fill:#ebebe9;fill-opacity:1;fill-rule:nonzero;stroke:none"
         transform="matrix(1.3333333,0,0,-1.3333333,2089.3275,1603.9667)"
         clip-path="url(#clipPath111)" />
      <path
         id="path112"
         d="M 0,0 C 0.161,-0.082 -0.139,-0.402 -0.471,-0.232 -0.632,-0.15 -0.333,0.17 0,0"
         style="fill:#ebebe9;fill-opacity:1;fill-rule:nonzero;stroke:none"
         transform="matrix(1.3333333,0,0,-1.3333333,2099.4301,1597.0188)"
         clip-path="url(#clipPath113)" />
      <path
         id="path114"
         d="M 0,0 C 0.154,-0.079 0.154,-0.158 0,-0.237 Z"
         style="fill:#ebebe9;fill-opacity:1;fill-rule:nonzero;stroke:none"
         transform="matrix(1.3333333,0,0,-1.3333333,2187.9876,1595.4364)"
         clip-path="url(#clipPath115)" />
      <path
         id="path116"
         d="M 0,0 C 0.154,-0.079 0.154,-0.158 0,-0.237 Z"
         style="fill:#ebebe9;fill-opacity:1;fill-rule:nonzero;stroke:none"
         transform="matrix(1.3333333,0,0,-1.3333333,2091.3812,1604.2792)"
         clip-path="url(#clipPath117)" />
      <path
         id="path118"
         d="M 0,0 V -0.237 C 0.154,-0.158 0.154,-0.079 0,0 M 0.592,8.527 C 0.197,4.354 -0.06,-0.486 1.496,-4.425 c 1.309,-3.311 4.226,-7.231 8.095,-7.418 -0.844,-5.595 -2.318,-11.077 -3.553,-16.58 -0.472,-2.104 -0.96,-4.263 -1.421,-6.395 -1.549,-7.166 -3.162,-14.467 -4.2,-21.74 -0.053,-0.378 -0.25,-0.998 0.175,-1.235 -0.417,-2.44 -0.928,-4.874 -1.182,-7.342 0.929,0.143 2.038,0.407 2.96,0.47 2.894,0.199 5.715,0.235 8.403,-0.944 l -3.897,0.719 c -0.88,0.04 -7.201,-0.22 -7.469,-0.482 -0.049,-0.049 -0.049,-1.234 0.041,-1.383 0.116,-0.194 1.374,-0.378 1.617,-0.749 -2.064,0.212 -4.561,-0.068 -6.748,-0.002 -0.758,0.023 -1.504,0.023 -2.317,-0.283 -5.265,-1.98 -8.251,-5.612 -11.001,-10.305 -0.395,-0.673 -0.618,-1.441 -0.77,-2.201 -0.049,0.038 -0.409,-0.089 -0.643,0.058 -0.118,0.075 -1.727,1.919 -1.838,2.074 -1.178,1.648 -2.317,12.702 -2.489,15.28 -1.794,26.809 1.495,46.756 24.028,63.131 0.245,0.178 0.531,0.223 0.824,0.236 -0.45,2.645 -0.151,5.466 0.481,8.043"
         style="fill:#efe0c3;fill-opacity:1;fill-rule:nonzero;stroke:none"
         transform="matrix(1.3333333,0,0,-1.3333333,2185.1463,1851.5585)"
         clip-path="url(#clipPath119)" />
      <path
         id="path120"
         d="M 0,0 -0.237,0.237 H 0 C -0.016,0.161 0.015,0.076 0,0"
         style="fill:#efe0c3;fill-opacity:1;fill-rule:nonzero;stroke:none"
         transform="matrix(1.3333333,0,0,-1.3333333,2191.6183,1898.2984)"
         clip-path="url(#clipPath121)" />
      <path
         id="path122"
         d="M 0,0 H -0.237 C 0.224,2.132 0.712,4.291 1.184,6.395 0.967,4.236 0.432,2.118 0,0"
         style="fill:#f5eedf;fill-opacity:1;fill-rule:nonzero;stroke:none"
         transform="matrix(1.3333333,0,0,-1.3333333,2191.6183,1897.9824)"
         clip-path="url(#clipPath123)" />
      <path
         id="path124"
         d="m 0,0 c -1.537,-7.561 -2.961,-15.13 -4.262,-22.738 -0.425,0.237 -0.228,0.857 -0.175,1.235 1.038,7.273 2.651,14.574 4.2,21.74 z"
         style="fill:#f5eedf;fill-opacity:1;fill-rule:nonzero;stroke:none"
         transform="matrix(1.3333333,0,0,-1.3333333,2191.6183,1898.2984)"
         clip-path="url(#clipPath125)" />
      <path
         id="path126"
         d="M 0,0 C 0.057,0.53 0.187,0.875 0.237,1.184 0.223,0.805 0.384,0.203 0,0"
         style="fill:#efe0c3;fill-opacity:1;fill-rule:nonzero;stroke:none"
         transform="matrix(1.3333333,0,0,-1.3333333,2185.9356,1839.8736)"
         clip-path="url(#clipPath127)" />
      <path
         id="path128"
         d="M 0,0 -0.237,-0.474 C -0.192,-0.269 -0.271,0.013 -0.232,0.24 -0.107,0.224 -0.034,0.005 0,0"
         style="fill:#efe0c3;fill-opacity:1;fill-rule:nonzero;stroke:none"
         transform="matrix(1.3333333,0,0,-1.3333333,2186.8827,1836.3997)"
         clip-path="url(#clipPath129)" />
      <path
         id="path130"
         d="M 0,0 C 0.075,0.364 0.23,0.448 0.237,0.474 Z"
         style="fill:#efe0c3;fill-opacity:1;fill-rule:nonzero;stroke:none"
         transform="matrix(1.3333333,0,0,-1.3333333,2186.2513,1837.9788)"
         clip-path="url(#clipPath131)" />
      <path
         id="path132"
         d="M 0,0 C 0.151,-0.047 1.002,-0.576 1.184,-0.71 1.866,-1.216 2.216,-1.717 3.32,-2.245 4.406,-2.765 6.011,-3.08 6.957,-3.553 7.613,-3.881 6.735,-4.052 6.631,-4.195 3.477,-8.532 0.083,-10.694 -5.534,-10.154 c -3.418,0.328 -8.419,2.954 -9.146,6.601 2.885,-0.029 5.033,1.642 7.34,2.843 0.103,0.053 0.428,0.001 0.683,0.136 0.695,0.368 2.938,1.979 3.46,1.98 0.756,0.003 1.602,-1.209 2.324,-1.463 C -0.449,-0.206 -0.091,0.029 0,0"
         style="fill:#f5eedf;fill-opacity:1;fill-rule:nonzero;stroke:none"
         transform="matrix(1.3333333,0,0,-1.3333333,2146.1564,1692.0745)"
         clip-path="url(#clipPath133)" />
      <path
         id="path134"
         d="M 0,0 C -0.86,-4.698 3.102,-7.153 6.393,-9.474 6.37,-9.465 6.223,-9.695 5.915,-9.618 5.512,-9.517 4.936,-8.5 4.025,-8.764 c -0.181,0.135 -1.032,0.663 -1.184,0.711 -0.072,0.556 -2.717,2.562 -2.912,2.56 -0.761,-0.009 -1.903,-1.024 -2.691,-1.218 l -1.737,-2.053 c -2.307,-1.201 -4.455,-2.871 -7.34,-2.842 -0.799,0.008 -1.559,0.341 -2.371,0.241 0.029,0.11 0.237,0.197 0.24,0.233 3.85,-0.066 7.344,1.665 10.185,4.141 C -1.546,-5.039 0.096,-3.19 -0.947,0 -0.691,-0.037 -0.269,-0.023 0,0"
         style="fill:#2e2c2c;fill-opacity:1;fill-rule:nonzero;stroke:none"
         transform="matrix(1.3333333,0,0,-1.3333333,2142.3679,1681.3368)"
         clip-path="url(#clipPath135)" />
      <path
         id="path136"
         d="M 0,0 C 0.493,0.276 1.423,0.406 1.892,0.114 2.079,-0.002 2.176,-0.396 2.393,-0.567 3.058,-1.093 3.844,-1.524 4.478,-2.034 4.981,-2.437 5.23,-3.177 6.155,-3.436 L 5.209,-3.79 c -1.285,0.286 -3.941,1.064 -4.972,1.185 v 0.237 L 0,-1.658 C -0.036,-1.114 0,-0.547 0,0"
         style="fill:#2e2c2c;fill-opacity:1;fill-rule:nonzero;stroke:none"
         transform="matrix(1.3333333,0,0,-1.3333333,2173.9387,1678.8105)"
         clip-path="url(#clipPath137)" />
      <path
         id="path138"
         d="m 1613.64,3881.113 h -0.232 v -0.945 h 0.232 z m -13.257,2.606 c 1.604,0.988 7.321,0.887 9.349,0.707 2.267,-0.202 4.529,-1.368 4.401,-3.911 -0.093,-1.856 -1.588,-2.741 -3.022,-3.62 -0.584,-0.358 -1.58,-0.544 -1.962,-0.879 -1.04,-0.912 -0.011,-2.515 -2.373,-2.719 -0.269,-0.023 -0.692,-0.036 -0.947,0 -2.26,0.325 -1.458,1.875 -2.191,2.783 -0.148,0.185 -1.708,0.765 -2.148,1.049 -1.829,1.181 -2.816,2.43 -2.291,4.695 0.226,-0.916 1.209,-0.025 1.42,-0.236 0.07,-0.071 -0.069,-0.643 10e-4,-0.712 0.104,-0.101 0.78,0.205 1.034,0.17 0.846,-0.119 2.224,-0.787 3.102,-0.887 3.028,-0.346 5.609,0.221 8.415,1.193 -0.182,0.508 -0.15,1.399 -0.454,1.796 -0.806,1.052 -7.656,1.17 -9.146,1.053 z"
         style="fill:#2e2c2c;fill-opacity:1;fill-rule:nonzero;stroke:none"
         transform="matrix(1.3333333,0,0,-1.3333333,0,6845.7333)"
         clip-path="url(#clipPath139)" />
      <path
         id="path140"
         d="m 0,0 3.188,0.482 c 1.49,0.117 8.34,-0.001 9.146,-1.053 0.304,-0.397 0.273,-1.288 0.454,-1.796 C 9.982,-3.339 7.401,-3.906 4.373,-3.56 3.495,-3.46 2.117,-2.792 1.271,-2.673 1.017,-2.638 0.341,-2.944 0.238,-2.843 0.167,-2.774 0.307,-2.202 0.236,-2.131 0.025,-1.92 -0.958,-2.811 -1.184,-1.895 -0.955,-0.907 -0.956,-0.589 0,0"
         style="fill:#2e2c2c;fill-opacity:1;fill-rule:nonzero;stroke:none"
         transform="matrix(1.3333333,0,0,-1.3333333,2133.8437,1667.4413)"
         clip-path="url(#clipPath141)" />
      <path
         id="path142"
         d="M 0,0 C -0.314,0.115 -0.22,0.452 -0.237,0.71 Z"
         style="fill:#434441;fill-opacity:1;fill-rule:nonzero;stroke:none"
         transform="matrix(1.3333333,0,0,-1.3333333,2174.2544,1681.9684)"
         clip-path="url(#clipPath143)" />
      <path
         id="path144"
         d="M 0,0 C 0.161,-0.082 -0.139,-0.402 -0.471,-0.232 -0.632,-0.15 -0.333,0.17 0,0"
         style="fill:#ebebe9;fill-opacity:1;fill-rule:nonzero;stroke:none"
         transform="matrix(1.3333333,0,0,-1.3333333,2167.6229,1688.9195)"
         clip-path="url(#clipPath145)" />
      <path
         id="path146"
         d="M 0,0 C 0.154,-0.079 0.154,-0.158 0,-0.237 Z"
         style="fill:#2e2c2c;fill-opacity:1;fill-rule:nonzero;stroke:none"
         transform="matrix(1.3333333,0,0,-1.3333333,2182.9364,1683.5475)"
         clip-path="url(#clipPath147)" />
      <path
         id="path148"
         d="M 0,0 C 0.016,-0.833 0.922,-0.784 1.421,-0.237 0.933,-0.719 0.599,-1.319 0.237,-1.895 c -0.554,-0.881 -0.885,-1.117 -1.078,-2.356 -0.846,-5.422 4.049,-12.554 8.654,-6.289 0.299,0.406 0.927,1.977 1.185,2.013 0.019,0.003 0.128,-0.209 0.231,-0.24 0.334,1.375 0.539,2.487 0.478,3.923 -0.019,0.455 0.247,0.949 -0.473,0.817 -0.003,0.079 0.006,0.159 0,0.237 -0.009,0.136 0.387,1.113 -0.005,1.661 C 9.128,-2.161 9.017,-2.371 8.998,-2.369 8.829,-2.345 7.47,0.192 7.055,0.425 6.673,0.639 5.956,0.17 5.683,0.948 5.707,0.947 5.78,1.169 6.143,1.09 6.634,0.984 7.522,0.355 7.934,0 8.205,1.027 8.81,0.253 8.763,-0.472 9.164,-0.58 8.9,-0.144 9.029,-0.03 9.121,0.051 10.36,-0.455 10.417,0.233 9.627,0.606 8.869,1.107 8.051,1.421 13.509,0.584 14.477,-6.365 12.028,-10.493 9.216,-15.234 3.825,-16.011 -0.691,-13.126 -6.142,-9.644 -4.337,-3.498 0,0"
         style="fill:#ebebe9;fill-opacity:1;fill-rule:nonzero;stroke:none"
         transform="matrix(1.3333333,0,0,-1.3333333,2164.7832,1639.9657)"
         clip-path="url(#clipPath149)" />
      <path
         id="path150"
         d="M 0,0 C 0.154,-0.079 0.154,-0.158 0,-0.237 Z"
         style="fill:#ebebe9;fill-opacity:1;fill-rule:nonzero;stroke:none"
         transform="matrix(1.3333333,0,0,-1.3333333,2185.1463,1851.5585)"
         clip-path="url(#clipPath151)" />
      <path
         id="path152"
         d="M 0,0 1.737,2.052 C 2.524,2.246 3.667,3.261 4.427,3.27 4.623,3.273 7.267,1.267 7.34,0.71 7.249,0.739 6.891,0.504 6.467,0.653 5.745,0.907 4.899,2.12 4.143,2.117 3.621,2.115 1.378,0.505 0.683,0.136 0.428,0.001 0.103,0.053 0,0"
         style="fill:#ebebe9;fill-opacity:1;fill-rule:nonzero;stroke:none"
         transform="matrix(1.3333333,0,0,-1.3333333,2136.3695,1693.0217)"
         clip-path="url(#clipPath153)" />
      <path
         id="path154"
         d="m 1613.64,3880.167 h -0.232 v 0.945 h 0.232 z"
         style="fill:#2e2c2c;fill-opacity:1;fill-rule:nonzero;stroke:none"
         transform="matrix(1.3333333,0,0,-1.3333333,0,6845.7333)"
         clip-path="url(#clipPath155)" />
      <path
         id="path156"
         d="m 0,0 c 0.42,0.047 0.982,0.016 1.421,0 0.273,-0.777 0.99,-0.309 1.372,-0.523 0.415,-0.233 1.774,-2.77 1.943,-2.793 l 0.236,-1.421 c 0.006,-0.079 -0.003,-0.158 0,-0.237 0.02,-0.479 0.286,-1.012 0.249,-1.785 C 5.178,-7.626 4.894,-8.612 4.736,-9.474 4.478,-9.51 3.85,-11.081 3.551,-11.487 c -4.605,-6.266 -9.5,0.867 -8.654,6.288 0.193,1.239 0.524,1.476 1.078,2.357 -0.932,-3.429 4.405,-3.078 3.448,0.009 -0.485,1.563 -3.163,1.039 -3.448,-0.009 0.362,0.576 0.696,1.176 1.184,1.658 0.078,0.077 0.154,0.164 0.237,0.236 0.439,0.05 0.805,0.276 1.183,0.474 0.089,0.047 0.164,0.209 0.237,0.237 0.168,0.064 0.431,0.227 0.474,0.237 0.072,0.016 0.158,-0.01 0.236,0 0.154,0.019 0.32,-0.017 0.474,0"
         style="fill:#434441;fill-opacity:1;fill-rule:nonzero;stroke:none"
         transform="matrix(1.3333333,0,0,-1.3333333,2170.4659,1638.7024)"
         clip-path="url(#clipPath157)" />
      <path
         id="path158"
         d="m 0,0 c 0.719,0.132 0.453,-0.362 0.473,-0.817 0.061,-1.436 -0.144,-2.549 -0.478,-3.923 -0.103,0.031 -0.213,0.242 -0.232,0.24 0.159,0.863 0.443,1.848 0.485,2.716 C 0.286,-1.012 0.02,-0.479 0,0"
         style="fill:#efe0c3;fill-opacity:1;fill-rule:nonzero;stroke:none"
         transform="matrix(1.3333333,0,0,-1.3333333,2177.0957,1645.3345)"
         clip-path="url(#clipPath159)" />
      <path
         id="path160"
         d="m 0,0 -0.237,1.421 c 0.02,-0.003 0.13,0.208 0.232,0.24 C 0.387,1.113 -0.009,0.136 0,0"
         style="fill:#efe0c3;fill-opacity:1;fill-rule:nonzero;stroke:none"
         transform="matrix(1.3333333,0,0,-1.3333333,2177.0957,1645.0188)"
         clip-path="url(#clipPath161)" />
      <path
         id="path162"
         d="m 0,0 c -0.379,-0.198 -0.745,-0.425 -1.184,-0.474 0.334,0.293 0.684,0.491 1.069,0.705 z"
         style="fill:#ebebe9;fill-opacity:1;fill-rule:nonzero;stroke:none"
         transform="matrix(1.3333333,0,0,-1.3333333,2168.5716,1639.3343)"
         clip-path="url(#clipPath163)" />
      <path
         id="path164"
         d="m 0,0 c -0.154,-0.017 -0.32,0.019 -0.474,0 l 0.353,0.236 z"
         style="fill:#ebebe9;fill-opacity:1;fill-rule:nonzero;stroke:none"
         transform="matrix(1.3333333,0,0,-1.3333333,2170.4659,1638.7024)"
         clip-path="url(#clipPath165)" />
      <path
         id="path166"
         d="M 0,0 C -0.043,-0.01 -0.306,-0.173 -0.474,-0.237 Z"
         style="fill:#ebebe9;fill-opacity:1;fill-rule:nonzero;stroke:none"
         transform="matrix(1.3333333,0,0,-1.3333333,2169.5187,1638.7024)"
         clip-path="url(#clipPath167)" />
      <path
         id="path168"
         d="M 0,0 C 0.62,0.604 0.413,-0.082 0.71,-0.474 0.469,-0.322 0.242,-0.15 0,0"
         style="fill:#ebebe9;fill-opacity:1;fill-rule:nonzero;stroke:none"
         transform="matrix(1.3333333,0,0,-1.3333333,2116.48,1639.9657)"
         clip-path="url(#clipPath169)" />
      <path
         id="path170"
         d="M 0,0 C 0.285,1.048 2.964,1.573 3.448,0.009 4.406,-3.078 -0.931,-3.429 0,0"
         style="fill:#fbfbfe;fill-opacity:1;fill-rule:nonzero;stroke:none"
         transform="matrix(1.3333333,0,0,-1.3333333,2165.0988,1642.4921)"
         clip-path="url(#clipPath171)" />
      <path
         id="path172"
         d="M 0,0 C 7.721,0 7.734,12 0,12 -7.721,12 -7.734,0 0,0"
         style="fill:#ebebe9;fill-opacity:1;fill-rule:nonzero;stroke:none"
         transform="matrix(1.3333333,0,0,-1.3333333,2285.7944,1748.9007)"
         clip-path="url(#clipPath173)" />
      <path
         id="path174"
         d="m 0,0 c 0.302,-0.233 -0.318,-0.434 0.355,-0.479 1.094,-0.072 1.828,0.594 2.723,0.242 -5.648,-2.095 -3.067,-16 3.29,-12.884 3.894,1.909 4.452,8.066 2.156,11.463 0.994,-0.289 1.925,-1.508 2.368,0 3.295,-3.598 4.379,-8.507 0.113,-11.837 -1.716,-1.339 -2.311,-1.239 -4.213,-1.669 -0.195,-0.044 -0.062,-0.43 -0.501,-0.487 -3.884,-0.508 -7.449,0.971 -9.323,4.446 -1.082,2.006 -1.557,6.198 -0.889,8.377 C -3.55,-1.618 -1.087,-0.471 0,0"
         style="fill:#ebebe9;fill-opacity:1;fill-rule:nonzero;stroke:none"
         transform="matrix(1.3333333,0,0,-1.3333333,2106.6931,1639.0181)"
         clip-path="url(#clipPath175)" />
      <path
         id="path176"
         d="M 0,0 C -1.073,-0.323 -0.992,-3.051 0.685,-3.263 3.802,-3.656 2.976,0.895 0,0 M 3.385,0.047 C 3.627,-0.102 3.855,-0.275 4.096,-0.426 4.261,-0.643 4.52,-0.827 4.569,-0.9 6.865,-4.297 6.308,-10.454 2.413,-12.363 -3.944,-15.479 -6.524,-1.573 -0.877,0.521 0.596,1.067 2.067,0.863 3.385,0.047"
         style="fill:#434441;fill-opacity:1;fill-rule:nonzero;stroke:none"
         transform="matrix(1.3333333,0,0,-1.3333333,2111.966,1640.0289)"
         clip-path="url(#clipPath177)" />
      <path
         id="path178"
         d="M 0,0 C 2.976,0.895 3.802,-3.656 0.685,-3.263 -0.992,-3.051 -1.073,-0.323 0,0"
         style="fill:#fbfbfe;fill-opacity:1;fill-rule:nonzero;stroke:none"
         transform="matrix(1.3333333,0,0,-1.3333333,2111.966,1640.0289)"
         clip-path="url(#clipPath179)" />
      <path
         id="path180"
         d="m 0,0 c -0.589,-0.013 -1.187,0.028 -1.777,0.002 -0.288,-0.012 -0.88,0.18 -0.825,-0.234 0.588,0.013 1.187,-0.028 1.777,-0.002 C -0.537,-0.222 0.055,-0.414 0,0 m -13.969,17.056 c 0.005,-0.036 0.218,-0.115 0.242,-0.232 l -0.714,-0.239 c 0.863,-0.037 1.604,0.27 2.488,0.251 C -6.632,16.721 -3.69,16.27 0.948,13.977 2.152,12.658 3.688,11.409 4.38,9.712 5.285,7.489 5.344,3.347 4.263,1.187 4.187,1.035 3.151,-0.17 3.079,-0.234 c -0.331,-0.301 -0.6,-0.614 -1.078,-0.7 -0.793,-0.142 -4.639,-0.149 -5.435,-0.013 -0.279,0.048 -0.42,0.128 -0.586,0.357 1.63,0.844 0.137,0.862 -0.004,1.066 -0.042,0.061 0.01,0.523 0,0.711 -0.058,1.084 0.298,2.057 0.245,3.206 -0.08,1.758 -1.739,6.719 -3.445,7.45 -0.28,0.12 -0.472,-0.071 -0.35,-0.35 0.168,-0.384 0.896,-1.112 1.224,-1.856 0.982,-2.226 1.339,-5.698 0.432,-7.977 -0.174,-0.435 -1.15,-1.718 -1.588,-1.845 -0.953,-0.278 -5.532,-0.117 -6.828,-0.059 -4.484,0.201 -10.315,0.974 -14.495,2.555 -0.263,0.099 -0.847,0.481 -1.004,0.06 -0.899,0.464 -1.173,0.753 -1.894,1.184 3.939,6.313 10.334,11.919 17.758,13.501"
         style="fill:#f5eedf;fill-opacity:1;fill-rule:nonzero;stroke:none"
         transform="matrix(1.3333333,0,0,-1.3333333,2082.382,1959.5687)"
         clip-path="url(#clipPath181)" />
      <path
         id="path182"
         d="M 0,0 -0.945,0.001 -0.944,-0.47 C -0.814,-0.599 0.287,-0.13 0,0 M 3.316,2.845 3.314,2.524 C 2.431,2.204 3.085,1.993 3.079,1.897 3.074,1.819 3.089,1.738 3.079,1.66 2.304,1.5 2.381,1.147 2.132,0.713 1.598,0.526 1.013,0.526 0.471,0.361 l 0.714,-0.596 c -2.834,-1.509 -5.329,-0.597 -8.287,-1.184 0.071,0.065 1.108,1.27 1.184,1.421 1.618,-0.254 2.003,-1.072 2.971,0.699 1.111,2.032 0.418,4.686 -0.401,6.728 -1.353,3.376 -2.866,3.871 -5.885,5.364 -4.638,2.293 -7.581,2.744 -12.902,2.859 -0.883,0.019 -1.624,-0.288 -2.488,-0.251 l 0.714,0.239 c -0.024,0.117 -0.237,0.196 -0.241,0.232 -0.015,0.113 0.009,0.187 0.122,0.235 0.098,0.038 0.235,-0.02 0.351,0.002 0.381,-0.373 2.431,-0.144 2.131,0.473 C -13.678,18.008 1.026,15.808 2.549,5.985 2.761,4.613 2.109,3.759 3.316,2.845"
         style="fill:#efe0c3;fill-opacity:1;fill-rule:nonzero;stroke:none"
         transform="matrix(1.3333333,0,0,-1.3333333,2095.9573,1957.9895)"
         clip-path="url(#clipPath183)" />
      <path
         id="path184"
         d="m 0,0 c 0.685,-0.034 1.302,0.274 1.579,-0.468 l 0.315,-0.006 c 0.01,-0.187 -0.042,-0.65 0,-0.71 -0.712,-0.956 -0.858,0.08 -1.348,0.213 -0.702,0.191 -1.267,-1.221 -2.334,-1.385 -5.836,-0.897 -16.904,0.369 -22.127,3.066 0.157,0.422 0.741,0.04 1.004,-0.06 4.18,-1.58 10.011,-2.354 14.495,-2.555 1.296,-0.058 5.875,-0.218 6.828,0.059 C -1.15,-1.718 -0.173,-0.435 0,0"
         style="fill:#efe0c3;fill-opacity:1;fill-rule:nonzero;stroke:none"
         transform="matrix(1.3333333,0,0,-1.3333333,2074.4909,1957.3548)"
         clip-path="url(#clipPath185)" />
      <path
         id="path186"
         d="m 0,0 c 0.245,-1.442 -0.966,-0.136 -1.894,-0.237 0.006,0.096 -0.649,0.307 0.235,0.627 l 0.002,0.321 C -1.105,0.292 -0.663,0.152 0,0"
         style="fill:#f5eedf;fill-opacity:1;fill-rule:nonzero;stroke:none"
         transform="matrix(1.3333333,0,0,-1.3333333,2102.5889,1955.1441)"
         clip-path="url(#clipPath187)" />
      <path
         id="path188"
         d="m 0,0 c -0.073,-0.127 -0.027,-0.384 -0.217,-0.609 -0.259,-0.306 -0.525,-0.229 -0.73,-0.339 l -0.714,0.596 C -1.12,-0.187 -0.534,-0.187 0,0 0.249,0.435 0.172,0.787 0.947,0.948 0.871,0.323 0.487,0.17 0,0"
         style="fill:#f5eedf;fill-opacity:1;fill-rule:nonzero;stroke:none"
         transform="matrix(1.3333333,0,0,-1.3333333,2098.8003,1957.0389)"
         clip-path="url(#clipPath189)" />
      <path
         id="path190"
         d="m 0,0 c -0.021,-0.013 0.092,-0.418 -0.154,-0.479 -0.25,-0.062 -2.154,-0.444 -2.341,-0.464 -0.386,-0.039 -1.608,0.241 -2.004,0.469 0.054,0.022 0.92,0.601 0.96,0.642 0.912,0.93 1.866,3.634 1.888,4.936 0.035,2.011 -1.052,3.905 -1.548,5.786 1.451,-0.448 2.395,-2.197 2.8,-3.591 C 0.325,4.811 0.046,2.529 0,0"
         style="fill:#efe0c3;fill-opacity:1;fill-rule:nonzero;stroke:none"
         transform="matrix(1.3333333,0,0,-1.3333333,2144.8936,1963.3551)"
         clip-path="url(#clipPath191)" />
      <path
         id="path192"
         d="m 0,0 c -1.301,0.012 -2.839,-0.058 -4.262,0 -0.089,0.701 0.815,0.476 1.412,0.839 2.09,1.271 2.055,4.836 1.506,6.935 -0.364,1.39 -1.254,2.559 -1.855,3.827 C 0.681,10.117 1.573,3.384 0,0"
         style="fill:#efe0c3;fill-opacity:1;fill-rule:nonzero;stroke:none"
         transform="matrix(1.3333333,0,0,-1.3333333,2129.7396,1964.3027)"
         clip-path="url(#clipPath193)" />
      <path
         id="path194"
         d="M 0,0 C -0.501,-0.112 -0.443,0.004 -0.474,0 Z"
         style="fill:#fbfbfe;fill-opacity:1;fill-rule:nonzero;stroke:none"
         transform="matrix(1.3333333,0,0,-1.3333333,2107.3244,1955.1441)"
         clip-path="url(#clipPath195)" />
      <path
         id="path196"
         d="M 0,0 C -0.24,-0.009 -0.208,-0.485 -0.71,0 Z"
         style="fill:#fbfbfe;fill-opacity:1;fill-rule:nonzero;stroke:none"
         transform="matrix(1.3333333,0,0,-1.3333333,2207.4036,1956.7232)"
         clip-path="url(#clipPath197)" />
      <path
         id="path198"
         d="m 0,0 c 5.377,-0.553 8.964,-5.745 8.267,-10.994 -0.492,-3.704 -2.459,-3.623 -5.426,-4.165 1.235,2.276 1.168,5.593 0.311,8.009 -0.429,1.21 -2.199,3.17 -3.624,2.885 0.001,-1.083 1.046,-1.7 1.551,-2.59 1.365,-2.406 1.6,-5.19 -0.05,-7.531 C 0.691,-14.865 0,-14.902 0,-15.633 c -2.311,-0.143 -4.789,-0.249 -7.103,-0.236 0.9,2.626 -0.783,10.294 -3.901,10.667 -0.343,0.041 -0.701,0.126 -0.596,-0.361 1.925,-1.677 3.271,-5.687 2.448,-8.139 -0.321,-0.958 -1.368,-0.828 -1.266,-1.931 -5.131,0.24 -6.198,-0.456 -10.419,2.843 0.153,0.76 0.376,1.527 0.77,2.2 2.751,4.693 5.736,8.325 11.001,10.306 0.813,0.305 1.56,0.306 2.318,0.283 C -4.561,-0.067 -2.065,0.212 0,0"
         style="fill:#f5eedf;fill-opacity:1;fill-rule:nonzero;stroke:none"
         transform="matrix(1.3333333,0,0,-1.3333333,2186.5669,1941.5644)"
         clip-path="url(#clipPath199)" />
      <path
         id="path200"
         d="m 0,0 c -1.198,0.006 -2.239,0.187 -3.315,0.237 -0.102,1.102 0.945,0.972 1.267,1.93 0.822,2.452 -0.523,6.462 -2.449,8.14 -0.105,0.486 0.253,0.401 0.597,0.36 C -0.782,10.294 0.9,2.626 0,0"
         style="fill:#efe0c3;fill-opacity:1;fill-rule:nonzero;stroke:none"
         transform="matrix(1.3333333,0,0,-1.3333333,2177.0957,1962.7236)"
         clip-path="url(#clipPath201)" />
      <path
         id="path202"
         d="m 0,0 c 0,0.731 0.691,0.767 1.029,1.247 1.65,2.341 1.415,5.125 0.05,7.53 -0.505,0.89 -1.55,1.508 -1.551,2.591 C 0.953,11.653 2.723,9.693 3.152,8.483 4.009,6.066 4.076,2.75 2.841,0.474 1.759,0.276 1.352,0.084 0,0"
         style="fill:#efe0c3;fill-opacity:1;fill-rule:nonzero;stroke:none"
         transform="matrix(1.3333333,0,0,-1.3333333,2186.5669,1962.4079)"
         clip-path="url(#clipPath203)" />
      <path
         id="path204"
         d="M 0,0 C 0.3,-0.618 -1.751,-0.846 -2.131,-0.474 -1.367,-0.334 -0.702,-0.127 0,0"
         style="fill:#f5eedf;fill-opacity:1;fill-rule:nonzero;stroke:none"
         transform="matrix(1.3333333,0,0,-1.3333333,2067.2296,1935.8799)"
         clip-path="url(#clipPath205)" />
      <path
         id="path206"
         d="M 0,0 C 1.081,2.16 1.022,6.302 0.117,8.525 -0.575,10.223 -2.111,11.471 -3.315,12.79 -0.295,11.297 1.217,10.802 2.57,7.427 3.389,5.385 4.083,2.731 2.972,0.698 2.003,-1.073 1.619,-0.255 0,0"
         style="fill:#ebebe9;fill-opacity:1;fill-rule:nonzero;stroke:none"
         transform="matrix(1.3333333,0,0,-1.3333333,2088.0663,1957.9863)"
         clip-path="url(#clipPath207)" />
      <path
         id="path208"
         d="m 0,0 -0.315,0.006 c -0.277,0.742 -0.894,0.434 -1.579,0.468 0.907,2.279 0.55,5.75 -0.432,7.976 -0.328,0.744 -1.056,1.472 -1.224,1.856 -0.122,0.279 0.07,0.471 0.35,0.35 C -1.494,9.926 0.165,4.964 0.245,3.206 0.298,2.057 -0.057,1.084 0,0"
         style="fill:#ebebe9;fill-opacity:1;fill-rule:nonzero;stroke:none"
         transform="matrix(1.3333333,0,0,-1.3333333,2077.0164,1957.9863)"
         clip-path="url(#clipPath209)" />
      <path
         id="path210"
         d="m 0,0 c 0.055,-0.414 -0.537,-0.222 -0.825,-0.234 -0.59,-0.026 -1.189,0.015 -1.777,0.002 -0.055,0.414 0.537,0.222 0.825,0.234 C -1.187,0.028 -0.589,-0.013 0,0"
         style="fill:#fbfbfe;fill-opacity:1;fill-rule:nonzero;stroke:none"
         transform="matrix(1.3333333,0,0,-1.3333333,2082.382,1959.5687)"
         clip-path="url(#clipPath211)" />
      <path
         id="path212"
         d="M 0,0 C 0.287,-0.13 -0.814,-0.599 -0.944,-0.47 L -0.945,0.001 Z"
         style="fill:#f5eedf;fill-opacity:1;fill-rule:nonzero;stroke:none"
         transform="matrix(1.3333333,0,0,-1.3333333,2095.9573,1957.9895)"
         clip-path="url(#clipPath213)" />
      <path
         id="path214"
         d="m 0,0 c -1.305,-0.212 -2.243,-1.468 -2.457,-2.718 -0.292,-1.703 -0.259,-6.446 -0.08,-8.232 0.228,-2.274 2.164,-3.997 4.434,-2.961 0.74,0.338 1.668,1.647 1.803,2.448 0.277,1.635 0.217,6.715 0.043,8.456 C 3.548,-1.062 1.998,0.324 0,0 m -0.544,3.317 c 14.135,1.4 15.586,-19.6 2.345,-20.828 -14.053,-1.302 -15.667,19.509 -2.345,20.828"
         style="fill:#f1ecdf;fill-opacity:1;fill-rule:nonzero;stroke:none"
         transform="matrix(1.3333333,0,0,-1.3333333,2112.4328,1638.4183)"
         clip-path="url(#clipPath215)" />
      <path
         id="path216"
         d="m 0,0 c 1.998,0.324 3.548,-1.062 3.743,-3.007 0.174,-1.741 0.234,-6.821 -0.043,-8.456 -0.135,-0.801 -1.063,-2.11 -1.803,-2.448 -2.27,-1.036 -4.206,0.687 -4.434,2.961 -0.179,1.786 -0.212,6.529 0.08,8.232 C -2.243,-1.468 -1.305,-0.212 0,0"
         style="fill:#2e2c2c;fill-opacity:1;fill-rule:nonzero;stroke:none"
         transform="matrix(1.3333333,0,0,-1.3333333,2112.4328,1638.4183)"
         clip-path="url(#clipPath217)" />
      <path
         id="path218"
         d="m 0,0 c -1.305,-0.212 -2.243,-1.468 -2.457,-2.718 -0.292,-1.703 -0.259,-6.446 -0.08,-8.232 0.228,-2.274 2.164,-3.997 4.434,-2.961 0.74,0.338 1.668,1.647 1.803,2.448 0.277,1.635 0.217,6.715 0.043,8.456 C 3.548,-1.062 1.998,0.324 0,0 m -0.544,3.317 c 14.135,1.4 15.586,-19.6 2.345,-20.828 -14.053,-1.302 -15.667,19.509 -2.345,20.828"
         style="fill:#f1ecdf;fill-opacity:1;fill-rule:nonzero;stroke:none"
         transform="matrix(1.3333333,0,0,-1.3333333,2171.5248,1638.4183)"
         clip-path="url(#clipPath219)" />
      <path
         id="path220"
         d="m 0,0 c 1.998,0.324 3.548,-1.062 3.743,-3.007 0.174,-1.741 0.234,-6.821 -0.043,-8.456 -0.135,-0.801 -1.063,-2.11 -1.803,-2.448 -2.27,-1.036 -4.206,0.687 -4.434,2.961 -0.179,1.786 -0.212,6.529 0.08,8.232 C -2.243,-1.468 -1.305,-0.212 0,0"
         style="fill:#2e2c2c;fill-opacity:1;fill-rule:nonzero;stroke:none"
         transform="matrix(1.3333333,0,0,-1.3333333,2171.5248,1638.4183)"
         clip-path="url(#clipPath221)" />
      <path
         id="path222"
         d="m 0,0 c -3.925,5.077 -13.276,13.646 -13.845,20.844 -0.7,8.86 6.505,14.235 11.9,8.446 1.159,-1.244 1.893,-4.084 3.567,-2.588 1.525,1.363 1.617,3.057 4.006,4.216 8.701,4.225 12.533,-9.089 6.926,-17.439 C 9.606,9.088 5.426,4.53 2.164,0.272 L 1.082,-0.272 c -0.143,-0.016 -0.291,0.016 -0.433,0 z"
         style="fill:#2e2c2c;fill-opacity:1;fill-rule:nonzero;stroke:none"
         transform="matrix(1.3333333,0,0,-1.3333333,2140.8571,1793.5985)"
         clip-path="url(#clipPath223)" />
    </g>
  </g>
</svg>
